<svg width="28" height="18" viewBox="0 0 28 18" fill="none" xmlns="http://www.w3.org/2000/svg">
<path d="M1.62378 2.88C5.64378 2.88 9.72378 2.88 13.7438 2.88C17.7038 2.88 21.6038 2.88 25.5638 2.88C25.7438 2.88 25.9238 2.88 26.1038 2.88C27.0038 2.76 27.6038 1.92 27.3638 1.08C27.1838 0.36 26.6438 0 25.6838 0C17.7038 0 9.72378 0 1.74378 0C1.56378 0 1.32378 0 1.14378 0.06C0.483776 0.18 0.0637765 0.72 0.00377646 1.38C-0.0562235 2.28 0.603776 2.88 1.62378 2.88Z" fill="white"/>
<path d="M25.6838 15.12C17.7038 15.12 9.72385 15.12 1.80385 15.12C1.62385 15.12 1.38385 15.12 1.20385 15.18C0.543848 15.3 0.0638482 15.84 0.0638482 16.5C-0.0561518 17.34 0.603848 18 1.62385 18C5.64385 18 9.72385 18 13.7438 18C17.7038 18 21.6038 18 25.5638 18C25.7438 18 25.9238 18 26.1038 18C27.0038 17.88 27.6038 17.04 27.3638 16.2C27.1838 15.48 26.6438 15.12 25.6838 15.12Z" fill="white"/>
<path d="M1.50382 10.38C3.78382 10.38 6.06382 10.38 8.40382 10.38V10.44C9.18382 10.44 9.96382 10.44 10.7438 10.44C12.3038 10.44 13.8038 10.5 15.3638 10.44C15.9638 10.44 16.5038 10.2 16.7438 9.53999C16.9838 8.93999 16.8638 8.39999 16.4438 7.97999C16.0838 7.55999 15.5438 7.55999 15.0038 7.55999C12.0038 7.55999 9.00382 7.55999 6.00382 7.55999C4.50382 7.55999 3.00382 7.49999 1.50382 7.55999C0.603818 7.55999 0.00381774 8.15999 0.0638177 8.99999C0.00381774 9.83999 0.603818 10.38 1.50382 10.38Z" fill="white"/>
</svg>
