<svg width="19" height="18" viewBox="0 0 19 18" fill="none" xmlns="http://www.w3.org/2000/svg">
<path d="M17.9454 15.6217C12.9253 10.6016 7.9053 5.5816 2.92301 0.599304C2.80978 0.48607 2.6588 0.335091 2.50782 0.259601C2.01714 -0.0801006 1.37548 -0.0423556 0.960288 0.372836C0.356373 0.825772 0.356373 1.65615 0.998033 2.29781C3.52692 4.8267 6.09356 7.39334 8.62245 9.92223C11.1136 12.4134 13.567 14.8668 16.0581 17.3579C16.1714 17.4712 16.2846 17.5844 16.3978 17.6976C17.0395 18.1883 17.9454 18.0373 18.3228 17.3579C18.6625 16.7918 18.5493 16.2256 17.9454 15.6217Z" fill="white"/>
<path d="M2.90985 17.4334C7.92989 12.4134 12.9499 7.39334 17.9322 2.41105C18.0455 2.29781 18.1964 2.14683 18.2719 1.99586C18.6116 1.50518 18.5739 0.863516 18.1587 0.448325C17.7058 -0.155589 16.8754 -0.155589 16.2337 0.48607C13.7048 3.01496 11.1382 5.5816 8.60929 8.11049C6.11814 10.6016 3.66474 13.055 1.17359 15.5462C1.06036 15.6594 0.947126 15.7727 0.833892 15.8859C0.343212 16.5275 0.49419 17.4334 1.17359 17.8109C1.73976 18.1506 2.30593 18.0373 2.90985 17.4334Z" fill="white"/>
</svg>
