<svg width="16" height="20" viewBox="0 0 16 20" fill="none" xmlns="http://www.w3.org/2000/svg">
<path d="M15.2634 7.15759C15.2491 6.92761 15.2203 6.70124 15.1916 6.48923C14.9257 4.57401 14.0489 2.98937 12.5792 1.77484C10.6568 0.183011 8.41822 -0.341609 5.92807 0.215351C2.39946 1.00587 -0.0942836 4.21828 0.00273517 7.85468C0.0458546 9.41776 0.473456 10.9413 1.31069 12.5188C2.38509 14.5418 3.86193 16.3672 5.9101 18.2034H4.09549C3.59962 18.2034 3.19717 18.6058 3.19717 19.1017C3.19717 19.5976 3.59962 20 4.09549 20H11.3899C11.8857 20 12.2882 19.5976 12.2882 19.1017C12.2882 18.6058 11.8857 18.2034 11.3899 18.2034H9.34169C9.75851 17.8297 10.1789 17.4488 10.5742 17.0463C12.1265 15.4796 13.2871 13.9022 14.1208 12.2205C14.8682 10.7149 15.2419 9.27763 15.2634 7.82594V7.81875C15.2634 7.75407 15.2634 7.69299 15.2634 7.62831C15.2706 7.47739 15.2742 7.31928 15.2634 7.15759ZM12.8883 10.5748C12.4211 11.7498 11.7205 12.8997 10.6892 14.1897C9.81601 15.2856 8.82067 16.3025 7.65285 17.2978C6.79046 16.5756 5.97837 15.7851 5.23816 14.9442C4.28594 13.8627 3.59243 12.8961 3.05344 11.9007C2.23417 10.3844 1.84609 9.06562 1.83531 7.75048C1.82094 6.33113 2.26291 5.06629 3.14686 3.9919C4.10268 2.82767 5.3244 2.13417 6.77249 1.93294C7.05636 1.89342 7.34023 1.87545 7.61691 1.87545C10.4448 1.87545 12.899 3.85535 13.3913 6.67608C13.6141 7.90499 13.4452 9.18061 12.8883 10.5748Z" fill="#00A1AF"/>
<path d="M7.59542 4.14642C6.65757 4.16079 5.78081 4.54168 5.11964 5.2244C4.47285 5.89275 4.1243 6.75514 4.14226 7.65706C4.1782 9.63696 5.70894 11.1749 7.63854 11.1749C7.65651 11.1749 7.67088 11.1749 7.68885 11.1749C8.63388 11.1605 9.51424 10.7904 10.1682 10.1292C10.815 9.47526 11.1708 8.60928 11.1672 7.69299C11.1636 6.71562 10.7935 5.8137 10.1179 5.14894C9.44956 4.48778 8.55483 4.13204 7.59542 4.14642ZM9.34176 7.67143C9.34176 8.10622 9.16569 8.51945 8.84589 8.83925C8.52249 9.16265 8.09489 9.34231 7.64932 9.34231C7.64573 9.34231 7.64573 9.34231 7.64213 9.34231C7.19297 9.34231 6.77615 9.16624 6.46353 8.85362C6.14373 8.53023 5.96766 8.08825 5.97125 7.61753C5.97844 6.72999 6.74381 5.98618 7.64573 5.98618C7.64932 5.98618 7.65291 5.98618 7.65651 5.98618C8.58717 5.98618 9.34176 6.74436 9.34176 7.67143Z" fill="#00A1AF"/>
</svg>
