<svg width="315" height="796" viewBox="0 0 315 796" fill="none" xmlns="http://www.w3.org/2000/svg">
<path d="M182.054 603.361C182.054 592.712 174.484 588.483 170.7 587.7C174.615 596.314 166.784 598.271 162.869 593.181C159.736 590.049 158.431 582.74 158.17 579.478C158.17 581.566 157.152 587.23 153.08 593.181C147.99 600.621 140.551 593.573 145.249 587.7C140.812 588.744 132.25 593.338 133.503 603.361C135.853 617.065 147.207 611.975 148.773 610.409C148.773 619.806 154.255 625.288 158.17 627.637C164.043 624.896 167.959 615.499 166.784 610.409C168.742 613.933 182.054 616.674 182.054 603.361Z" fill="#21446E"/>
<path d="M285.029 742.359C306.329 718.553 292.077 676.841 282.289 658.961C277.981 644.083 290.511 642.516 291.686 642.516C292.86 642.516 298.734 641.733 299.908 648.781C301.083 655.829 294.035 657.395 290.511 656.612C291.294 659.352 292.469 661.31 294.035 662.485C302.257 669.533 318.31 661.702 314.395 643.299C310.479 624.897 291.294 626.855 282.289 631.162C256.055 644.474 266.627 667.183 268.193 674.623C261.537 669.924 244.309 669.924 236.478 671.882C209.071 680.496 216.118 711.036 222.383 718.866C236.87 737.66 256.055 726.697 258.405 718.866C263.103 701.639 250.965 699.159 244.309 700.073C245.353 700.725 247.442 702.813 247.442 705.946C246.267 716.517 224.732 710.644 235.304 693.808C245.875 676.972 276.807 687.935 276.807 714.56C276.807 741.184 240.785 754.497 220.425 744.708C200.065 734.92 196.15 707.12 197.325 698.898C201.24 675.014 223.949 654.262 227.865 651.913C240.785 642.908 250.182 650.347 251.749 655.437C266.157 638.523 254.359 633.772 246.659 633.511C252.271 627.116 264.591 613.229 268.976 608.844C274.458 603.362 292.077 581.828 296.776 568.515C311.654 534.451 292.077 506.26 290.119 504.303C292.077 504.303 295.209 502.345 296.776 500.779C304.215 493.731 303.04 487.467 298.342 482.377C291.294 493.731 280.722 488.641 275.241 486.292C269.759 483.943 256.447 473.763 235.304 473.763C189.885 474.154 162.086 512.525 163.652 540.716C166.158 573.292 190.538 593.704 202.415 599.838L158.171 646.04L150.34 658.178L150.34 740.401C146.033 750.19 137.811 743.925 135.853 738.835C130.371 750.581 137.419 758.02 140.551 760.37C146.503 765.695 152.689 762.588 155.038 760.37L155.038 764.285C150.731 765.46 146.816 770.941 146.816 775.248C146.816 784.645 154.255 793.651 158.171 796C163.261 792.476 168.351 783.079 168.351 775.248C168.351 768.984 163.391 765.329 160.911 764.285L160.911 760.37C164.435 762.719 169.525 763.894 175.79 760.37C182.054 756.846 184.404 747.449 180.097 739.227C174.772 749.876 167.959 744.447 165.218 740.401L165.218 658.178C185.056 637.557 225.985 594.905 230.997 589.267C224.732 588.875 206.721 587.309 199.674 580.261C175.79 556.769 175.398 532.494 191.843 508.218C208.288 483.943 248.225 489.424 258.796 496.864C278.765 512.525 292.86 530.536 282.289 561.859C280.331 523.88 249.791 507.044 232.955 510.959C196.541 521.139 197.716 546.198 205.155 559.118C212.595 572.039 223.166 574.78 228.648 574.78C234.129 574.78 246.659 572.822 246.659 559.118C246.659 548.155 237.523 546.72 232.955 547.372C234.26 548.416 236.557 551.209 235.304 554.028C230.997 563.034 218.859 557.944 218.859 550.504C218.859 528.97 237.262 525.446 241.96 527.795C274.458 544.24 265.061 570.865 261.537 583.002C258.013 595.14 233.738 617.066 224.732 627.246C215.727 637.426 194.584 658.961 189.885 669.924C170.7 712.993 184.404 734.92 200.065 750.581C215.727 766.243 241.569 767.026 254.489 762.719C266.627 758.412 281.897 756.846 290.119 756.846C298.342 756.846 298.342 764.285 298.342 765.851C298.342 767.417 296.384 772.507 291.686 772.507C287.927 772.507 285.16 768.853 284.246 767.026C282.55 768.331 279.156 771.881 279.156 775.64C279.156 780.338 284.246 787.386 294.035 787.386C312.046 787.386 315.178 774.465 314.003 764.285C311.654 744.708 302.257 743.142 285.029 742.359Z" fill="#21446E"/>
<path d="M30.8541 742.359C9.5544 718.553 23.8064 676.841 33.5949 658.961C37.9022 644.082 25.3723 642.516 24.1977 642.516C23.0231 642.516 17.15 641.733 15.9754 648.781C14.8007 655.829 21.8487 657.395 25.3723 656.612C24.5892 659.352 23.4146 661.31 21.8487 662.485C13.6263 669.533 -2.4268 661.702 1.48861 643.299C5.40402 624.897 24.5894 626.855 33.5949 631.162C59.8282 644.474 49.2564 667.183 47.6903 674.623C54.3465 669.924 71.5742 669.924 79.405 671.882C106.813 680.496 99.7651 711.036 93.5004 718.866C79.0135 737.66 59.828 726.697 57.4788 718.866C52.7803 701.639 64.918 699.159 71.5742 700.073C70.5301 700.725 68.4419 702.813 68.4419 705.946C69.6165 716.517 91.1512 710.644 80.5796 693.808C70.008 676.972 39.0764 687.935 39.0764 714.56C39.0764 741.184 75.0981 754.497 95.4581 744.708C115.818 734.92 119.734 707.12 118.559 698.898C114.644 675.014 91.9343 654.262 88.0189 651.913C75.0981 642.908 65.7011 650.347 64.135 655.437C49.7263 638.523 61.5247 633.772 69.225 633.511C63.6129 627.116 51.2924 613.229 46.9072 608.844C41.4257 603.362 23.8064 581.828 19.1079 568.515C4.2294 534.451 23.8064 506.26 25.7641 504.303C23.8064 504.303 20.6741 502.345 19.1079 500.779C11.6686 493.731 12.8433 487.467 17.5417 482.377C24.5894 493.731 35.161 488.641 40.6426 486.292C46.1241 483.943 59.4365 473.763 80.5796 473.763C125.998 474.154 153.798 512.525 152.231 540.716C149.726 573.292 125.346 593.704 113.469 599.838L157.713 646.04L165.544 658.178L165.544 740.401C169.851 750.19 178.073 743.925 180.031 738.835C185.512 750.581 178.465 758.02 175.332 760.37C169.381 765.695 163.194 762.588 160.845 760.37L160.845 764.285C165.152 765.46 169.068 770.941 169.068 775.248C169.068 784.645 161.628 793.651 157.713 796C152.623 792.476 147.533 783.079 147.533 775.248C147.533 768.984 152.492 765.329 154.972 764.285L154.972 760.37C151.448 762.719 146.358 763.894 140.094 760.37C133.829 756.846 131.48 747.449 135.787 739.227C141.112 749.876 147.924 744.447 150.665 740.401L150.665 658.178C130.827 637.557 89.8983 594.905 84.8866 589.267C91.1512 588.875 109.162 587.309 116.21 580.261C140.094 556.769 140.485 532.494 124.041 508.218C107.596 483.943 67.6588 489.424 57.0872 496.864C37.1187 512.525 23.0233 530.536 33.5949 561.859C35.5527 523.88 66.0926 507.044 82.9289 510.959C119.342 521.139 118.167 546.198 110.728 559.118C103.289 572.039 92.7173 574.78 87.2358 574.78C81.7542 574.78 69.225 572.822 69.225 559.118C69.225 548.155 78.3609 546.72 82.9289 547.372C81.6237 548.416 79.3267 551.209 80.5796 554.028C84.8866 563.034 97.0243 557.944 97.0243 550.504C97.0243 528.97 78.6219 525.446 73.9234 527.795C41.4257 544.24 50.8226 570.865 54.3465 583.002C57.8703 595.14 82.1458 617.066 91.1512 627.246C100.157 637.426 121.3 658.961 125.998 669.924C145.184 712.993 131.48 734.92 115.818 750.581C100.157 766.243 74.315 767.026 61.3942 762.719C49.2564 758.412 33.9864 756.846 25.7641 756.846C17.5417 756.846 17.5417 764.285 17.5417 765.851C17.5417 767.417 19.4994 772.507 24.1979 772.507C27.9567 772.507 30.7236 768.853 31.6372 767.026C33.3338 768.331 36.7272 771.881 36.7272 775.64C36.7272 780.338 31.6372 787.386 21.8485 787.386C3.83766 787.386 0.70537 774.465 1.87999 764.285C4.22921 744.708 13.6264 743.142 30.8541 742.359Z" fill="#21446E"/>
<path d="M182.055 192.639C182.055 203.288 174.485 207.517 170.7 208.3C174.615 199.686 166.785 197.729 162.869 202.819C159.737 205.951 158.432 213.26 158.171 216.522C158.171 214.434 157.153 208.77 153.081 202.819C147.991 195.379 140.551 202.427 145.25 208.3C140.813 207.256 132.251 202.662 133.504 192.639C135.853 178.935 147.208 184.025 148.774 185.591C148.774 176.194 154.255 170.712 158.171 168.363C164.044 171.104 167.959 180.501 166.785 185.591C168.742 182.067 182.055 179.326 182.055 192.639Z" fill="#21446E"/>
<path d="M285.029 53.6411C306.329 77.4467 292.077 119.159 282.289 137.039C277.981 151.917 290.511 153.484 291.686 153.484C292.86 153.484 298.734 154.267 299.908 147.219C301.083 140.171 294.035 138.605 290.511 139.388C291.294 136.648 292.469 134.69 294.035 133.515C302.257 126.467 318.31 134.298 314.395 152.701C310.48 171.103 291.294 169.145 282.289 164.838C256.055 151.526 266.627 128.817 268.193 121.377C261.537 126.076 244.309 126.076 236.479 124.118C209.071 115.504 216.118 84.9643 222.383 77.1335C236.87 58.3396 256.055 69.3027 258.405 77.1335C263.103 94.3612 250.965 96.841 244.309 95.9274C245.353 95.2748 247.442 93.1866 247.442 90.0543C246.267 79.4827 224.732 85.3558 235.304 102.192C245.875 119.028 276.807 108.065 276.807 81.4404C276.807 54.8157 240.785 41.5034 220.425 51.2919C200.065 61.0804 196.15 88.8797 197.325 97.102C201.24 120.986 223.949 141.738 227.865 144.087C240.785 153.092 250.182 145.653 251.749 140.563C266.157 157.477 254.359 162.228 246.659 162.489C252.271 168.884 264.591 182.771 268.976 187.156C274.458 192.638 292.077 214.172 296.776 227.485C311.654 261.549 292.077 289.74 290.119 291.697C292.077 291.697 295.209 293.655 296.776 295.221C304.215 302.269 303.04 308.533 298.342 313.623C291.294 302.269 280.722 307.359 275.241 309.708C269.759 312.057 256.447 322.237 235.304 322.237C189.885 321.846 162.086 283.475 163.652 255.284C166.158 222.708 190.538 202.296 202.415 196.162L158.171 149.96L150.34 137.822L150.34 55.5988C146.033 45.8103 137.811 52.0749 135.853 57.165C130.371 45.4188 137.419 37.9795 140.551 35.6303C146.503 30.3054 152.689 33.4116 155.038 35.6303L155.038 31.7149C150.731 30.5403 146.816 25.0587 146.816 20.7518C146.816 11.3548 154.255 2.34942 158.171 0.00017625C163.261 3.52404 168.351 12.921 168.351 20.7518C168.351 27.0164 163.391 30.6708 160.911 31.7149L160.911 35.6303C164.435 33.2811 169.525 32.1064 175.79 35.6303C182.055 39.1541 184.404 48.5511 180.097 56.7734C174.772 46.1236 167.959 51.5529 165.218 55.5988L165.218 137.822C185.056 158.443 225.985 201.095 230.997 206.733C224.732 207.125 206.721 208.691 199.674 215.739C175.79 239.231 175.398 263.506 191.843 287.782C208.288 312.057 248.225 306.576 258.796 299.136C278.765 283.475 292.86 265.464 282.289 234.141C280.331 272.12 249.791 288.956 232.955 285.041C196.541 274.861 197.716 249.802 205.155 236.882C212.595 223.961 223.166 221.22 228.648 221.22C234.129 221.22 246.659 223.178 246.659 236.882C246.659 247.845 237.523 249.28 232.955 248.628C234.26 247.584 236.557 244.791 235.304 241.972C230.997 232.966 218.859 238.056 218.859 245.496C218.859 267.03 237.262 270.554 241.96 268.205C274.458 251.76 265.061 225.135 261.537 212.998C258.013 200.86 233.738 178.934 224.732 168.754C215.727 158.574 194.584 137.039 189.885 126.076C170.7 83.0065 184.404 61.0803 200.065 45.4188C215.727 29.7572 241.569 28.9741 254.489 33.281C266.627 37.588 281.897 39.1541 290.119 39.1541C298.342 39.1541 298.342 31.7149 298.342 30.1487C298.342 28.5825 296.384 23.4926 291.686 23.4926C287.927 23.4926 285.16 27.1469 284.246 28.9741C282.55 27.669 279.156 24.119 279.156 20.3602C279.156 15.6617 284.246 8.61404 294.035 8.61404C312.046 8.61404 315.178 21.5349 314.004 31.7149C311.654 51.2918 302.257 52.858 285.029 53.6411Z" fill="#21446E"/>
<path d="M30.8542 53.6411C9.55442 77.4467 23.8065 119.159 33.5949 137.039C37.9022 151.917 25.3723 153.484 24.1977 153.484C23.0231 153.484 17.15 154.267 15.9754 147.219C14.8008 140.171 21.8487 138.605 25.3723 139.388C24.5892 136.648 23.4147 134.69 21.8487 133.515C13.6264 126.467 -2.42678 134.298 1.48862 152.701C5.40403 171.103 24.5895 169.145 33.5949 164.838C59.8282 151.526 49.2564 128.817 47.6903 121.377C54.3465 126.076 71.5742 126.076 79.405 124.118C106.813 115.504 99.7651 84.9643 93.5004 77.1335C79.0135 58.3396 59.828 69.3027 57.4788 77.1335C52.7803 94.3612 64.9181 96.841 71.5742 95.9274C70.5301 95.2748 68.4419 93.1866 68.4419 90.0543C69.6165 79.4827 91.1512 85.3558 80.5796 102.192C70.0081 119.028 39.0764 108.065 39.0764 81.4404C39.0764 54.8157 75.0981 41.5034 95.4581 51.2919C115.818 61.0804 119.734 88.8797 118.559 97.102C114.644 120.986 91.9343 141.738 88.0189 144.087C75.0981 153.092 65.7011 145.653 64.135 140.563C49.7263 157.477 61.5247 162.228 69.225 162.489C63.6129 168.884 51.2925 182.771 46.9072 187.156C41.4257 192.638 23.8064 214.172 19.1079 227.485C4.2294 261.549 23.8064 289.74 25.7641 291.697C23.8064 291.697 20.6741 293.655 19.1079 295.221C11.6686 302.269 12.8433 308.533 17.5417 313.623C24.5894 302.269 35.161 307.359 40.6426 309.708C46.1241 312.057 59.4365 322.237 80.5796 322.237C125.998 321.846 153.798 283.475 152.231 255.284C149.726 222.708 125.346 202.296 113.469 196.162L157.713 149.96L165.544 137.822L165.544 55.5988C169.851 45.8103 178.073 52.0749 180.031 57.165C185.512 45.4188 178.465 37.9795 175.332 35.6303C169.381 30.3054 163.195 33.4116 160.845 35.6303L160.845 31.7149C165.152 30.5403 169.068 25.0587 169.068 20.7518C169.068 11.3548 161.628 2.34942 157.713 0.00017623C152.623 3.52404 147.533 12.921 147.533 20.7518C147.533 27.0164 152.492 30.6708 154.972 31.7149L154.972 35.6303C151.448 33.2811 146.358 32.1064 140.094 35.6303C133.829 39.1541 131.48 48.5511 135.787 56.7734C141.112 46.1236 147.924 51.5529 150.665 55.5988L150.665 137.822C130.827 158.443 89.8983 201.095 84.8866 206.733C91.1512 207.125 109.162 208.691 116.21 215.739C140.094 239.231 140.485 263.506 124.041 287.782C107.596 312.057 67.6588 306.576 57.0873 299.136C37.1187 283.475 23.0233 265.464 33.5949 234.141C35.5527 272.12 66.0927 288.956 82.9289 285.041C119.342 274.861 118.167 249.802 110.728 236.882C103.289 223.961 92.7174 221.22 87.2358 221.22C81.7542 221.22 69.225 223.178 69.225 236.882C69.225 247.845 78.3609 249.28 82.9289 248.628C81.6237 247.584 79.3267 244.791 80.5796 241.972C84.8866 232.966 97.0243 238.056 97.0243 245.495C97.0243 267.03 78.6219 270.554 73.9234 268.205C41.4257 251.76 50.8226 225.135 54.3465 212.998C57.8703 200.86 82.1458 178.934 91.1512 168.754C100.157 158.574 121.3 137.039 125.998 126.076C145.184 83.0065 131.48 61.0803 115.818 45.4188C100.157 29.7572 74.315 28.9741 61.3942 33.281C49.2565 37.588 33.9864 39.1541 25.7641 39.1541C17.5418 39.1541 17.5418 31.7149 17.5418 30.1487C17.5418 28.5825 19.4995 23.4925 24.1979 23.4925C27.9567 23.4925 30.7236 27.1469 31.6372 28.9741C33.3338 27.669 36.7272 24.119 36.7272 20.3602C36.7272 15.6617 31.6372 8.61403 21.8485 8.61403C3.83769 8.61403 0.705396 21.5348 1.88002 31.7149C4.22923 51.2918 13.6264 52.858 30.8542 53.6411Z" fill="#21446E"/>
<path fill-rule="evenodd" clip-rule="evenodd" d="M250.453 415.45C255.991 419.006 260.597 421.962 261.929 422.863C275.241 431.868 283.072 430.694 287.77 426.387C292.469 422.08 290.903 413.074 284.247 413.858C280.331 414.249 277.59 416.99 276.807 421.297C273.675 415.424 273.283 405.635 283.463 403.286C293.643 400.937 303.432 410.725 303.432 421.297C303.432 431.868 297.95 441.747 279.156 442.831C267.716 443.492 251.977 433.466 239.823 425.725C238.251 424.723 236.739 423.76 235.304 422.863C225.281 416.598 215.727 410.334 212.203 407.984L171.483 434.218L197.325 451.837L158.171 475.721L119.408 451.837L144.467 434.218L198.891 398.587L224.733 398.587C224.992 399.107 239.536 408.443 250.453 415.45ZM158.171 461.234L173.049 451.445L158.171 441.657L142.118 451.445L158.171 461.234Z" fill="#21446E"/>
<path fill-rule="evenodd" clip-rule="evenodd" d="M65.8885 415.45C60.3498 419.006 55.7448 421.962 54.4124 422.863C41.1003 431.868 33.2695 430.694 28.571 426.387C23.8726 422.08 25.4384 413.074 32.0946 413.858C36.01 414.249 38.7511 416.99 39.5341 421.297C42.6665 415.424 43.058 405.635 32.878 403.286C22.6979 400.937 12.9095 410.725 12.9094 421.297C12.9094 431.868 18.391 441.747 37.1849 442.831C48.6258 443.491 64.3644 433.466 76.5179 425.725C78.0901 424.723 79.6022 423.76 81.0373 422.863C91.0608 416.598 100.614 410.334 104.138 407.984L144.858 434.218L119.017 451.837L158.171 475.721L196.933 451.837L171.875 434.218L117.451 398.587L91.6086 398.587C91.3489 399.107 76.8052 408.443 65.8885 415.45ZM158.171 461.234L143.292 451.445L158.171 441.657L174.224 451.445L158.171 461.234Z" fill="#21446E"/>
<path fill-rule="evenodd" clip-rule="evenodd" d="M250.453 382.116C255.991 378.561 260.597 375.605 261.929 374.704C275.241 365.698 283.072 366.873 287.77 371.18C292.469 375.487 290.903 384.492 284.247 383.709C280.331 383.317 277.59 380.577 276.807 376.27C273.675 382.143 273.283 391.931 283.463 394.281C293.643 396.63 303.432 386.841 303.432 376.27C303.432 365.698 297.95 355.819 279.156 354.735C267.716 354.075 251.977 364.1 239.823 371.842C238.251 372.843 236.739 373.807 235.304 374.704C225.281 380.968 215.727 387.233 212.203 389.582L171.483 363.349L197.325 345.73L158.171 321.846L119.408 345.73L144.467 363.349L198.891 398.979L224.733 398.979C224.992 398.46 239.536 389.124 250.453 382.116ZM158.171 336.333L173.049 346.121L158.171 355.91L142.118 346.121L158.171 336.333Z" fill="#21446E"/>
<path fill-rule="evenodd" clip-rule="evenodd" d="M65.8885 382.116C60.3498 378.561 55.7448 375.605 54.4124 374.704C41.1003 365.698 33.2695 366.873 28.571 371.18C23.8726 375.487 25.4384 384.492 32.0946 383.709C36.01 383.317 38.7511 380.577 39.5341 376.27C42.6665 382.143 43.058 391.931 32.878 394.281C22.6979 396.63 12.9095 386.841 12.9095 376.27C12.9095 365.698 18.391 355.819 37.1849 354.735C48.6258 354.075 64.3644 364.1 76.5179 371.842C78.0901 372.843 79.6022 373.807 81.0374 374.704C91.0608 380.968 100.614 387.233 104.138 389.582L144.858 363.349L119.017 345.73L158.171 321.846L196.933 345.73L171.875 363.349L117.451 398.979L91.6086 398.979C91.3489 398.46 76.8052 389.124 65.8885 382.116ZM158.171 336.333L143.292 346.121L158.171 355.91L174.224 346.121L158.171 336.333Z" fill="#21446E"/>
</svg>
