<svg width="18" height="20" viewBox="0 0 18 20" fill="none" xmlns="http://www.w3.org/2000/svg">
<path fill-rule="evenodd" clip-rule="evenodd" d="M2.7 3.52734C2.20294 3.52734 1.8 3.92216 1.8 4.40918V16.7549C1.8 17.2419 2.20294 17.6367 2.7 17.6367H15.3C15.7971 17.6367 16.2 17.2419 16.2 16.7549V4.40918C16.2 3.92216 15.7971 3.52734 15.3 3.52734H2.7ZM0 4.40918C0 2.94811 1.20883 1.76367 2.7 1.76367H15.3C16.7912 1.76367 18 2.94811 18 4.40918V16.7549C18 18.216 16.7912 19.4004 15.3 19.4004H2.7C1.20883 19.4004 0 18.216 0 16.7549V4.40918Z" fill="#1EC7BF"/>
<path fill-rule="evenodd" clip-rule="evenodd" d="M12.6 0C13.0971 0 13.5 0.394811 13.5 0.881836V4.40918C13.5 4.8962 13.0971 5.29102 12.6 5.29102C12.1029 5.29102 11.7 4.8962 11.7 4.40918V0.881836C11.7 0.394811 12.1029 0 12.6 0Z" fill="#1EC7BF"/>
<path fill-rule="evenodd" clip-rule="evenodd" d="M5.4 0C5.89706 0 6.3 0.394811 6.3 0.881836V4.40918C6.3 4.8962 5.89706 5.29102 5.4 5.29102C4.90294 5.29102 4.5 4.8962 4.5 4.40918V0.881836C4.5 0.394811 4.90294 0 5.4 0Z" fill="#1EC7BF"/>
<path fill-rule="evenodd" clip-rule="evenodd" d="M0 7.93652C0 7.4495 0.402944 7.05469 0.9 7.05469H17.1C17.5971 7.05469 18 7.4495 18 7.93652C18 8.42355 17.5971 8.81836 17.1 8.81836H0.9C0.402944 8.81836 0 8.42355 0 7.93652Z" fill="#1EC7BF"/>
</svg>
