<svg width="19" height="18" viewBox="0 0 19 18" fill="none" xmlns="http://www.w3.org/2000/svg">
<path d="M18.9973 9.82267C18.9973 9.30756 18.6901 9.01321 18.1462 8.99983C17.7223 8.9898 17.302 8.99983 16.8782 8.99649C16.8005 8.99649 16.7228 8.9898 16.6274 8.98311C16.6274 8.88611 16.6274 8.80918 16.6274 8.73559C16.6274 7.85924 16.6274 6.97954 16.6274 6.10319C16.6274 5.54794 16.3272 5.26028 15.7374 5.25025C15.5149 5.24691 15.2959 5.25025 15.0416 5.25025C15.0416 5.13987 15.0416 5.06294 15.0416 4.98601C15.0416 4.13641 15.0416 3.28682 15.0416 2.43723C15.0416 1.77495 14.7555 1.50067 14.0632 1.50067C12.4032 1.50067 10.7432 1.50401 9.08323 1.49398C8.93842 1.49398 8.77596 1.44381 8.65587 1.37022C8.05544 0.98556 7.46561 0.584178 6.86871 0.189485C6.37778 -0.134966 5.90803 -0.0379652 5.60782 0.443694C5.42416 0.741386 5.2405 1.03573 5.07096 1.34011C4.99679 1.47391 4.91203 1.52743 4.74603 1.52408C4.09968 1.51405 3.45687 1.51739 2.81053 1.52074C1.2141 1.52743 0.00264894 2.67137 0.00264894 4.18993C-0.000882982 8.02313 -0.000882982 11.8563 0.00264894 15.6895C0.00264894 17.0174 1.02691 17.9941 2.42555 17.9975C6.85812 18.0008 11.2907 18.0008 15.7233 17.9975C16.3202 17.9975 16.6274 17.7031 16.6274 17.1412C16.6274 16.2582 16.6274 15.3718 16.6274 14.4887C16.6274 14.4152 16.6345 14.3416 16.638 14.2513C17.1502 14.2513 17.6376 14.2546 18.125 14.2513C18.683 14.2479 18.9938 13.9569 18.9973 13.4251C19.0009 12.2209 19.0009 11.0201 18.9973 9.82267ZM13.4346 3.00251C13.4346 3.50424 13.4346 3.99593 13.4346 4.5378C12.6611 4.02603 11.9088 3.53099 11.107 3.00251C11.9264 3.00251 12.6717 3.00251 13.4346 3.00251ZM6.58263 1.8385C8.28148 2.96571 9.96621 4.07955 11.7004 5.23018C9.28455 5.23018 6.93582 5.23018 4.53764 5.23018C5.22637 4.09293 5.90097 2.9724 6.58263 1.8385ZM2.16066 3.15637C2.33372 3.07275 2.53857 3.01589 2.7293 3.00585C3.15666 2.98244 3.58755 2.99916 4.0573 2.99916C3.61581 3.73503 3.19198 4.44079 2.77521 5.14656C2.69044 5.29039 2.56683 5.23353 2.4644 5.21011C1.99112 5.11646 1.6238 4.72511 1.5567 4.25683C1.49312 3.81196 1.72623 3.36041 2.16066 3.15637ZM15.0275 16.4789C14.9498 16.4823 14.8721 16.4923 14.7944 16.4923C10.6973 16.4923 6.59676 16.4923 2.49972 16.4923C1.88163 16.4923 1.58142 16.208 1.58142 15.6293C1.58142 12.6591 1.58142 9.69222 1.58142 6.72199C1.58142 6.65843 1.58142 6.59823 1.58142 6.47781C2.34432 6.8424 3.11428 6.7454 3.87364 6.74874C7.49033 6.75543 11.107 6.75209 14.7237 6.75209C14.8191 6.75209 14.9144 6.75209 15.0239 6.75209C15.0239 7.50134 15.0239 8.23386 15.0239 8.99649C14.6813 8.99649 14.3458 8.99983 14.0067 8.99649C13.597 8.99314 13.1944 9.04331 12.8129 9.19383C11.7075 9.62532 10.994 10.7057 11.0929 11.8229C11.1953 12.9836 12.0818 13.9569 13.2721 14.191C13.5229 14.2412 13.7878 14.2412 14.0456 14.2479C14.3705 14.2579 14.6919 14.2513 15.0275 14.2513C15.0275 15.0005 15.0275 15.7263 15.0275 16.4789ZM17.4115 12.726C17.3373 12.7327 17.2738 12.7427 17.2102 12.7427C16.1224 12.7427 15.0345 12.7461 13.9432 12.7427C13.2898 12.7394 12.8447 12.4283 12.6999 11.8931C12.5304 11.261 12.9789 10.6187 13.6571 10.5251C13.7736 10.5084 13.8937 10.5017 14.0103 10.5017C15.0557 10.4983 16.0976 10.5017 17.1431 10.5017C17.2243 10.5017 17.302 10.5017 17.3868 10.5017C17.3974 10.5652 17.408 10.6054 17.408 10.6455C17.4115 11.3312 17.4115 12.0169 17.4115 12.726Z" fill="#00A1AF"/>
</svg>
