<svg width="370" height="496" viewBox="0 0 370 496" fill="none" xmlns="http://www.w3.org/2000/svg">
<path d="M356.968 155.915L356.972 155.926L356.977 155.936C363.981 172.181 367.312 189.936 367.312 207.915V208.12C367.312 260.975 367.312 332.887 367.335 391.614C367.347 421.016 367.365 447.113 367.391 465.861C367.404 475.235 367.42 482.772 367.438 487.967C367.446 490.295 367.455 492.155 367.464 493.5H2.50253L2.50808 487.929C2.51323 482.717 2.52058 475.152 2.5294 465.745C2.54704 446.931 2.57056 420.746 2.59408 391.262C2.64111 332.299 2.68815 260.142 2.68815 207.363C2.87485 189.55 6.02402 171.987 13.018 155.76C14.5252 152.363 16.0068 149.026 17.6692 145.696L17.6745 145.685C25.2765 130.271 35.3013 115.946 46.8337 103.09C58.5361 90.2537 71.9071 79.0948 86.5736 69.9834L86.5807 69.979L86.5879 69.9745C101.58 60.5199 117.542 54.1876 134.57 48.7525L134.578 48.75L134.586 48.7474C138.732 47.3933 142.99 46.5723 147.406 45.7208L147.434 45.7154C151.808 44.872 156.345 43.9962 160.761 42.5217L160.77 42.5188L160.779 42.5159C169.247 39.6195 176.039 32.4986 180.521 25.4724L180.528 25.4614C182.704 22.0105 184.514 17.8106 185.843 13.8828C187.245 18.2213 189.333 22.3327 191.748 26.0544L191.756 26.0666L191.764 26.0787C195.726 32.0314 201.082 37.2049 207.264 40.8013C213.144 44.2519 219.755 45.6277 225.956 46.7569L225.968 46.7592L225.981 46.7613C232.393 47.8623 238.846 49.7045 245.196 51.7618C253.512 54.5391 261.486 58.0651 269.316 61.9859C284.735 69.8014 299.032 79.6595 311.652 91.3698C324.277 103.085 335.235 116.478 344.34 131.177C347.149 135.866 349.921 140.683 352.314 145.662L352.323 145.679L352.331 145.696C353.992 149.023 355.474 152.362 356.968 155.915Z" stroke="white" stroke-width="5"/>
</svg>
