<svg width="18" height="18" viewBox="0 0 18 18" fill="none" xmlns="http://www.w3.org/2000/svg">
<path fill-rule="evenodd" clip-rule="evenodd" d="M9 1.63636C4.93318 1.63636 1.63636 4.93318 1.63636 9C1.63636 13.0668 4.93318 16.3636 9 16.3636C13.0668 16.3636 16.3636 13.0668 16.3636 9C16.3636 4.93318 13.0668 1.63636 9 1.63636ZM0 9C0 4.02944 4.02944 0 9 0C13.9706 0 18 4.02944 18 9C18 13.9706 13.9706 18 9 18C4.02944 18 0 13.9706 0 9Z" fill="#00A1AF"/>
<path fill-rule="evenodd" clip-rule="evenodd" d="M13.0478 4.95255C13.267 5.17169 13.3435 5.49583 13.2455 5.78983L11.5109 10.9935C11.4295 11.2378 11.2378 11.4295 10.9935 11.5109L5.78983 13.2455C5.49583 13.3435 5.17169 13.267 4.95255 13.0478C4.73342 12.8287 4.6569 12.5045 4.7549 12.2105L6.48944 7.00691C6.57088 6.76259 6.76259 6.57088 7.00691 6.48944L12.2105 4.7549C12.5045 4.6569 12.8287 4.73342 13.0478 4.95255ZM7.91247 7.91247L6.82475 11.1756L10.0879 10.0879L11.1756 6.82475L7.91247 7.91247Z" fill="#00A1AF"/>
</svg>
