<svg width="24" height="24" viewBox="0 0 24 24" fill="none" xmlns="http://www.w3.org/2000/svg">
<circle r="11.5" transform="matrix(-1 0 0 1 12 12)" stroke="#1EC7BF"/>
<path d="M12.8233 12.6726C12.423 13.1723 11.9726 13.6164 11.5722 14.1161C10.8716 14.8933 10.1709 15.6706 9.47032 16.4478C9.17005 16.781 9.17005 17.0585 9.37023 17.3361C9.62045 17.6137 9.97076 17.6137 10.221 17.2806C11.322 16.0592 12.423 14.8378 13.5239 13.6164C13.8743 13.2278 14.1745 12.8947 14.5248 12.5061C14.8251 12.1729 14.8752 11.8398 14.5248 11.4512C13.1736 9.8967 11.7223 8.28668 10.271 6.67665C10.0208 6.39906 9.77058 6.39906 9.52036 6.62113C9.27014 6.89872 9.27014 7.28735 9.52036 7.50942C10.0709 8.17564 10.6714 8.84186 11.2719 9.50808C11.7724 10.0633 12.2728 10.6184 12.7232 11.1181C12.7733 11.1736 12.8233 11.2847 12.9234 11.3402C13.2737 11.8398 13.3238 12.1174 12.8233 12.6726Z" fill="#1EC7BF"/>
</svg>
