<svg width="24" height="24" viewBox="0 0 24 24" fill="none" xmlns="http://www.w3.org/2000/svg">
<circle cx="12" cy="12" r="11.5" stroke="#1EC7BF"/>
<path d="M11.1767 12.6726C11.577 13.1723 12.0274 13.6164 12.4278 14.1161C13.1284 14.8933 13.8291 15.6706 14.5297 16.4478C14.83 16.781 14.83 17.0585 14.6298 17.3361C14.3795 17.6137 14.0292 17.6137 13.779 17.2806C12.678 16.0592 11.577 14.8378 10.4761 13.6164C10.1257 13.2278 9.82547 12.8947 9.47515 12.5061C9.17489 12.1729 9.12484 11.8398 9.47515 11.4512C10.8264 9.8967 12.2777 8.28668 13.729 6.67665C13.9792 6.39906 14.2294 6.39906 14.4796 6.62113C14.7299 6.89872 14.7299 7.28735 14.4796 7.50942C13.9291 8.17564 13.3286 8.84186 12.7281 9.50808C12.2276 10.0633 11.7272 10.6184 11.2768 11.1181C11.2267 11.1736 11.1767 11.2847 11.0766 11.3402C10.7263 11.8398 10.6762 12.1174 11.1767 12.6726Z" fill="#1EC7BF"/>
</svg>
