<svg width="372" height="250" viewBox="0 0 372 250" fill="none" xmlns="http://www.w3.org/2000/svg">
<path d="M336.507 186.577C361.731 158.43 344.853 109.112 333.261 87.9709C328.16 70.3792 342.999 68.5273 344.39 68.5273C345.781 68.5273 352.736 67.6015 354.127 75.9344C355.518 84.2673 347.171 86.1191 342.999 85.1932C343.926 88.4338 345.317 90.7485 347.171 92.1373C356.909 100.47 375.92 91.2114 371.283 69.4532C366.646 47.695 343.926 50.0097 333.261 55.1021C302.193 70.842 314.713 97.6926 316.568 106.488C308.685 100.933 288.283 100.933 279.009 103.248C246.551 113.433 254.897 149.542 262.316 158.801C279.473 181.022 302.194 168.06 304.976 158.801C310.54 138.431 296.166 135.499 288.283 136.58C289.519 137.351 291.992 139.82 291.992 143.524C290.601 156.023 265.098 149.079 277.618 129.173C290.138 109.266 326.769 122.228 326.769 153.708C326.769 185.188 284.11 200.928 259.998 189.355C235.886 177.781 231.249 144.912 232.64 135.191C237.277 106.951 264.171 82.4155 268.808 79.6379C284.11 68.9903 295.238 77.7861 297.093 83.8044C314.157 63.8053 300.184 58.1883 291.065 57.8797C297.711 50.3183 312.302 33.8994 317.495 28.7145C323.987 22.2333 344.853 -3.22843 350.417 -18.9684C368.038 -59.2442 344.853 -92.5759 342.535 -94.8906C344.853 -94.8906 348.563 -97.2053 350.417 -99.0571C359.227 -107.39 357.836 -114.797 352.272 -120.815C343.926 -107.39 331.406 -113.408 324.914 -116.186C318.423 -118.964 302.657 -131 277.618 -131C223.83 -130.537 190.908 -85.1689 192.763 -51.8372C195.73 -13.3205 224.603 10.8141 238.668 18.0668L186.271 72.6938L176.997 87.0449L176.997 184.262C171.897 195.836 162.159 188.429 159.841 182.411C153.349 196.299 161.695 205.095 165.405 207.872C172.453 214.168 179.779 210.496 182.561 207.872L182.561 212.502C177.461 213.891 172.824 220.372 172.824 225.464C172.824 236.575 181.634 247.222 186.271 250C192.299 245.834 198.327 234.723 198.327 225.464C198.327 218.057 192.454 213.736 189.517 212.502L189.517 207.872C193.69 210.65 199.718 212.039 207.137 207.872C214.556 203.706 217.338 192.595 212.238 182.874C205.931 195.466 197.863 189.046 194.617 184.262L194.617 87.0449C218.111 62.6634 266.582 12.2338 272.517 5.56742C265.098 5.10449 243.769 3.25273 235.422 -5.08021C207.137 -32.8566 206.673 -61.5589 226.148 -90.2612C245.623 -118.964 292.92 -112.482 305.439 -103.686C329.088 -85.1688 345.78 -63.8736 333.261 -26.8384C330.942 -71.7436 294.774 -91.65 274.836 -87.0206C231.713 -74.9842 233.104 -45.356 241.914 -30.079C250.724 -14.8019 263.244 -11.5613 269.735 -11.5613C276.227 -11.5613 291.065 -13.876 291.065 -30.079C291.065 -43.0413 280.246 -44.7388 274.836 -43.9672C276.381 -42.7327 279.102 -39.4304 277.618 -36.0972C272.517 -25.4496 258.143 -31.4678 258.143 -40.2636C258.143 -65.7254 279.936 -69.8918 285.501 -67.1142C323.987 -47.6707 312.858 -16.1907 308.685 -1.83959C304.512 12.5116 275.763 38.4362 265.098 50.4727C254.433 62.5091 229.394 87.9709 223.83 100.933C201.109 151.857 217.338 177.781 235.886 196.299C254.433 214.817 285.037 215.742 300.339 210.65C314.713 205.558 332.797 203.706 342.535 203.706C352.272 203.706 352.272 212.502 352.272 214.354C352.272 216.205 349.954 222.224 344.389 222.224C339.938 222.224 336.661 217.903 335.579 215.742C333.57 217.286 329.551 221.483 329.551 225.927C329.551 231.482 335.579 239.815 347.172 239.815C368.501 239.815 372.211 224.538 370.82 212.502C368.038 189.355 356.909 187.503 336.507 186.577Z" fill="url(#paint0_linear)"/>
<path d="M35.4935 186.577C10.2687 158.43 27.147 109.112 38.7393 87.9709C43.8402 70.3792 29.0015 68.5273 27.6104 68.5273C26.2193 68.5273 19.264 67.6014 17.8729 75.9344C16.4818 84.2673 24.8285 86.1191 29.0015 85.1932C28.0741 88.4338 26.683 90.7485 24.8285 92.1373C15.091 100.47 -3.9203 91.2114 0.716605 69.4532C5.35351 47.695 28.0743 50.0097 38.7393 55.1021C69.8066 70.842 57.2868 97.6926 55.4321 106.488C63.3148 100.933 83.7172 100.933 92.991 103.248C125.449 113.433 117.103 149.542 109.684 158.801C92.5273 181.022 69.8064 168.06 67.0243 158.801C61.46 138.431 75.8344 135.499 83.7172 136.58C82.4806 137.351 80.0076 139.82 80.0076 143.524C81.3987 156.023 106.902 149.079 94.382 129.173C81.8624 109.266 45.2309 122.228 45.2309 153.708C45.2309 185.188 87.8904 200.928 112.002 189.355C136.114 177.781 140.751 144.912 139.36 135.191C134.723 106.951 107.829 82.4155 103.192 79.6379C87.8904 68.9903 76.7618 77.7861 74.907 83.8044C57.8432 63.8053 71.8158 58.1883 80.935 57.8797C74.2888 50.3183 59.698 33.8994 54.5047 28.7144C48.013 22.2333 27.1469 -3.22845 21.5827 -18.9684C3.96243 -59.2442 27.1469 -92.576 29.4654 -94.8907C27.1469 -94.8907 23.4374 -97.2054 21.5827 -99.0571C12.7726 -107.39 14.1636 -114.797 19.7279 -120.815C28.0743 -107.39 40.594 -113.408 47.0856 -116.186C53.5773 -118.964 69.3428 -131 94.382 -131C148.17 -130.537 181.092 -85.1689 179.237 -51.8372C176.27 -13.3205 147.397 10.8141 133.332 18.0668L185.729 72.6938L195.003 87.0449L195.003 184.262C200.103 195.836 209.841 188.429 212.159 182.411C218.651 196.299 210.305 205.095 206.595 207.872C199.547 214.168 192.221 210.496 189.439 207.872L189.439 212.502C194.539 213.891 199.176 220.372 199.176 225.464C199.176 236.575 190.366 247.222 185.729 250C179.701 245.834 173.673 234.723 173.673 225.464C173.673 218.057 179.546 213.736 182.483 212.502L182.483 207.872C178.31 210.65 172.282 212.039 164.863 207.872C157.444 203.706 154.662 192.595 159.762 182.874C166.069 195.466 174.137 189.046 177.383 184.262L177.383 87.0449C153.889 62.6634 105.418 12.2338 99.4826 5.56742C106.902 5.10448 128.231 3.25272 136.578 -5.08021C164.863 -32.8566 165.327 -61.5589 145.852 -90.2612C126.377 -118.964 79.0803 -112.482 66.5606 -103.686C42.9124 -85.1689 26.2195 -63.8736 38.7393 -26.8384C41.0579 -71.7436 77.2255 -91.65 97.1642 -87.0206C140.287 -74.9842 138.896 -45.356 130.086 -30.079C121.276 -14.8019 108.756 -11.5613 102.265 -11.5613C95.7731 -11.5613 80.935 -13.8761 80.935 -30.079C80.935 -43.0413 91.7545 -44.7388 97.1642 -43.9672C95.6186 -42.7327 92.8982 -39.4304 94.382 -36.0972C99.4826 -25.4496 113.857 -31.4678 113.857 -40.2636C113.857 -65.7254 92.0636 -69.8918 86.4993 -67.1142C48.013 -47.6707 59.1416 -16.1908 63.3148 -1.8396C67.488 12.5116 96.2368 38.4362 106.902 50.4727C117.567 62.5091 142.606 87.9709 148.17 100.933C170.891 151.857 154.662 177.781 136.114 196.299C117.567 214.817 86.963 215.742 71.6612 210.65C57.2868 205.558 39.2029 203.706 29.4654 203.706C19.7279 203.706 19.7279 212.502 19.7279 214.354C19.7279 216.205 22.0463 222.224 27.6106 222.224C32.0621 222.224 35.3388 217.903 36.4207 215.742C38.4301 217.286 42.4487 221.483 42.4487 225.927C42.4487 231.482 36.4207 239.815 24.8283 239.815C3.49855 239.815 -0.210984 224.538 1.1801 212.502C3.96224 189.355 15.0911 187.503 35.4935 186.577Z" fill="url(#paint1_linear)"/>
<defs>
<linearGradient id="paint0_linear" x1="2.42446e-05" y1="-107.661" x2="287.294" y2="439.472" gradientUnits="userSpaceOnUse">
<stop stop-color="#234872"/>
<stop offset="1" stop-color="#1E4068"/>
</linearGradient>
<linearGradient id="paint1_linear" x1="2.42446e-05" y1="-107.661" x2="287.294" y2="439.472" gradientUnits="userSpaceOnUse">
<stop stop-color="#234872"/>
<stop offset="1" stop-color="#1E4068"/>
</linearGradient>
</defs>
</svg>
