<svg width="726" height="298" viewBox="0 0 726 298" fill="none" xmlns="http://www.w3.org/2000/svg">
<path d="M646.379 197.862C674.638 224.105 699.156 254.097 719.519 287.004C721.683 290.619 723.847 294.285 725.976 298H0C15.1743 271.565 33.443 246.796 53.784 224.105C79.9646 195.363 109.885 170.37 142.715 149.958C176.376 128.714 212.114 114.552 249.931 102.472C269.047 96.2233 288.994 94.9737 307.694 88.7254C324.732 82.8937 338.862 68.3144 348.419 53.3185C353.406 45.4041 357.562 35.4069 360.471 26.2427C361.302 24.5765 364.627 7.08137 365.042 0C365.458 7.49793 369.198 25.4096 369.613 27.4924C372.522 37.0731 377.094 46.2372 382.496 54.5682C390.807 67.0647 402.027 77.8951 414.91 85.393C426.961 92.4743 440.675 95.3902 454.388 97.8895C468.933 100.389 483.478 104.554 497.607 109.136C516.308 115.385 534.177 123.299 551.631 132.047C586.123 149.542 618.121 171.619 646.379 197.862Z" fill="white"/>
</svg>
