<svg width="305" height="402" viewBox="0 0 305 402" fill="none" xmlns="http://www.w3.org/2000/svg">
<path d="M68.5 38.2728C98.9 11.0728 152.167 29.2728 175 41.7728C194 47.2732 196 31.2725 196 29.7725C196 28.2725 197 20.7725 188 19.2725C179 17.7725 177 26.7727 178 31.2725C174.5 30.2725 172 28.7725 170.5 26.7727C161.5 16.2727 171.5 -4.22727 195 0.772729C218.5 5.77273 216 30.2727 210.5 41.7728C193.5 75.2729 164.5 61.7727 155 59.7727C161 68.2727 161 90.2727 158.5 100.273C147.5 135.273 108.5 126.273 98.5 118.273C74.5 99.7727 88.5 75.2727 98.5 72.2727C120.5 66.2727 123.667 81.7727 122.5 90.2727C121.667 88.9394 119 86.2727 115 86.2727C101.5 87.7727 109 115.273 130.5 101.773C152 88.2727 138 48.7727 104 48.7727C70 48.7727 53 94.7727 65.5 120.773C78 146.773 113.5 151.773 124 150.273C154.5 145.273 181 116.273 184 111.273C195.5 94.7727 186 82.7727 179.5 80.7727C201.1 62.3727 207.167 77.4394 207.5 87.2727C215.667 80.1061 233.4 64.3727 239 58.7727C246 51.7727 273.5 29.2727 290.5 23.2727C334 4.27273 370 29.2727 372.5 31.7727C372.5 29.2727 375 25.2727 377 23.2727C386 13.7727 394 15.2727 400.5 21.2727C386 30.2727 392.5 43.7727 395.5 50.7727C398.5 57.7727 411.5 74.7727 411.5 101.773C411 159.773 362 195.273 326 193.273C284.4 190.073 258.333 158.939 250.5 143.773L191.5 200.273L176 210.273H71C58.5 215.773 66.5 226.273 73 228.773C58 235.773 48.5 226.773 45.5 222.773C38.7 215.173 42.6667 207.273 45.5 204.273H40.5C39 209.773 32 214.773 26.5 214.773C14.5 214.773 3 205.273 0 200.273C4.5 193.773 16.5 187.273 26.5 187.273C34.5 187.273 39.1667 193.606 40.5 196.773H45.5C42.5 192.273 41 185.773 45.5 177.773C50 169.773 62 166.773 72.5 172.273C58.9 179.073 65.8333 187.773 71 191.273H176C202.333 165.939 256.8 113.673 264 107.273C264.5 115.273 266.5 138.273 275.5 147.273C305.5 177.773 336.5 178.273 367.5 157.273C398.5 136.273 391.5 85.2727 382 71.7727C362 46.2727 339 28.2727 299 41.7728C347.5 44.2729 369 83.2727 364 104.773C351 151.273 319 149.773 302.5 140.273C286 130.773 282.5 117.273 282.5 110.273C282.5 103.273 285 87.2727 302.5 87.2727C316.5 87.2727 318.333 98.9394 317.5 104.773C316.167 103.106 312.6 100.173 309 101.773C297.5 107.273 304 122.773 313.5 122.773C341 122.773 345.5 99.2727 342.5 93.2727C321.5 51.7727 287.5 63.7727 272 68.2727C256.5 72.7727 228.5 103.773 215.5 115.273C202.5 126.773 175 153.773 161 159.773C106 184.273 78 166.773 58 146.773C38 126.773 37 93.7727 42.5 77.2727C48 61.7727 50 42.2727 50 31.7727C50 21.2727 40.5 21.2727 38.5 21.2727C36.5 21.2727 30 23.7727 30 29.7727C30 34.5727 34.6666 38.1061 37 39.2727C35.3333 41.4394 30.8 45.7727 26 45.7727C20 45.7727 11 39.2727 11 26.7725C11 3.77253 27.5 -0.227474 40.5 1.27253C65.5 4.27253 67.5 16.2728 68.5 38.2728Z" fill="#F5F6F9"/>
<path d="M68.5 362.857C98.9 390.057 152.167 371.857 175 359.357C194 353.857 196 369.857 196 371.357C196 372.857 197 380.357 188 381.857C179 383.357 177 374.357 178 369.857C174.5 370.857 172 372.357 170.5 374.357C161.5 384.857 171.5 405.357 195 400.357C218.5 395.357 216 370.857 210.5 359.357C193.5 325.857 164.5 339.357 155 341.357C161 332.857 161 310.857 158.5 300.857C147.5 265.857 108.5 274.857 98.5 282.857C74.5 301.357 88.5 325.857 98.5 328.857C120.5 334.857 123.667 319.357 122.5 310.857C121.667 312.19 119 314.857 115 314.857C101.5 313.357 109 285.857 130.5 299.357C152 312.857 138 352.357 104 352.357C70 352.357 53 306.357 65.5 280.357C78 254.357 113.5 249.357 124 250.857C154.5 255.857 181 284.857 184 289.857C195.5 306.357 186 318.357 179.5 320.357C201.1 338.757 207.167 323.69 207.5 313.857C215.667 321.024 233.4 336.757 239 342.357C246 349.357 273.5 371.857 290.5 377.857C334 396.857 370 371.857 372.5 369.357C372.5 371.857 375 375.857 377 377.857C386 387.357 394 385.857 400.5 379.857C386 370.857 392.5 357.357 395.5 350.357C398.5 343.357 411.5 326.357 411.5 299.357C411 241.357 362 205.857 326 207.857C284.4 211.057 258.333 242.19 250.5 257.357L191.5 200.857L176 190.857H71C58.5 185.357 66.5 174.857 73 172.357C58 165.357 48.5 174.357 45.5 178.357C38.7 185.957 42.6667 193.857 45.5 196.857H40.5C39 191.357 32 186.357 26.5 186.357C14.5 186.357 3 195.857 0 200.857C4.5 207.357 16.5 213.857 26.5 213.857C34.5 213.857 39.1667 207.524 40.5 204.357H45.5C42.5 208.857 41 215.357 45.5 223.357C50 231.357 62 234.357 72.5 228.857C58.9 222.057 65.8333 213.357 71 209.857H176C202.333 235.19 256.8 287.457 264 293.857C264.5 285.857 266.5 262.857 275.5 253.857C305.5 223.357 336.5 222.857 367.5 243.857C398.5 264.857 391.5 315.857 382 329.357C362 354.857 339 372.857 299 359.357C347.5 356.857 369 317.857 364 296.357C351 249.857 319 251.357 302.5 260.857C286 270.357 282.5 283.857 282.5 290.857C282.5 297.857 285 313.857 302.5 313.857C316.5 313.857 318.333 302.19 317.5 296.357C316.167 298.024 312.6 300.957 309 299.357C297.5 293.857 304 278.357 313.5 278.357C341 278.357 345.5 301.857 342.5 307.857C321.5 349.357 287.5 337.357 272 332.857C256.5 328.357 228.5 297.357 215.5 285.857C202.5 274.357 175 247.357 161 241.357C106 216.857 78 234.357 58 254.357C38 274.357 37 307.357 42.5 323.857C48 339.357 50 358.857 50 369.357C50 379.857 40.5 379.857 38.5 379.857C36.5 379.857 30 377.357 30 371.357C30 366.557 34.6666 363.024 37 361.857C35.3333 359.69 30.8 355.357 26 355.357C20 355.357 11 361.857 11 374.357C11 397.357 27.5 401.357 40.5 399.857C65.5 396.857 67.5 384.857 68.5 362.857Z" fill="#F5F6F9"/>
</svg>
