<svg width="372" height="263" viewBox="0 0 372 263" fill="none" xmlns="http://www.w3.org/2000/svg">
<path d="M157.444 227.766C157.444 240.358 166.409 245.358 170.891 246.284C166.254 236.099 175.528 233.785 180.165 239.803C183.874 243.506 185.42 252.148 185.729 256.006C185.729 253.537 186.935 246.84 191.757 239.803C197.785 231.007 206.595 239.34 201.031 246.284C206.286 245.05 216.425 239.618 214.942 227.766C212.16 211.564 198.713 217.582 196.858 219.434C196.858 208.323 190.366 201.842 185.729 199.064C178.774 202.305 174.137 213.415 175.528 219.434C173.21 215.267 157.444 212.027 157.444 227.766Z" fill="url(#paint0_linear)"/>
<path d="M38.7393 162.029C27.1471 140.888 10.2687 91.5696 35.4935 63.4228C15.0911 62.4969 3.96226 60.6452 1.18012 37.4982C-0.210951 25.4617 3.49857 10.1847 24.8283 10.1847C36.4208 10.1847 42.4487 18.5176 42.4487 24.0729C42.4487 28.5171 38.4301 32.7144 36.4208 34.2576C35.3388 32.0972 32.0621 27.7764 27.6106 27.7764C22.0464 27.7764 19.7279 33.7946 19.7279 35.6464C19.7279 37.4982 19.7279 46.294 29.4654 46.294C39.2029 46.294 57.2868 44.4423 71.6612 39.3499C86.963 34.2576 117.567 35.1834 136.114 53.7011C154.662 72.2187 170.891 98.1433 148.17 149.067C142.606 162.029 117.567 187.491 106.902 199.527C96.2368 211.564 67.488 237.488 63.3148 251.84C59.1416 266.191 48.013 297.671 86.4993 317.114C92.0636 319.892 113.857 315.725 113.857 290.264C113.857 281.468 99.4826 275.45 94.382 286.097C92.8982 289.43 95.6185 292.733 97.1642 293.967C91.7545 294.739 80.935 293.041 80.935 280.079C80.935 263.876 95.7731 261.561 102.265 261.561C108.756 261.561 121.276 264.802 130.086 280.079C138.896 295.356 140.287 324.984 97.1642 337.021C77.2255 341.65 41.0579 321.744 38.7393 276.838C26.2196 313.874 42.9124 335.169 66.5606 353.686C79.0803 362.482 126.377 368.964 145.852 340.261C165.327 311.559 164.863 282.857 136.578 255.08C128.231 246.747 106.902 244.896 99.4826 244.433C105.418 237.766 153.504 187.337 176.997 162.955L176.997 65.7376C171.897 54.164 162.159 61.5711 159.841 67.5893C153.774 56.6505 157.019 47.3917 163.975 42.1276C169.202 38.1713 179.779 39.5042 182.561 42.1276L182.561 37.4982C177.461 36.1094 172.824 29.6282 172.824 24.5359C172.824 13.4253 181.634 2.77765 186.271 2.22126e-06C192.299 4.16648 198.327 15.277 198.327 24.5359C198.327 31.9429 192.454 36.2637 189.517 37.4982L189.517 42.1276C193.69 39.3499 199.718 37.9611 207.137 42.1276C214.556 46.294 217.338 57.4046 212.238 67.1264C205.931 54.5344 197.863 60.9538 194.617 65.7376L194.617 162.955C218.111 187.337 266.582 237.766 272.517 244.433C265.098 244.896 243.769 246.747 235.422 255.08C207.137 282.857 206.673 311.559 226.148 340.261C245.623 368.964 292.92 362.482 305.439 353.686C329.088 335.169 345.78 313.874 333.261 276.838C330.942 321.744 294.775 341.65 274.836 337.021C231.713 324.984 233.104 295.356 241.914 280.079C250.724 264.802 263.244 261.561 269.735 261.561C276.227 261.561 291.065 263.876 291.065 280.079C291.065 293.041 280.246 294.739 274.836 293.967C276.381 292.733 279.102 289.43 277.618 286.097C272.517 275.45 258.143 281.468 258.143 290.264C258.143 315.725 279.936 319.892 285.501 317.114C323.987 297.671 312.858 266.191 308.685 251.84C304.512 237.488 275.763 211.564 265.098 199.527C254.433 187.491 229.394 162.029 223.83 149.067C201.109 98.1433 217.338 72.2187 235.886 53.7011C254.433 35.1834 285.037 34.2576 300.339 39.3499C314.713 44.4423 332.797 46.294 342.535 46.294C352.272 46.294 352.272 37.4982 352.272 35.6464C352.272 33.7946 349.954 27.7764 344.389 27.7764C339.938 27.7764 336.661 32.0972 335.579 34.2576C333.57 32.7145 329.551 28.5171 329.551 24.0729C329.551 18.5176 335.579 10.1847 347.172 10.1847C368.501 10.1847 372.211 25.4617 370.82 37.4982C368.038 60.6452 356.909 62.497 336.507 63.4228C361.731 91.5696 344.853 140.888 333.261 162.029C328.16 179.621 342.999 181.473 344.39 181.473C345.781 181.473 352.736 182.399 354.127 174.066C355.518 165.733 347.172 163.881 342.999 164.807C343.926 161.566 345.317 159.252 347.172 157.863C356.909 149.53 375.92 158.789 371.283 180.547C366.646 202.305 343.926 199.99 333.261 194.898C302.193 179.158 314.713 152.307 316.568 143.512C308.685 149.067 288.283 149.067 279.009 146.752C246.551 136.567 254.897 100.458 262.316 91.1993C279.473 68.9781 302.194 81.9405 304.976 91.1993C310.54 111.569 296.166 114.501 288.283 113.42C289.519 112.649 291.992 110.18 291.992 106.476C290.601 93.9769 265.098 100.921 277.618 120.827C290.138 140.734 326.769 127.772 326.769 96.2916C326.769 64.8117 284.11 49.0717 259.998 60.6452C235.886 72.2187 231.249 105.087 232.64 114.809C237.277 143.049 264.171 167.584 268.808 170.362C284.11 181.01 295.238 172.214 297.093 166.196C314.157 186.195 300.184 191.812 291.065 192.12C297.711 199.682 312.302 216.101 317.495 221.286C323.987 227.767 344.853 253.228 350.417 268.968C368.038 309.244 344.853 342.576 342.535 344.891C344.853 344.891 348.563 347.205 350.417 349.057C359.227 357.39 357.836 364.797 352.272 370.815C343.926 357.39 331.406 363.408 324.914 366.186C318.423 368.964 302.657 381 277.618 381C223.83 380.537 190.908 335.169 192.763 301.837C195.73 263.321 224.603 239.186 238.668 231.933L185.476 177.306L133.332 231.933C147.397 239.186 176.27 263.321 179.237 301.837C181.092 335.169 148.17 380.537 94.382 381C69.3428 381 53.5773 368.964 47.0856 366.186C40.594 363.408 28.0743 357.39 19.7279 370.815C14.1636 364.797 12.7726 357.39 21.5827 349.057C23.4374 347.205 27.147 344.891 29.4654 344.891C27.147 342.576 3.96245 309.244 21.5827 268.968C27.147 253.228 48.013 227.767 54.5047 221.286C59.698 216.101 74.2888 199.682 80.935 192.12C71.8158 191.812 57.8432 186.195 74.9071 166.196C76.7618 172.214 87.8904 181.01 103.192 170.362C107.829 167.584 134.723 143.049 139.36 114.809C140.751 105.087 136.114 72.2187 112.002 60.6452C87.8904 49.0717 45.2309 64.8117 45.2309 96.2916C45.2309 127.772 81.8624 140.734 94.382 120.827C106.902 100.921 81.3987 93.9769 80.0076 106.476C80.0076 110.18 82.4807 112.649 83.7172 113.42C75.8344 114.501 61.46 111.569 67.0243 91.1993C69.8065 81.9405 92.5273 68.9781 109.684 91.1993C117.103 100.458 125.449 136.567 92.991 146.752C83.7172 149.067 63.3148 149.067 55.4321 143.512C57.2868 152.307 69.8067 179.158 38.7393 194.898C28.0743 199.99 5.35352 202.305 0.716616 180.547C-3.92029 158.789 15.091 149.53 24.8285 157.863C26.683 159.252 28.0741 161.566 29.0015 164.807C24.8285 163.881 16.4818 165.733 17.8729 174.066C19.264 182.399 26.2193 181.473 27.6104 181.473C29.0015 181.473 43.8403 179.621 38.7393 162.029Z" fill="url(#paint1_linear)"/>
<defs>
<linearGradient id="paint0_linear" x1="215.088" y1="252.518" x2="173.042" y2="169.495" gradientUnits="userSpaceOnUse">
<stop stop-color="#E8EAF1"/>
<stop offset="1" stop-color="#F5F6F9"/>
</linearGradient>
<linearGradient id="paint1_linear" x1="477" y1="238.5" x2="36.1803" y2="-131.38" gradientUnits="userSpaceOnUse">
<stop stop-color="#E8EAF1"/>
<stop offset="1" stop-color="#F5F6F9"/>
</linearGradient>
</defs>
</svg>
