<svg width="370" height="496" viewBox="0 0 370 496" fill="none" xmlns="http://www.w3.org/2000/svg">
<path d="M369.812 207.915C369.812 189.631 366.424 171.535 359.273 154.947C357.767 151.365 356.261 147.972 354.568 144.579C352.121 139.49 349.298 134.589 346.475 129.876C337.253 114.985 326.15 101.413 313.352 89.5373C300.554 77.6618 286.063 67.6714 270.443 59.7544C262.538 55.7959 254.446 52.2144 245.977 49.3869C239.578 47.3134 232.991 45.4284 226.404 44.2974C220.193 43.1664 213.983 41.8469 208.525 38.6424C202.691 35.2494 197.609 30.3484 193.845 24.6934C191.399 20.9235 189.329 16.7765 188.011 12.441C187.823 11.4985 186.129 3.39299 185.941 0C185.753 3.20449 184.247 11.1215 183.871 11.8755C182.553 16.0225 180.671 20.5465 178.413 24.1279C174.084 30.9139 167.686 37.5114 159.97 40.1504C151.501 42.9779 142.467 43.5434 133.81 46.3709C116.684 51.8374 100.498 58.2464 85.2543 67.8598C70.3866 77.0963 56.8362 88.4063 44.9796 101.413C33.3112 114.419 23.1486 128.934 15.4324 144.579C13.7386 147.972 12.233 151.365 10.7274 154.758C3.57581 171.346 0.376353 189.254 0.188153 207.35C0.188153 312.909 0 496 0 496H370C369.812 496 369.812 313.663 369.812 207.915Z" fill="#602525"/>
</svg>
