<svg width="19" height="18" viewBox="0 0 19 18" fill="none" xmlns="http://www.w3.org/2000/svg">
<path fill-rule="evenodd" clip-rule="evenodd" d="M9.64641 1.38641C10.5779 0.486749 11.8255 -0.0110662 13.1205 0.000186704C14.4154 0.0114396 15.6542 0.530861 16.5699 1.44658C17.4856 2.36229 18.005 3.60104 18.0163 4.89601C18.0275 6.19098 17.5297 7.43856 16.6301 8.37005L16.62 8.38025L14.1507 10.8496C13.65 11.3505 13.0474 11.7378 12.3839 11.9853C11.7203 12.2329 11.0113 12.3348 10.3049 12.2842C9.59847 12.2336 8.9112 12.0317 8.2897 11.6921C7.66819 11.3526 7.12698 10.8833 6.70277 10.3162C6.43047 9.95216 6.50483 9.43631 6.86887 9.164C7.23291 8.8917 7.74877 8.96606 8.02108 9.3301C8.30388 9.70818 8.66469 10.021 9.07903 10.2474C9.49336 10.4738 9.95154 10.6084 10.4225 10.6421C10.8934 10.6758 11.3661 10.6079 11.8085 10.4429C12.2508 10.2778 12.6525 10.0196 12.9863 9.68571L15.4506 7.22148C16.0474 6.60101 16.3775 5.77137 16.37 4.91031C16.3625 4.047 16.0162 3.22117 15.4058 2.61069C14.7953 2.00021 13.9695 1.65393 13.1062 1.64643C12.2447 1.63895 11.4147 1.96936 10.7942 2.56667L9.3828 3.96984C9.0604 4.29037 8.53921 4.28885 8.21869 3.96645C7.89817 3.64405 7.89969 3.12286 8.22208 2.80234L9.63791 1.39475L9.64641 1.38641Z" fill="#00A1AF"/>
<path fill-rule="evenodd" clip-rule="evenodd" d="M5.6326 6.01466C6.29615 5.76713 7.00518 5.66521 7.71159 5.7158C8.41799 5.76639 9.10526 5.96831 9.72677 6.30787C10.3483 6.64743 10.8895 7.11668 11.3137 7.68379C11.586 8.04783 11.5116 8.56369 11.1476 8.836C10.7835 9.1083 10.2677 9.03394 9.99539 8.6699C9.71258 8.29182 9.35177 7.97899 8.93744 7.75261C8.5231 7.52624 8.06492 7.39163 7.59398 7.3579C7.12304 7.32417 6.65036 7.39212 6.20799 7.55714C5.76562 7.72215 5.36392 7.98038 5.03012 8.31429L2.56589 10.7785C1.96908 11.399 1.63895 12.2286 1.64643 13.0897C1.65393 13.953 2.00021 14.7788 2.61069 15.3893C3.22117 15.9998 4.047 16.3461 4.91031 16.3536C5.77137 16.3611 6.601 16.0309 7.22147 15.4341L8.62373 14.0318C8.94519 13.7104 9.46638 13.7104 9.78785 14.0318C10.1093 14.3533 10.1093 14.8745 9.78785 15.196L8.38025 16.6036L8.37005 16.6136C7.43856 17.5133 6.19098 18.0111 4.89601 17.9998C3.60104 17.9886 2.36229 17.4691 1.44658 16.5534C0.530861 15.6377 0.0114396 14.399 0.000186704 13.104C-0.0110662 11.809 0.486749 10.5614 1.38641 9.62995L1.39644 9.61975L3.8658 7.15039C3.86576 7.15043 3.86583 7.15036 3.8658 7.15039C4.36647 6.64957 4.9691 6.26216 5.6326 6.01466Z" fill="#00A1AF"/>
</svg>
