<svg width="130" height="170" viewBox="0 0 130 170" fill="none" xmlns="http://www.w3.org/2000/svg">
<mask id="mask0" mask-type="alpha" maskUnits="userSpaceOnUse" x="0" y="0" width="130" height="170">
<path d="M0 0H125C127.761 0 130 2.23858 130 5V165C130 167.761 127.761 170 125 170H0V0Z" fill="#1E4068"/>
</mask>
<g mask="url(#mask0)">
<path d="M33.7716 -115.299C19.6679 -115.299 12.714 -125.1 11 -130L130 -130C127.796 -124.12 113.84 -116.769 107.228 -116.034C115.456 -109.566 116.043 -98.6382 115.309 -93.9829C111.783 -69.2855 88.8642 -67.5214 76.3765 -82.2222C91.8025 -89.5726 91.0679 -106.479 76.3765 -113.094C63.8889 -119.709 53.6049 -106.479 52.1358 -94.7179C50.6667 -82.9573 62.4198 -63.8462 69.0309 -52.8205C75.642 -41.7949 103.556 -8.71795 107.228 0.10257C110.901 8.92308 116.043 22.8889 117.512 39.0598C118.981 55.2308 109.432 70.6667 102.086 75.0769C111.489 72.1367 122.165 80.7122 126.327 85.3675H11C13.2037 80.9573 22.0185 71.4017 30.8333 72.8718C19.8148 57.4359 27.1605 36.1197 41.8519 28.7692C56.5432 21.4188 70.5 33.9145 69.0309 47.1453C65.358 43.4701 52.1358 47.1453 52.1358 59.641C52.1358 72.1367 60.9506 78.0171 67.5617 78.0171C79.3148 78.0171 92.537 72.1367 92.537 51.5556C92.537 30.9744 85.9259 17.0085 67.5617 -11.6581C49.1975 -40.3248 22.0185 -65.3162 22.0185 -90.3077C22.0185 -98.3932 27.1605 -113.829 33.7716 -115.299Z" fill="#224772"/>
<path d="M33.7716 285.299C19.6679 285.299 12.714 295.1 11 300H130C127.796 294.12 113.84 286.769 107.228 286.034C115.456 279.566 116.043 268.638 115.309 263.983C111.783 239.285 88.8642 237.521 76.3765 252.222C91.8025 259.573 91.0679 276.479 76.3765 283.094C63.8889 289.709 53.6049 276.479 52.1358 264.718C50.6667 252.957 62.4198 233.846 69.0309 222.821C75.642 211.795 103.556 178.718 107.228 169.897C110.901 161.077 116.043 147.111 117.512 130.94C118.981 114.769 109.432 99.3333 102.086 94.9231C111.489 97.8633 122.165 89.2878 126.327 84.6325H11C13.2037 89.0427 22.0185 98.5983 30.8333 97.1282C19.8148 112.564 27.1605 133.88 41.8519 141.231C56.5432 148.581 70.5 136.085 69.0309 122.855C65.358 126.53 52.1358 122.855 52.1358 110.359C52.1358 97.8633 60.9506 91.9829 67.5617 91.9829C79.3148 91.9829 92.537 97.8633 92.537 118.444C92.537 139.026 85.9259 152.991 67.5617 181.658C49.1975 210.325 22.0185 235.316 22.0185 260.308C22.0185 268.393 27.1605 283.829 33.7716 285.299Z" fill="#224772"/>
</g>
</svg>
