<svg width="46" height="58" viewBox="0 0 46 58" fill="none" xmlns="http://www.w3.org/2000/svg">
<path d="M45.9566 21.5507C45.9133 20.8583 45.8268 20.1767 45.7402 19.5384C44.9396 13.7719 42.2998 9.00068 37.8748 5.34385C32.0866 0.551028 25.3464 -1.02855 17.8488 0.648399C7.22452 3.02858 -0.283878 12.7008 0.00823531 23.6496C0.138064 28.3559 1.42553 32.9432 3.94636 37.6927C7.62482 44.6061 12.8396 50.7513 20.3804 57.0371C21.1486 57.6754 22.0682 58 22.9878 58C23.9615 58 24.9461 57.6322 25.7575 56.9181C26.1362 56.5827 26.5148 56.2365 26.9043 55.9011C28.5596 54.4405 30.269 52.9259 31.8594 51.3247C36.5332 46.6076 40.0278 41.858 42.5378 36.7947C44.7881 32.2616 45.9133 27.934 45.9782 23.5631V23.5414C45.9782 23.3467 45.9782 23.1628 45.9782 22.968C45.9782 22.5136 45.989 22.0376 45.9566 21.5507Z" fill="#FBB142"/>
<g clip-path="url(#clip0)">
<path d="M23.3584 18.2471C23.3477 18.2471 23.337 18.2471 23.3263 18.2471C20.6368 18.2471 18.3438 20.4651 18.333 23.1117C18.3223 24.5261 18.8474 25.8334 19.801 26.7977C20.7225 27.73 21.9762 28.255 23.3156 28.255C23.3263 28.255 23.3263 28.255 23.337 28.255C24.6657 28.255 25.9408 27.7192 26.9051 26.7549C27.8588 25.8012 28.3838 24.569 28.3838 23.2725C28.3731 20.5294 26.1229 18.2685 23.3584 18.2471Z" fill="white"/>
<path d="M40.4705 20.3154C39.0025 11.904 31.6841 6 23.2513 6C22.4155 6 21.5798 6.05358 20.7333 6.17144C16.4043 6.77149 12.7612 8.83951 9.91099 12.3112C7.27507 15.515 5.96782 19.2867 5.99997 23.5192C6.03211 27.441 7.18935 31.3734 9.63239 35.8952C11.2397 38.8633 13.3077 41.7456 16.1472 44.9709C18.3545 47.4782 20.7761 49.8355 23.3477 51.9893C26.8409 49.0212 29.809 45.9888 32.402 42.7207C35.4773 38.8633 37.556 35.4451 38.9597 31.9413C40.6098 27.7838 41.1134 23.98 40.4705 20.3154ZM30.8376 30.6126C28.8875 32.5842 26.2623 33.6986 23.4442 33.7307C23.3906 33.7307 23.3477 33.7307 23.2942 33.7307C17.5401 33.7307 12.9755 29.1554 12.8684 23.2406C12.8255 20.5511 13.8542 17.9688 15.7829 15.9865C17.7545 13.9506 20.3797 12.8148 23.1656 12.772C26.0265 12.7291 28.6839 13.7899 30.6876 15.7615C32.702 17.7438 33.8164 20.444 33.8164 23.3478C33.8271 26.0801 32.7663 28.6518 30.8376 30.6126Z" fill="white"/>
</g>
<defs>
<clipPath id="clip0">
<rect width="34.7384" height="46" fill="white" transform="translate(6 6)"/>
</clipPath>
</defs>
</svg>
