<svg width="363" height="921" viewBox="0 0 363 921" fill="none" xmlns="http://www.w3.org/2000/svg">
<path d="M209.42 697.486C209.42 685.183 200.675 680.298 196.303 679.393C200.826 689.344 191.78 691.606 187.257 685.726C183.638 682.107 182.131 673.664 181.829 669.895C181.829 672.307 180.653 678.851 175.949 685.726C170.069 694.32 161.475 686.178 166.903 679.393C161.777 680.599 151.886 685.907 153.334 697.486C156.047 713.317 169.164 707.437 170.974 705.627C170.974 716.483 177.306 722.815 181.829 725.529C188.614 722.363 193.137 711.507 191.78 705.627C194.041 709.698 209.42 712.864 209.42 697.486Z" fill="#F5F6F9" fill-opacity="0.8"/>
<path d="M328.378 858.056C352.983 830.556 336.519 782.37 325.211 761.714C320.236 744.526 334.71 742.717 336.067 742.717C337.424 742.717 344.209 741.812 345.566 749.954C346.923 758.096 338.781 759.905 334.71 759C335.615 762.166 336.972 764.428 338.781 765.785C348.279 773.926 366.824 764.88 362.301 743.622C357.778 722.363 335.615 724.625 325.211 729.6C294.907 744.979 307.119 771.213 308.928 779.807C301.239 774.379 281.337 774.379 272.291 776.64C240.63 786.591 248.771 821.871 256.008 830.918C272.744 852.628 294.907 839.964 297.621 830.918C303.048 811.016 289.027 808.151 281.337 809.207C282.544 809.961 284.956 812.373 284.956 815.991C283.599 828.204 258.722 821.419 270.934 801.97C283.147 782.52 318.879 795.185 318.879 825.942C318.879 856.699 277.267 872.078 253.747 860.77C230.226 849.462 225.703 817.348 227.06 807.85C231.583 780.259 257.817 756.286 262.34 753.573C277.267 743.169 288.122 751.763 289.931 757.643C306.576 738.104 292.947 732.615 284.051 732.314C290.534 724.926 304.767 708.884 309.833 703.818C316.165 697.486 336.519 672.609 341.947 657.231C359.135 617.88 336.519 585.313 334.258 583.052C336.519 583.052 340.138 580.79 341.947 578.981C350.541 570.839 349.184 563.602 343.756 557.722C335.615 570.839 323.402 564.959 317.07 562.245C310.738 559.532 295.359 547.771 270.934 547.771C218.466 548.224 186.352 592.55 188.162 625.116C191.056 662.749 219.22 686.329 232.94 693.415L181.829 746.788L172.783 760.809L172.783 855.795C167.808 867.102 158.309 859.865 156.048 853.985C149.715 867.555 157.857 876.149 161.475 878.862C168.35 885.014 175.497 881.425 178.211 878.862L178.211 883.385C173.235 884.742 168.712 891.075 168.712 896.05C168.712 906.906 177.306 917.309 181.829 920.023C187.709 915.952 193.589 905.096 193.589 896.05C193.589 888.813 187.86 884.592 184.995 883.385L184.995 878.862C189.066 881.576 194.946 882.933 202.183 878.862C209.42 874.792 212.134 863.936 207.159 854.438C201.007 866.741 193.137 860.468 189.971 855.795L189.971 760.809C212.888 736.988 260.169 687.716 265.959 681.203C258.722 680.751 237.916 678.941 229.774 670.8C202.183 643.661 201.731 615.618 220.728 587.575C239.725 559.532 285.861 565.864 298.073 574.458C321.141 592.55 337.424 613.356 325.211 649.541C322.95 605.667 287.67 586.218 268.22 590.741C226.156 602.501 227.513 631.449 236.106 646.375C244.7 661.301 256.913 664.467 263.245 664.467C269.577 664.467 284.051 662.206 284.051 646.375C284.051 633.71 273.497 632.052 268.22 632.806C269.728 634.012 272.382 637.238 270.934 640.495C265.959 650.898 251.937 645.018 251.937 636.424C251.937 611.547 273.196 607.476 278.624 610.19C316.165 629.187 305.31 659.944 301.239 673.966C297.168 687.988 269.125 713.317 258.722 725.077C248.319 736.837 223.894 761.714 218.466 774.379C196.303 824.133 212.134 849.462 230.226 867.555C248.319 885.647 278.171 886.552 293.098 881.576C307.119 876.601 324.759 874.792 334.258 874.792C343.756 874.792 343.756 883.386 343.756 885.195C343.756 887.004 341.495 892.884 336.067 892.884C331.725 892.884 328.528 888.662 327.473 886.552C325.513 888.059 321.593 892.16 321.593 896.503C321.593 901.93 327.473 910.072 338.781 910.072C359.587 910.072 363.206 895.146 361.849 883.386C359.135 860.77 348.279 858.961 328.378 858.056Z" fill="#F5F6F9" fill-opacity="0.8"/>
<path d="M34.7522 858.056C10.1466 830.556 26.6107 782.37 37.9184 761.714C42.8942 744.526 28.4196 742.717 27.0626 742.717C25.7057 742.717 18.9211 741.812 17.5641 749.954C16.2072 758.096 24.349 759.905 28.4196 759C27.5149 762.166 26.158 764.428 24.349 765.785C14.8505 773.926 -3.69419 764.88 0.82891 743.622C5.35201 722.363 27.5152 724.625 37.9184 729.6C68.2233 744.979 56.0107 771.213 54.2015 779.807C61.8908 774.379 81.7924 774.379 90.8386 776.64C122.5 786.591 114.359 821.871 107.122 830.918C90.3863 852.628 68.2231 839.964 65.5092 830.918C60.0815 811.016 74.1031 808.151 81.7924 809.207C80.5862 809.96 78.1739 812.373 78.1739 815.991C79.5308 828.204 104.408 821.419 92.1955 801.97C79.9832 782.52 44.2507 795.185 44.2507 825.942C44.2507 856.699 85.8632 872.078 109.383 860.77C132.903 849.462 137.427 817.348 136.07 807.85C131.546 780.259 105.313 756.286 100.789 753.573C85.8632 743.169 75.0077 751.763 73.1985 757.643C56.5535 738.104 70.1831 732.615 79.0785 732.314C72.5954 724.926 58.3628 708.884 53.2969 703.818C46.9645 697.486 26.6106 672.609 21.1829 657.23C3.99508 617.88 26.6106 585.313 28.8721 583.052C26.6106 583.052 22.9921 580.79 21.1829 578.981C12.589 570.839 13.9459 563.602 19.3736 557.722C27.5152 570.839 39.7276 564.959 46.0599 562.245C52.3923 559.532 67.7708 547.771 92.1955 547.771C144.664 548.224 176.778 592.55 174.968 625.116C172.073 662.749 143.91 686.329 130.19 693.415L181.301 746.788L190.347 760.809L190.347 855.795C195.322 867.102 204.821 859.865 207.082 853.985C213.415 867.555 205.273 876.149 201.655 878.862C194.779 885.014 187.633 881.425 184.919 878.862L184.919 883.385C189.894 884.742 194.418 891.075 194.418 896.05C194.418 906.906 185.824 917.309 181.301 920.023C175.421 915.952 169.541 905.096 169.541 896.05C169.541 888.813 175.27 884.592 178.134 883.385L178.134 878.862C174.064 881.576 168.184 882.933 160.947 878.862C153.71 874.792 150.996 863.936 155.971 854.438C162.123 866.741 169.993 860.468 173.159 855.795L173.159 760.809C150.242 736.988 102.961 687.716 97.171 681.203C104.408 680.751 125.214 678.941 133.356 670.8C160.947 643.661 161.399 615.618 142.402 587.575C123.405 559.532 77.2693 565.864 65.0569 574.458C41.9891 592.55 25.706 613.356 37.9184 649.541C40.1801 605.667 75.4601 586.218 94.9094 590.741C136.974 602.501 135.617 631.449 127.023 646.375C118.43 661.301 106.217 664.467 99.8848 664.467C93.5525 664.467 79.0785 662.206 79.0785 646.375C79.0785 633.71 89.6324 632.052 94.9094 632.806C93.4017 634.012 90.7481 637.238 92.1955 640.495C97.171 650.898 111.193 645.018 111.193 636.424C111.193 611.547 89.934 607.476 84.5063 610.19C46.9645 629.187 57.82 659.944 61.8908 673.966C65.9615 687.988 94.0048 713.317 104.408 725.077C114.811 736.837 139.236 761.714 144.663 774.379C166.827 824.133 150.996 849.462 132.903 867.555C114.811 885.647 84.9586 886.552 70.0323 881.576C56.0107 876.601 38.3706 874.792 28.8721 874.792C19.3736 874.792 19.3736 883.386 19.3736 885.195C19.3736 887.004 21.6352 892.884 27.0629 892.884C31.4051 892.884 34.6014 888.662 35.6568 886.552C37.6168 888.059 41.5368 892.16 41.5368 896.503C41.5368 901.93 35.6568 910.072 24.3488 910.072C3.54259 910.072 -0.0759124 895.146 1.28102 883.386C3.99489 860.77 14.8506 858.961 34.7522 858.056Z" fill="#F5F6F9" fill-opacity="0.8"/>
<path d="M209.42 223.013C209.42 235.316 200.676 240.201 196.303 241.106C200.827 231.155 191.78 228.893 187.257 234.773C183.639 238.392 182.131 246.835 181.829 250.604C181.829 248.192 180.653 241.649 175.949 234.773C170.069 226.18 161.476 234.321 166.903 241.106C161.777 239.9 151.887 234.592 153.334 223.013C156.048 207.182 169.165 213.063 170.974 214.872C170.974 204.016 177.306 197.684 181.83 194.97C188.614 198.136 193.137 208.992 191.78 214.872C194.042 210.801 209.42 207.635 209.42 223.013Z" fill="#F5F6F9" fill-opacity="0.8"/>
<path d="M328.378 62.4427C352.983 89.9432 336.519 138.129 325.211 158.785C320.236 175.972 334.71 177.782 336.067 177.782C337.424 177.782 344.209 178.686 345.566 170.545C346.923 162.403 338.781 160.594 334.71 161.499C335.615 158.332 336.972 156.071 338.781 154.714C348.279 146.572 366.824 155.619 362.301 176.877C357.778 198.136 335.615 195.874 325.211 190.899C294.907 175.52 307.119 149.286 308.928 140.692C301.239 146.12 281.337 146.12 272.291 143.859C240.63 133.908 248.771 98.6276 256.008 89.5814C272.744 67.8705 294.907 80.5352 297.621 89.5814C303.048 109.483 289.027 112.348 281.337 111.292C282.544 110.538 284.956 108.126 284.956 104.508C283.599 92.2952 258.722 99.0799 270.934 118.529C283.147 137.979 318.879 125.314 318.879 94.5568C318.879 63.7997 277.267 48.4211 253.747 59.7289C230.226 71.0366 225.703 103.151 227.06 112.649C231.583 140.24 257.817 164.213 262.34 166.926C277.267 177.329 288.122 168.736 289.931 162.856C306.576 182.395 292.947 187.883 284.051 188.185C290.534 195.573 304.767 211.615 309.833 216.68C316.165 223.013 336.519 247.89 341.947 263.268C359.135 302.619 336.519 335.186 334.258 337.447C336.519 337.447 340.138 339.709 341.947 341.518C350.541 349.66 349.184 356.897 343.756 362.777C335.615 349.66 323.402 355.54 317.07 358.253C310.738 360.967 295.359 372.727 270.934 372.727C218.466 372.275 186.352 327.949 188.162 295.382C191.056 257.75 219.22 234.17 232.94 227.084L181.829 173.711L172.783 159.689L172.783 64.7043C167.808 53.3965 158.309 60.6335 156.048 66.5135C149.715 52.9442 157.857 44.3504 161.475 41.6365C168.35 35.4851 175.497 39.0734 178.211 41.6365L178.211 37.1134C173.235 35.7565 168.712 29.4241 168.712 24.4487C168.712 13.5933 177.306 3.19015 181.829 0.47628C187.709 4.54708 193.589 15.4025 193.589 24.4487C193.589 31.6857 187.86 35.9072 184.995 37.1134L184.995 41.6365C189.066 38.9226 194.946 37.5657 202.183 41.6365C209.42 45.7073 212.134 56.5627 207.159 66.0612C201.007 53.7584 193.137 60.0304 189.971 64.7043L189.971 159.689C212.888 183.511 260.169 232.783 265.959 239.296C258.722 239.748 237.916 241.558 229.774 249.699C202.183 276.838 201.731 304.881 220.728 332.924C239.725 360.967 285.861 354.635 298.073 346.041C321.141 327.949 337.424 307.142 325.211 270.958C322.95 314.832 287.67 334.281 268.22 329.758C226.156 317.998 227.513 289.05 236.106 274.124C244.7 259.198 256.913 256.031 263.245 256.031C269.577 256.031 284.051 258.293 284.051 274.124C284.051 286.788 273.497 288.447 268.221 287.693C269.728 286.487 272.382 283.26 270.934 280.004C265.959 269.601 251.937 275.481 251.937 284.075C251.937 308.952 273.196 313.022 278.624 310.309C316.165 291.312 305.31 260.555 301.239 246.533C297.168 232.511 269.125 207.182 258.722 195.422C248.319 183.662 223.894 158.785 218.466 146.12C196.303 96.366 212.134 71.0366 230.226 52.9442C248.319 34.8518 278.171 33.9472 293.098 38.9226C307.119 43.898 324.759 45.7073 334.258 45.7073C343.756 45.7073 343.756 37.1134 343.756 35.3041C343.756 33.4949 341.495 27.6149 336.067 27.6149C331.725 27.6149 328.529 31.8364 327.473 33.9472C325.513 32.4395 321.593 28.3386 321.593 23.9964C321.593 18.5687 327.473 10.4271 338.781 10.4271C359.587 10.4271 363.206 25.3533 361.849 37.1134C359.135 59.7289 348.279 61.5381 328.378 62.4427Z" fill="#F5F6F9" fill-opacity="0.8"/>
<path d="M34.7523 62.4427C10.1466 89.9432 26.6107 138.129 37.9184 158.785C42.8942 175.972 28.4196 177.782 27.0627 177.782C25.7057 177.782 18.9211 178.686 17.5642 170.545C16.2072 162.403 24.349 160.594 28.4196 161.499C27.515 158.332 26.1581 156.071 24.349 154.714C14.8505 146.572 -3.69417 155.619 0.828927 176.877C5.35203 198.136 27.5152 195.874 37.9184 190.899C68.2233 175.52 56.0108 149.286 54.2015 140.692C61.8908 146.12 81.7924 146.12 90.8386 143.859C122.5 133.908 114.359 98.6276 107.122 89.5813C90.3863 67.8705 68.2231 80.5351 65.5093 89.5813C60.0816 109.483 74.1032 112.348 81.7924 111.292C80.5863 110.538 78.1739 108.126 78.1739 104.508C79.5309 92.2952 104.408 99.0799 92.1955 118.529C79.9832 137.979 44.2507 125.314 44.2507 94.5567C44.2507 63.7997 85.8632 48.4211 109.383 59.7289C132.903 71.0366 137.427 103.151 136.07 112.649C131.547 140.24 105.313 164.212 100.789 166.926C85.8632 177.329 75.0078 168.736 73.1985 162.856C56.5535 182.395 70.1831 187.883 79.0786 188.185C72.5954 195.573 58.3628 211.615 53.2969 216.68C46.9645 223.013 26.6106 247.89 21.1829 263.268C3.99509 302.619 26.6106 335.186 28.8721 337.447C26.6106 337.447 22.9921 339.709 21.1829 341.518C12.589 349.66 13.9459 356.897 19.3736 362.777C27.5152 349.66 39.7276 355.54 46.0599 358.253C52.3923 360.967 67.7708 372.727 92.1955 372.727C144.664 372.275 176.778 327.949 174.968 295.382C172.073 257.75 143.91 234.17 130.19 227.084L181.301 173.711L190.347 159.689L190.347 64.7043C195.322 53.3965 204.821 60.6335 207.082 66.5135C213.415 52.9442 205.273 44.3504 201.655 41.6365C194.779 35.4851 187.633 39.0734 184.919 41.6365L184.919 37.1134C189.895 35.7565 194.418 29.4241 194.418 24.4487C194.418 13.5933 185.824 3.19015 181.301 0.47628C175.421 4.54708 169.541 15.4025 169.541 24.4487C169.541 31.6857 175.27 35.9072 178.134 37.1134L178.134 41.6365C174.064 38.9226 168.184 37.5657 160.947 41.6365C153.71 45.7073 150.996 56.5627 155.971 66.0612C162.123 53.7584 169.993 60.0304 173.159 64.7043L173.159 159.689C150.242 183.511 102.961 232.783 97.171 239.296C104.408 239.748 125.214 241.558 133.356 249.699C160.947 276.838 161.399 304.881 142.402 332.924C123.405 360.967 77.2693 354.635 65.0569 346.041C41.9891 327.949 25.706 307.142 37.9184 270.958C40.1801 314.832 75.4601 334.281 94.9094 329.758C136.974 317.998 135.617 289.05 127.023 274.124C118.43 259.198 106.217 256.031 99.8848 256.031C93.5525 256.031 79.0786 258.293 79.0786 274.124C79.0786 286.788 89.6324 288.447 94.9094 287.693C93.4017 286.487 90.7481 283.26 92.1955 280.004C97.171 269.601 111.193 275.481 111.193 284.075C111.193 308.952 89.934 313.022 84.5063 310.309C46.9645 291.312 57.82 260.554 61.8908 246.533C65.9616 232.511 94.0048 207.182 104.408 195.422C114.811 183.662 139.236 158.785 144.664 146.12C166.827 96.366 150.996 71.0366 132.903 52.9442C114.811 34.8518 84.9586 33.9472 70.0324 38.9226C56.0108 43.898 38.3707 45.7073 28.8721 45.7073C19.3736 45.7073 19.3736 37.1134 19.3736 35.3041C19.3736 33.4949 21.6352 27.6149 27.0629 27.6149C31.4051 27.6149 34.6014 31.8364 35.6568 33.9472C37.6168 32.4395 41.5368 28.3385 41.5368 23.9964C41.5369 18.5687 35.6568 10.4271 24.3489 10.4271C3.54262 10.4271 -0.075882 25.3533 1.28105 37.1134C3.99492 59.7289 14.8506 61.5381 34.7523 62.4427Z" fill="#F5F6F9" fill-opacity="0.8"/>
<path fill-rule="evenodd" clip-rule="evenodd" d="M288.435 480.408C294.833 484.515 300.153 487.93 301.692 488.971C317.07 499.374 326.116 498.017 331.544 493.042C336.972 488.067 335.163 477.663 327.474 478.568C322.951 479.02 319.784 482.186 318.879 487.162C315.261 480.377 314.809 469.069 326.569 466.356C338.329 463.642 349.637 474.95 349.637 487.162C349.637 499.374 343.304 510.786 321.593 512.039C308.377 512.801 290.195 501.22 276.155 492.277C274.339 491.12 272.592 490.007 270.935 488.971C259.355 481.734 248.319 474.497 244.248 471.783L197.208 502.088L227.061 522.442L181.83 550.033L137.051 522.442L165.999 502.088L228.87 460.928L258.723 460.928C259.023 461.528 275.824 472.313 288.435 480.408ZM181.83 533.298L199.017 521.99L181.83 510.682L163.285 521.99L181.83 533.298Z" fill="#F5F6F9" fill-opacity="0.8"/>
<path fill-rule="evenodd" clip-rule="evenodd" d="M75.2243 480.408C68.826 484.515 63.5063 487.93 61.967 488.971C46.5888 499.374 37.5426 498.017 32.1149 493.042C26.6872 488.066 28.4961 477.663 36.1854 478.568C40.7085 479.02 43.875 482.186 44.7796 487.162C48.3981 480.377 48.8504 469.069 37.0903 466.356C25.3303 463.642 14.0225 474.95 14.0225 487.162C14.0225 499.374 20.3548 510.786 42.0657 512.039C55.2823 512.801 73.4637 501.22 87.5036 492.277C89.3197 491.12 91.0666 490.007 92.7244 488.971C104.304 481.734 115.34 474.497 119.411 471.783L166.451 502.088L136.599 522.442L181.83 550.033L226.608 522.442L197.66 502.088L134.789 460.928L104.936 460.928C104.636 461.528 87.8354 472.313 75.2243 480.408ZM181.83 533.298L164.642 521.99L181.83 510.682L200.374 521.99L181.83 533.298Z" fill="#F5F6F9" fill-opacity="0.8"/>
<path fill-rule="evenodd" clip-rule="evenodd" d="M288.435 441.9C294.833 437.793 300.153 434.378 301.692 433.337C317.07 422.934 326.116 424.291 331.544 429.266C336.972 434.242 335.163 444.645 327.474 443.74C322.951 443.288 319.784 440.122 318.879 435.146C315.261 441.931 314.809 453.239 326.569 455.952C338.329 458.666 349.637 447.359 349.637 435.146C349.637 422.934 343.304 411.522 321.593 410.269C308.377 409.507 290.195 421.088 276.155 430.031C274.339 431.188 272.592 432.301 270.935 433.337C259.355 440.574 248.319 447.811 244.248 450.525L197.208 420.22L227.061 399.866L181.83 372.275L137.051 399.866L165.999 420.22L228.87 461.38L258.723 461.38C259.023 460.78 275.824 449.995 288.435 441.9ZM181.83 389.011L199.017 400.318L181.83 411.626L163.285 400.318L181.83 389.011Z" fill="#F5F6F9" fill-opacity="0.8"/>
<path fill-rule="evenodd" clip-rule="evenodd" d="M75.2243 441.9C68.826 437.793 63.5063 434.378 61.967 433.337C46.5888 422.934 37.5426 424.291 32.1149 429.266C26.6872 434.242 28.4961 444.645 36.1854 443.74C40.7085 443.288 43.875 440.122 44.7796 435.146C48.3981 441.931 48.8504 453.239 37.0903 455.952C25.3303 458.666 14.0225 447.359 14.0225 435.146C14.0225 422.934 20.3548 411.522 42.0657 410.269C55.2823 409.507 73.4637 421.088 87.5036 430.031C89.3197 431.188 91.0666 432.301 92.7244 433.337C104.304 440.574 115.34 447.811 119.411 450.525L166.451 420.22L136.599 399.866L181.83 372.275L226.608 399.866L197.66 420.22L134.789 461.38L104.936 461.38C104.636 460.78 87.8354 449.995 75.2243 441.9ZM181.83 389.011L164.642 400.318L181.83 411.626L200.374 400.318L181.83 389.011Z" fill="#F5F6F9" fill-opacity="0.8"/>
</svg>
