<svg width="22" height="22" viewBox="0 0 22 22" fill="none" xmlns="http://www.w3.org/2000/svg">
<path d="M17.172 9.75745C16.3446 8.90347 15.5172 8.0495 14.6897 7.19553C13.3139 5.77869 11.9285 4.35216 10.5527 2.92566C9.97541 2.32402 9.91971 1.79227 10.3759 1.3207C10.8613 0.820272 11.557 0.832927 12.1247 1.40553C14.3282 3.61836 16.522 5.8408 18.7255 8.05363C19.3895 8.72329 20.0534 9.39294 20.7077 10.0529C21.3524 10.7031 21.3498 11.3023 20.719 11.9277C17.8171 14.8047 14.925 17.6721 12.0328 20.5395C11.4991 21.0591 10.9577 21.0954 10.5151 20.6586C10.0436 20.1927 10.0079 19.5064 10.4835 19.0156C11.6482 17.832 12.8322 16.6678 14.0066 15.5035C14.9868 14.522 15.9671 13.5502 16.957 12.5687C17.0734 12.4532 17.1706 12.3377 17.3259 12.1644C17.1715 12.1347 17.075 12.0957 16.9783 12.0953C11.7793 12.0729 6.58026 12.0506 1.37151 12.0378C0.74337 12.0351 0.0694061 11.4524 0.0429069 10.8725C0.0260305 10.3022 0.588599 9.82146 1.30371 9.82453C6.3578 9.84626 11.4119 9.86798 16.4756 9.88975C16.6979 9.8907 16.9105 9.89162 17.1328 9.89257C17.1523 9.84434 17.1621 9.80572 17.172 9.75745Z" fill="white"/>
</svg>
