<svg width="101" height="123" viewBox="0 0 101 123" fill="none" xmlns="http://www.w3.org/2000/svg">
<path d="M74.2783 105.704C81.8177 108.709 90.9617 101.068 86.4024 88.3837C84.8742 84.13 81.0281 81.2264 76.4179 79.9274C77.564 77.7878 78.2518 75.1898 77.7423 72.1842C76.1377 62.7346 67.4267 61.4101 67.4267 61.4101C67.4267 61.4101 71.0945 63.0657 70.7633 70.0702C70.5596 74.4766 68.5219 78.1189 62.3325 80.9971C56.1431 83.8753 51.4565 90.2685 52.2461 100.864C53.5196 118.261 67.8597 124.527 80.0347 122.693C86.8099 121.674 92.7956 117.573 95.7502 112.861C100.284 105.627 102.22 93.8854 96.4124 80.6915C90.5287 67.3448 81.1809 58.8885 72.9284 48.7256C69.719 44.7522 64.7777 38.2062 61.1354 32.8828C66.0003 24.9359 74.0491 18.5682 80.8498 22.618C88.6693 27.2792 81.079 40.9315 73.0557 32.6026C73.1831 38.1043 78.1753 44.0899 85.0015 43.7588C91.8277 43.4277 100.768 38.5628 99.4944 22.618C98.3228 8.12515 82.5054 1.60462 74.0236 9.44963C72.0369 1.80838 64.1919 -4.86497 54.029 4.81394C54.029 4.81394 63.5806 6.80066 62.9693 15.7919C62.6381 20.5549 60.193 23.3057 57.5949 27.3556C57.5185 27.2028 57.4166 27.05 57.3402 26.9226C52.4753 18.0588 50.6414 10.3411 50.2593 8.50721V8.09967C50.2593 8.09967 50.2339 8.17609 50.2084 8.30344C50.1829 8.17609 50.1575 8.09967 50.1575 8.09967V8.50721C49.7754 10.3156 47.9415 18.0588 43.0766 26.9226C43.0002 27.05 42.9237 27.2028 42.8219 27.3556C40.2238 23.3057 37.7786 20.5549 37.4475 15.7919C36.8362 6.80066 46.3878 4.81394 46.3878 4.81394C36.3013 -4.86497 28.4563 1.80838 26.4696 9.44963C17.9878 1.60462 2.17045 8.12515 0.998793 22.618C-0.274747 38.5628 8.66551 43.4277 15.4917 43.7588C22.3179 44.0899 27.3101 38.1043 27.4375 32.6026C19.4142 40.9315 11.8239 27.2792 19.6434 22.618C26.4441 18.5682 34.4674 24.9359 39.3578 32.8828C35.7155 38.2062 30.7996 44.7522 27.5648 48.7256C19.3123 58.8885 9.96452 67.3448 4.08076 80.6915C-1.72658 93.8854 0.234669 105.627 4.76847 112.861C7.72309 117.573 13.7087 121.674 20.484 122.693C32.6335 124.527 46.9736 118.261 48.2726 100.864C49.0622 90.2685 44.3501 83.8753 38.1862 80.9971C32.0222 78.1189 29.9846 74.4766 29.7553 70.0702C29.4242 63.0657 33.092 61.4101 33.092 61.4101C33.092 61.4101 24.381 62.7346 22.7763 72.1842C22.2669 75.1898 22.9292 77.7878 24.1008 79.9274C19.4906 81.2264 15.6445 84.13 14.1163 88.3837C9.55698 101.068 18.701 108.709 26.2404 105.704C21.5283 102.444 21.3754 92.5099 30.1119 90.3959C39.2305 88.1544 44.0699 100.992 38.7465 108.302C33.4231 115.637 23.4386 116.351 20.1274 115.688C16.7907 115.026 5.5326 111.868 6.80614 93.7071C8.05421 75.9794 23.031 62.811 29.3733 55.1443C32.5317 51.3236 37.7277 44.3701 42.1596 38.3335C45.8019 47.1464 45.9038 55.2207 44.1718 59.9073C42.3379 64.8996 38.339 65.8929 34.6712 65.0779C35.6646 72.4135 41.1663 73.0757 45.0888 71.7512C46.0821 83.6716 49.648 85.7856 50.2339 86.0404C50.2339 86.0658 50.2339 86.0658 50.2339 86.0658C50.2339 86.0658 50.2593 86.0658 50.2848 86.0404C50.3103 86.0404 50.3357 86.0658 50.3357 86.0658V86.0404C50.9216 85.7856 54.4875 83.6716 55.4809 71.7512C59.4034 73.0757 64.9051 72.4135 65.8984 65.0779C62.2306 65.9184 58.2317 64.8996 56.3978 59.9073C54.6913 55.2207 54.7677 47.1464 58.41 38.3335C62.8419 44.3701 68.038 51.3236 71.1963 55.1443C77.5131 62.811 92.5154 75.9794 93.7635 93.7071C95.037 111.868 83.7789 115.026 80.4422 115.688C77.1056 116.351 67.1465 115.612 61.8231 108.302C56.4997 100.966 61.3391 88.1544 70.4577 90.3959C79.1178 92.5354 78.9904 102.444 74.2783 105.704ZM51.7112 43.4277C49.0367 61.3591 54.3856 65.8929 54.3856 65.8929H51.0999C51.0999 65.8929 52.5262 69.8664 50.2593 71.8786C47.9924 69.8664 49.4188 65.8929 49.4188 65.8929H46.1331C46.1331 65.8929 51.4565 61.3846 48.8075 43.4277C48.1707 39.1231 47.1519 35.7864 45.9802 33.0611C48.3236 29.8517 49.9792 27.5339 50.2593 27.1518C50.5395 27.5339 52.1951 29.8517 54.5384 33.0611C53.3668 35.7864 52.3479 39.1231 51.7112 43.4277Z" fill="url(#paint0_linear)"/>
<defs>
<linearGradient id="paint0_linear" x1="50.2518" y1="0" x2="50.2518" y2="123" gradientUnits="userSpaceOnUse">
<stop stop-color="#EDEEF1"/>
<stop offset="1" stop-color="#E4E6EB"/>
</linearGradient>
</defs>
</svg>
