<svg width="20" height="18" viewBox="0 0 20 18" fill="none" xmlns="http://www.w3.org/2000/svg">
<path d="M16.5678 17.5321C16.4802 17.5321 16.3925 17.5321 16.3048 17.5321C13.4997 17.2272 10.6946 16.3887 8.32774 15.0928C6.13623 13.8732 4.2077 12.1962 2.80513 10.2906C1.22725 8.23246 0.262981 5.79321 0 3.35396C0 2.74415 0.175321 2.13434 0.613623 1.67698C1.05192 1.21962 1.66555 0.914717 2.36683 0.838491C2.45449 0.838491 2.54215 0.838491 2.62981 0.838491H5.25963C6.57453 0.838491 7.71412 1.67698 7.88944 2.82038C7.9771 3.50642 8.15242 4.19245 8.4154 4.80227C8.76604 5.64076 8.50306 6.55547 7.80178 7.24151L7.18815 7.7751C8.24008 9.14717 9.55499 10.3668 11.2205 11.2815L11.8342 10.7479C12.5354 10.1381 13.675 9.90944 14.6393 10.2143C15.3406 10.443 16.1295 10.5955 16.9185 10.6717C18.2334 10.8242 19.1976 11.8151 19.1976 12.9585V15.2453C19.1976 15.8551 18.9347 16.4649 18.4087 16.846C17.8827 17.2272 17.2691 17.5321 16.5678 17.5321ZM5.25963 2.36302H2.62981C2.36683 2.36302 2.10385 2.51547 1.92853 2.66793C1.84087 2.82038 1.75321 2.97283 1.75321 3.20151C2.01619 5.41208 2.89279 7.54642 4.29536 9.45208C5.61027 11.2053 7.27581 12.7298 9.292 13.797C11.4835 15.0166 13.938 15.7789 16.4802 16.0076C16.8308 16.0076 17.0061 15.9313 17.1814 15.7789C17.3568 15.6264 17.4444 15.474 17.4444 15.2453V12.9585C17.4444 12.5774 17.0938 12.2725 16.6555 12.1962C15.7789 12.12 14.9023 11.8913 14.0257 11.5864C13.675 11.5102 13.3244 11.5102 13.0614 11.7389L11.9218 12.7298C11.6588 12.9585 11.2205 13.0347 10.8699 12.8823C8.50306 11.7389 6.57453 10.0619 5.25963 8.00378C5.17196 7.69887 5.25963 7.31774 5.52261 7.08906L6.66219 6.09812C6.83751 5.94566 6.92517 5.56453 6.83751 5.33585C6.48687 4.57359 6.31155 3.81132 6.13623 3.04906C6.13623 2.66793 5.69793 2.36302 5.25963 2.36302ZM15.6912 7.69887C15.2529 7.69887 14.9023 7.47019 14.8146 7.08906C14.5516 5.86944 13.412 4.95472 12.0095 4.64981C11.5712 4.57359 11.2205 4.19245 11.3082 3.7351C11.3959 3.35396 11.8342 3.04906 12.3601 3.12528C14.464 3.50642 16.1295 4.87849 16.4802 6.70793C16.5678 7.08906 16.3048 7.54642 15.7789 7.62264C15.7789 7.62264 15.7789 7.69887 15.6912 7.69887ZM19.1976 7.62264C18.7593 7.62264 18.4087 7.31774 18.321 6.93661C17.9704 4.11623 15.4282 1.90566 12.0971 1.52453C11.6588 1.4483 11.3082 1.06717 11.3082 0.686038C11.3082 0.304906 11.8342 0 12.2725 0C16.3925 0.381132 19.5483 3.12528 19.9866 6.70793C20.0742 7.08906 19.7236 7.47019 19.1976 7.54642C19.2853 7.62265 19.1976 7.62264 19.1976 7.62264Z" fill="#00A1AF"/>
</svg>
