<svg width="22" height="21" viewBox="0 0 22 21" fill="none" xmlns="http://www.w3.org/2000/svg">
<path d="M4.06262 11.2484C4.89003 12.1024 5.71745 12.9564 6.54487 13.8103C7.92071 15.2272 9.30617 16.6537 10.682 18.0802C11.2592 18.6818 11.3149 19.2136 10.8587 19.6852C10.3733 20.1856 9.6776 20.1729 9.10989 19.6003C6.90639 17.3875 4.71259 15.1651 2.50908 12.9522C1.84515 12.2826 1.18123 11.6129 0.526924 10.953C-0.117758 10.3027 -0.115183 9.70357 0.515654 9.07813C3.4175 6.20112 6.30965 3.33373 9.2018 0.466341C9.73554 -0.0532119 10.2769 -0.0895405 10.7195 0.347234C11.1911 0.813125 11.2268 1.49941 10.7511 1.99022C9.58638 3.17387 8.40238 4.3381 7.22806 5.50238C6.24779 6.48387 5.26757 7.45571 4.27764 8.43716C4.16118 8.55263 4.06404 8.66818 3.90868 8.84146C4.06317 8.87111 4.15964 8.91018 4.25628 8.9106C9.45532 8.93294 14.6544 8.95529 19.8631 8.96801C20.4913 8.97071 21.1652 9.55344 21.1917 10.1334C21.2086 10.7036 20.646 11.1844 19.9309 11.1813C14.8768 11.1596 9.82273 11.1379 4.75898 11.1161C4.53672 11.1152 4.32412 11.1142 4.10185 11.1133C4.08232 11.1615 4.07249 11.2001 4.06262 11.2484Z" fill="white" fill-opacity="1"/>
</svg>
