<svg width="402" height="237" viewBox="0 0 402 237" fill="none" xmlns="http://www.w3.org/2000/svg">
<path d="M359.356 61.5C371.856 84.3334 390.056 137.6 362.856 168C384.856 169 396.856 171 399.856 196C401.356 209 397.356 225.5 374.356 225.5C361.856 225.5 355.356 216.5 355.356 210.5C355.356 205.7 359.689 201.167 361.856 199.5C363.023 201.833 366.556 206.5 371.356 206.5C377.356 206.5 379.856 200 379.856 198C379.856 196 379.856 186.5 369.356 186.5C358.856 186.5 339.356 188.5 323.856 194C307.356 199.5 274.356 198.5 254.356 178.5C234.356 158.5 216.856 130.5 241.356 75.5C247.356 61.5 274.356 34 285.856 21C297.356 8.00003 328.356 -20 332.856 -35.5C337.356 -51 349.356 -85 307.856 -106C301.856 -109 278.356 -104.5 278.356 -77C278.356 -67.5 293.856 -61 299.356 -72.5C300.956 -76.1 298.023 -79.6666 296.356 -81C302.19 -81.8333 313.856 -80 313.856 -66C313.856 -48.5 297.856 -46 290.856 -46C283.856 -46 270.356 -49.5 260.856 -66C251.356 -82.5 249.856 -114.5 296.356 -127.5C317.856 -132.5 356.856 -111 359.356 -62.5C372.856 -102.5 354.856 -125.5 329.356 -145.5C315.856 -155 264.856 -162 243.856 -131C222.856 -100 223.356 -69 253.856 -39C262.856 -30 285.856 -28 293.856 -27.5C287.456 -20.3 235.605 34.1667 210.272 60.5L210.272 165.5C215.772 178 226.272 170 228.772 163.5C235.314 175.314 231.814 185.314 224.314 191C218.677 195.273 207.272 193.833 204.272 191L204.272 196C209.772 197.5 214.772 204.5 214.772 210C214.772 222 205.272 233.5 200.272 236.5C193.772 232 187.272 220 187.272 210C187.272 202 193.605 197.333 196.772 196L196.772 191C192.272 194 185.772 195.5 177.772 191C169.772 186.5 166.772 174.5 172.272 164C179.072 177.6 187.772 170.667 191.272 165.5L191.272 60.5C165.938 34.1667 113.672 -20.3 107.272 -27.5C115.272 -28 138.272 -30 147.272 -39C177.772 -69 178.272 -100 157.272 -131C136.272 -162 85.2718 -155 71.7718 -145.5C46.2718 -125.5 28.2717 -102.5 41.7718 -62.5C44.272 -111 83.2718 -132.5 104.772 -127.5C151.272 -114.5 149.772 -82.5 140.272 -66C130.772 -49.5 117.272 -46 110.272 -46C103.272 -46 87.2718 -48.5 87.2718 -66C87.2718 -80 98.9384 -81.8333 104.772 -81C103.105 -79.6667 100.172 -76.1 101.772 -72.5C107.272 -61 122.772 -67.5 122.772 -77C122.772 -104.5 99.2718 -109 93.2718 -106C51.7718 -85 63.7718 -51 68.2718 -35.5C72.7718 -20 103.772 8.00002 115.272 21C126.772 34 153.772 61.5 159.772 75.5C184.272 130.5 166.772 158.5 146.772 178.5C126.772 198.5 93.7717 199.5 77.2717 194C61.7717 188.5 42.2717 186.5 31.7717 186.5C21.2717 186.5 21.2717 196 21.2717 198C21.2717 200 23.7717 206.5 29.7717 206.5C34.5717 206.5 38.1051 201.833 39.2717 199.5C41.4384 201.167 45.7717 205.7 45.7717 210.5C45.7717 216.5 39.2717 225.5 26.7715 225.5C3.77153 225.5 -0.228471 209 1.27153 196C4.27153 171 16.2718 169 38.2718 168C11.0718 137.6 29.2718 84.3334 41.7718 61.5C47.2722 42.5001 31.2715 40.5 29.7715 40.5C28.2715 40.5 20.7715 39.5 19.2715 48.5C17.7715 57.5 26.7717 59.5 31.2715 58.5C30.2715 62 28.7715 64.5 26.7717 66C16.2717 75 -4.22825 65 0.77175 41.5C5.77175 18 30.2717 20.5 41.7718 26C75.272 43 61.7717 72 59.7717 81.5C68.2717 75.5 90.2717 75.5 100.272 78C135.272 89 126.272 128 118.272 138C99.7717 162 75.2717 148 72.2717 138C66.2717 116 81.7717 112.833 90.2717 114C88.9384 114.833 86.2717 117.5 86.2717 121.5C87.7717 135 115.272 127.5 101.772 106C88.2717 84.5 48.7717 98.5 48.7717 132.5C48.7717 166.5 94.7717 183.5 120.772 171C146.772 158.5 151.772 123 150.272 112.5C145.272 82 116.272 55.5 111.272 52.5C94.7717 41 82.7717 50.5 80.7717 57C62.3718 35.4 77.4384 29.3333 87.2718 29C80.1051 20.8333 64.3718 3.09999 58.7718 -2.50001C51.7718 -9.50002 29.2718 -37 23.2718 -54C4.27176 -97.5 29.2718 -133.5 31.7718 -136C29.2718 -136 25.2718 -138.5 23.2718 -140.5C13.7718 -149.5 15.2718 -157.5 21.2718 -164C30.2718 -149.5 43.7718 -156 50.7718 -159C57.7718 -162 74.7718 -175 101.772 -175C159.772 -174.5 195.272 -125.5 193.272 -89.5C190.072 -47.9 158.938 -21.8333 143.772 -14L201.129 45L257.356 -14C242.189 -21.8333 211.056 -47.9 207.856 -89.5C205.856 -125.5 241.356 -174.5 299.356 -175C326.356 -175 343.356 -162 350.356 -159C357.356 -156 370.856 -149.5 379.856 -164C385.856 -157.5 387.356 -149.5 377.856 -140.5C375.856 -138.5 371.856 -136 369.356 -136C371.856 -133.5 396.856 -97.5 377.856 -54C371.856 -37 349.356 -9.5 342.356 -2.5C336.756 3.1 321.023 20.8333 313.856 29C323.69 29.3333 338.756 35.4 320.356 57C318.356 50.5 306.356 41 289.856 52.5C284.856 55.5 255.856 82 250.856 112.5C249.356 123 254.356 158.5 280.356 171C306.356 183.5 352.356 166.5 352.356 132.5C352.356 98.5 312.856 84.5 299.356 106C285.856 127.5 313.356 135 314.856 121.5C314.856 117.5 312.19 114.833 310.856 114C319.356 112.833 334.856 116 328.856 138C325.856 148 301.356 162 282.856 138C274.856 128 265.856 89 300.856 78C310.856 75.5 332.856 75.5 341.356 81.5C339.356 72 325.856 43 359.356 26C370.856 20.5 395.356 18 400.356 41.5C405.356 65 384.856 75 374.356 66C372.356 64.5 370.856 62 369.856 58.5C374.356 59.5 383.356 57.5 381.856 48.5C380.356 39.5 372.856 40.5 371.356 40.5C369.856 40.5 353.856 42.5001 359.356 61.5Z" fill="url(#paint0_linear)"/>
<defs>
<linearGradient id="paint0_linear" x1="-191" y1="137.5" x2="652.5" y2="134" gradientUnits="userSpaceOnUse">
<stop stop-color="#F5F6F9"/>
<stop offset="1" stop-color="#E8EAF1"/>
</linearGradient>
</defs>
</svg>
