<svg width="16" height="9" viewBox="0 0 16 9" fill="none" xmlns="http://www.w3.org/2000/svg">
<path d="M8.97241 3.11813C9.69415 3.75968 10.3357 4.48141 11.0574 5.12296C12.1801 6.24566 13.3028 7.36836 14.4255 8.49106C14.9067 8.97221 15.3077 8.97221 15.7086 8.65144C16.1096 8.25048 16.1096 7.68913 15.6284 7.28816C13.8642 5.52392 12.0999 3.75968 10.3357 1.99543C9.77434 1.43408 9.29319 0.952925 8.73184 0.391575C8.25068 -0.0895824 7.76952 -0.169775 7.20817 0.391575C4.96277 2.55678 2.63718 4.88238 0.311584 7.20797C-0.0893799 7.60893 -0.0893799 8.0099 0.231392 8.41086C0.632356 8.81183 1.19371 8.81183 1.51448 8.41086C2.47679 7.52874 3.43911 6.56643 4.40142 5.60411C5.20335 4.80218 6.00528 4.00025 6.72701 3.27852C6.80721 3.19833 6.96759 3.11813 7.04779 2.95775C7.76952 2.3964 8.17049 2.3162 8.97241 3.11813Z" fill="#4B6686"/>
</svg>
