<svg width="16" height="9" viewBox="0 0 16 9" fill="none" xmlns="http://www.w3.org/2000/svg">
<path d="M8.97241 5.75687C9.69415 5.11532 10.3357 4.39359 11.0574 3.75204C12.1801 2.62934 13.3028 1.50664 14.4255 0.383944C14.9067 -0.0972135 15.3077 -0.0972135 15.7086 0.223558C16.1096 0.624522 16.1096 1.18587 15.6284 1.58684C13.8642 3.35108 12.0999 5.11532 10.3357 6.87957C9.77434 7.44092 9.29319 7.92207 8.73184 8.48343C8.25068 8.96458 7.76952 9.04478 7.20817 8.48343C4.96277 6.31822 2.63718 3.99262 0.311584 1.66703C-0.0893799 1.26607 -0.0893799 0.865101 0.231392 0.464137C0.632356 0.0631723 1.19371 0.0631723 1.51448 0.464137C2.47679 1.34626 3.43911 2.30857 4.40142 3.27089C5.20335 4.07282 6.00528 4.87475 6.72701 5.59648C6.80721 5.67667 6.96759 5.75687 7.04779 5.91725C7.76952 6.4786 8.17049 6.5588 8.97241 5.75687Z" fill="#4B6686"/>
</svg>
