<svg width="145" height="1049" viewBox="0 0 145 1049" fill="none" xmlns="http://www.w3.org/2000/svg">
<path d="M27.7469 507.43C10.5618 507.43 2.08852 519.405 4.57764e-05 525.392H145C142.315 518.207 125.309 509.226 117.253 508.328C127.278 500.425 127.994 487.073 127.099 481.385C122.802 451.208 94.8766 449.053 79.6605 467.015C98.4568 475.996 97.5617 496.653 79.6605 504.736C64.4445 512.818 51.9136 496.653 50.1235 482.283C48.3334 467.913 62.6543 444.562 70.7099 431.091C78.7654 417.619 112.778 377.205 117.253 366.427C121.728 355.65 127.994 338.586 129.784 318.828C131.574 299.069 119.938 280.209 110.988 274.82C122.444 278.413 135.453 267.935 140.525 262.247L0 262.247C2.68518 267.636 13.4259 279.311 24.1667 277.515C10.7408 296.375 19.6914 322.42 37.5926 331.401C55.4938 340.382 72.5 325.114 70.7099 308.948C66.2346 313.439 50.1235 308.948 50.1235 293.681C50.1235 278.413 60.8642 271.228 68.9197 271.228C83.2407 271.228 99.3518 278.413 99.3518 303.56C99.3518 328.707 91.2963 345.771 68.9198 380.797C46.5432 415.823 13.426 446.359 13.426 476.894C13.426 486.773 19.6914 505.634 27.7469 507.43Z" fill="#E8EAF1"/>
<path d="M27.7469 17.9621C10.5618 17.9621 2.08852 5.98739 4.57764e-05 1.90791e-05L145 0C142.315 7.18485 125.309 16.1659 117.253 17.064C127.278 24.9673 127.994 38.3192 127.099 44.0072C122.802 74.1836 94.8766 76.339 79.6605 58.3769C98.4568 49.3958 97.5617 28.7394 79.6605 20.6564C64.4445 12.5735 51.9136 28.7394 50.1235 43.1091C48.3334 57.4788 62.6544 80.8296 70.7099 94.3011C78.7655 107.773 112.778 148.187 117.253 158.965C121.728 169.742 127.994 186.806 129.784 206.564C131.574 226.323 119.938 245.183 110.988 250.572C122.444 246.979 135.453 257.457 140.525 263.145L9.15527e-05 263.145C2.68527 257.756 13.426 246.081 24.1667 247.877C10.7408 229.017 19.6914 202.972 37.5927 193.991C55.4939 185.01 72.5 200.278 70.7099 216.444C66.2346 211.953 50.1235 216.444 50.1235 231.711C50.1235 246.979 60.8643 254.164 68.9198 254.164C83.2408 254.164 99.3519 246.979 99.3519 221.832C99.3519 196.685 91.2963 179.621 68.9198 144.595C46.5433 109.569 13.426 79.0333 13.426 48.4977C13.426 38.6186 19.6914 19.7583 27.7469 17.9621Z" fill="#E8EAF1"/>
<path d="M27.7469 1031.07C10.5618 1031.07 2.08852 1043.02 4.57764e-05 1049H145C142.315 1041.83 125.309 1032.86 117.253 1031.96C127.278 1024.08 127.994 1010.75 127.099 1005.07C122.802 974.942 94.8766 972.791 79.6605 990.722C98.4568 999.688 97.5617 1020.31 79.6605 1028.38C64.4445 1036.45 51.9136 1020.31 50.1235 1005.96C48.3334 991.619 62.6543 968.308 70.7099 954.859C78.7654 941.41 112.778 901.064 117.253 890.305C121.728 879.546 127.994 862.511 129.784 842.786C131.574 823.062 119.938 804.233 110.988 798.854C122.444 802.44 135.453 791.98 140.525 786.302L0 786.302C2.68518 791.681 13.4259 803.337 24.1667 801.544C10.7408 820.372 19.6914 846.373 37.5926 855.339C55.4938 864.304 72.5 849.062 70.7099 832.924C66.2346 837.407 50.1235 832.924 50.1235 817.682C50.1235 802.44 60.8642 795.268 68.9197 795.268C83.2407 795.268 99.3518 802.44 99.3518 827.544C99.3518 852.649 91.2963 869.684 68.9198 904.65C46.5432 939.617 13.426 970.101 13.426 1000.58C13.426 1010.45 19.6914 1029.28 27.7469 1031.07Z" fill="#E8EAF1"/>
<path d="M27.7469 542.432C10.5618 542.432 2.08852 530.477 4.57764e-05 524.5H145C142.315 531.673 125.309 540.638 117.253 541.535C127.278 549.425 127.994 562.754 127.099 568.432C122.802 598.558 94.8766 600.709 79.6605 582.778C98.4568 573.812 97.5617 553.191 79.6605 545.121C64.4445 537.052 51.9136 553.191 50.1235 567.536C48.3334 581.881 62.6544 605.192 70.7099 618.641C78.7655 632.09 112.778 672.436 117.253 683.195C121.728 693.954 127.994 710.989 129.784 730.714C131.574 750.438 119.938 769.267 110.988 774.646C122.444 771.06 135.453 781.52 140.525 787.198L9.15527e-05 787.198C2.68527 781.819 13.426 770.163 24.1667 771.956C10.7408 753.128 19.6914 727.127 37.5927 718.162C55.4939 709.196 72.5 724.438 70.7099 740.576C66.2346 736.093 50.1235 740.576 50.1235 755.818C50.1235 771.06 60.8643 778.232 68.9198 778.232C83.2408 778.232 99.3519 771.06 99.3519 745.956C99.3519 720.851 91.2963 703.816 68.9198 668.85C46.5433 633.883 13.426 603.399 13.426 572.915C13.426 563.053 19.6914 544.225 27.7469 542.432Z" fill="#E8EAF1"/>
</svg>
