<svg width="311" height="268" viewBox="0 0 311 268" fill="none" xmlns="http://www.w3.org/2000/svg">
<mask id="path-1-inside-1" fill="white">
<path d="M179.374 191.271C179.374 201.816 171.879 206.002 168.132 206.778C172.008 198.249 164.255 196.311 160.379 201.35C157.277 204.452 155.985 211.688 155.727 214.918C155.727 212.851 154.719 207.243 150.687 201.35C145.648 193.985 138.282 200.963 142.934 206.778C138.541 205.744 130.064 201.195 131.304 191.271C133.63 177.704 144.872 182.743 146.423 184.294C146.423 174.99 151.85 169.563 155.727 167.237C161.542 169.95 165.418 179.254 164.255 184.294C166.193 180.805 179.374 178.091 179.374 191.271Z"/>
<path d="M278.613 136.223C288.305 118.52 302.415 77.2221 281.327 53.6527C298.384 52.8773 307.688 51.3267 310.013 31.944C311.176 21.865 308.075 9.07232 290.243 9.07232C280.551 9.07232 275.512 16.0501 275.512 20.702C275.512 24.4235 278.872 27.9382 280.551 29.2304C281.456 27.4213 284.195 23.8032 287.917 23.8032C292.569 23.8032 294.507 28.8427 294.507 30.3934C294.507 31.944 294.507 39.3094 286.366 39.3094C278.226 39.3094 263.107 37.7588 251.09 33.4946C238.297 29.2304 212.712 30.0057 197.206 45.5119C181.699 61.0181 168.132 82.7268 187.127 125.369C191.778 136.223 212.712 157.544 221.628 167.623C230.544 177.702 254.579 199.411 258.068 211.428C261.556 223.446 270.86 249.806 238.685 266.088C234.033 268.414 215.813 264.925 215.813 243.604C215.813 236.238 227.83 231.199 232.095 240.115C233.335 242.906 231.061 245.671 229.769 246.705C234.291 247.351 243.337 245.93 243.337 235.075C243.337 221.507 230.932 219.569 225.504 219.569C220.077 219.569 209.611 222.283 202.245 235.075C194.88 247.868 193.717 272.678 229.769 282.757C246.438 286.633 276.675 269.964 278.613 232.362C289.08 263.374 275.124 281.206 255.354 296.712C244.887 304.078 205.346 309.505 189.065 285.47C172.783 261.436 173.171 237.401 196.818 214.142C203.796 207.164 221.628 205.613 227.83 205.226C222.868 199.644 182.51 157.729 162.869 137.312L163.027 55.591C163.219 55.1531 163.42 54.7478 163.627 54.3732C165.247 52.4503 167.631 50.6036 170.214 50.6077C173.358 51.2426 176.303 54.3682 177.37 57.1416C177.721 56.388 178.021 55.6524 178.273 54.9349C181.335 47.2712 178.916 39.0519 173.171 35.8206C172.764 35.5919 172.363 35.3832 171.966 35.1935C166.367 30.8503 160.712 33.6617 158.44 35.7594V31.944C158.483 31.9259 158.527 31.9069 158.572 31.8872C162.758 30.614 166.515 25.2881 166.515 21.0897C166.515 15.2037 163.567 9.47291 160.42 5.46777C158.967 3.38859 157.347 1.66569 155.727 0.543945C155.652 0.588488 155.577 0.635483 155.5 0.684836C155.423 0.635483 155.348 0.588488 155.273 0.543945C153.653 1.66572 152.033 3.38856 150.58 5.46777C147.433 9.47288 144.485 15.2037 144.485 21.0897C144.485 25.2881 148.243 30.614 152.428 31.8872C152.473 31.9069 152.517 31.9259 152.56 31.944V35.7594C150.288 33.6617 144.633 30.8503 139.034 35.1935C138.637 35.3832 138.236 35.5919 137.829 35.8206C132.084 39.0519 129.665 47.2712 132.727 54.9348C132.979 55.6524 133.279 56.388 133.63 57.1416C134.697 54.3682 137.642 51.2426 140.786 50.6077C143.369 50.6036 145.753 52.4503 147.373 54.3732C147.58 54.7477 147.781 55.1531 147.973 55.591L148.253 137.312C128.611 157.729 88.1316 199.644 83.1696 205.226C89.3721 205.613 107.204 207.164 114.182 214.142C137.829 237.401 138.217 261.436 121.935 285.47C105.654 309.505 66.1128 304.078 55.6461 296.712C35.8757 281.206 21.9201 263.374 32.3869 232.362C34.3252 269.964 64.5622 286.633 81.2313 282.757C117.283 272.678 116.12 247.868 108.755 235.075C101.389 222.283 90.9227 219.569 85.4955 219.569C80.0684 219.569 67.6634 221.507 67.6634 235.075C67.6634 245.93 76.7087 247.351 81.2313 246.705C79.9392 245.671 77.6649 242.906 78.9054 240.115C83.1696 231.199 95.1869 236.238 95.1869 243.604C95.1869 264.925 76.9671 268.414 72.3153 266.088C40.1399 249.806 49.4436 223.446 52.9325 211.428C56.4214 199.411 80.456 177.702 89.3721 167.623C98.2882 157.544 119.222 136.223 123.873 125.369C142.869 82.7268 129.301 61.0181 113.794 45.5119C98.2882 30.0057 72.7029 29.2304 59.9103 33.4946C47.893 37.7588 32.7745 39.3094 24.6337 39.3094C16.493 39.3094 16.493 31.944 16.493 30.3933C16.493 28.8427 18.4312 23.8032 23.0831 23.8032C26.8046 23.8032 29.544 27.4213 30.4485 29.2304C32.1284 27.9382 35.4881 24.4234 35.4881 20.702C35.4881 16.0501 30.4485 9.07231 20.757 9.07231C2.92489 9.07231 -0.176367 21.8649 0.986605 31.944C3.31255 51.3267 12.6165 52.8773 29.6733 53.6526C8.58484 77.2221 22.6955 118.52 32.3869 136.223C36.6514 150.954 24.2459 152.505 23.0829 152.505C21.9199 152.505 16.1051 153.28 14.9421 146.302C13.7791 139.324 20.7572 137.774 24.2459 138.549C23.4705 135.836 22.3076 133.897 20.7572 132.734C12.6164 125.757 -3.27744 133.51 0.599102 151.729C4.47564 169.949 23.4707 168.011 32.3869 163.747C58.3599 150.566 47.893 128.082 46.3424 120.717C52.9325 125.369 69.9893 125.369 77.7424 123.431C104.878 114.902 97.9005 84.6651 91.698 76.912C77.3548 58.3045 58.3597 69.1589 56.0338 76.912C51.3819 93.9688 63.3992 96.4239 69.9893 95.5194C68.9556 94.8733 66.8881 92.8058 66.8881 89.7046C68.0511 79.2379 89.3721 85.0527 78.9054 101.722C68.4387 118.391 37.814 107.537 37.814 81.1762C37.814 54.8156 73.4782 41.6354 93.6363 51.3268C113.794 61.0181 117.671 88.5416 116.508 96.6824C112.631 120.329 90.1474 140.875 86.2709 143.201C73.4782 152.117 64.1745 144.752 62.6239 139.712C48.3582 156.459 60.0395 161.162 67.6634 161.421C62.107 167.752 49.9088 181.501 45.5671 185.843C40.1399 191.27 22.6954 212.591 18.0436 225.772C3.31267 259.497 22.6954 287.409 24.6337 289.347C22.6954 289.347 19.5942 291.285 18.0436 292.836C10.6781 299.814 11.8411 306.016 16.493 311.056C23.4708 299.814 33.9374 304.853 39.3646 307.179C44.7918 309.505 57.972 319.584 78.9054 319.584C123.873 319.196 151.397 281.206 149.846 253.295C147.365 221.042 123.227 200.832 111.468 194.759L155.561 148.797L199.532 194.759C187.773 200.832 163.635 221.042 161.154 253.295C159.603 281.206 187.127 319.196 232.095 319.584C253.028 319.584 266.208 309.505 271.635 307.179C277.063 304.853 287.529 299.814 294.507 311.056C299.159 306.016 300.322 299.814 292.956 292.836C291.406 291.285 288.305 289.347 286.366 289.347C288.305 287.409 307.687 259.497 292.956 225.772C288.305 212.591 270.86 191.27 265.433 185.843C261.091 181.501 248.893 167.752 243.337 161.421C250.96 161.162 262.642 156.459 248.376 139.712C246.826 144.752 237.522 152.117 224.729 143.201C220.853 140.875 198.369 120.329 194.492 96.6824C193.329 88.5416 197.206 61.0181 217.364 51.3268C237.522 41.6354 273.186 54.8157 273.186 81.1762C273.186 107.537 242.561 118.391 232.095 101.722C221.628 85.0527 242.949 79.2379 244.112 89.7046C244.112 92.8058 242.044 94.8733 241.011 95.5194C247.601 96.4239 259.618 93.9688 254.966 76.912C252.64 69.1589 233.645 58.3045 219.302 76.912C213.1 84.6651 206.122 114.902 233.258 123.431C241.011 125.369 258.067 125.369 264.658 120.717C263.107 128.082 252.64 150.566 278.613 163.747C287.529 168.011 306.524 169.949 310.401 151.729C314.277 133.51 298.384 125.757 290.243 132.734C288.692 133.897 287.529 135.836 286.754 138.549C290.243 137.774 297.221 139.324 296.058 146.302C294.895 153.28 289.08 152.505 287.917 152.505C286.754 152.505 274.349 150.954 278.613 136.223Z"/>
</mask>
<path d="M179.374 191.271C179.374 201.816 171.879 206.002 168.132 206.778C172.008 198.249 164.255 196.311 160.379 201.35C157.277 204.452 155.985 211.688 155.727 214.918C155.727 212.851 154.719 207.243 150.687 201.35C145.648 193.985 138.282 200.963 142.934 206.778C138.541 205.744 130.064 201.195 131.304 191.271C133.63 177.704 144.872 182.743 146.423 184.294C146.423 174.99 151.85 169.563 155.727 167.237C161.542 169.95 165.418 179.254 164.255 184.294C166.193 180.805 179.374 178.091 179.374 191.271Z" stroke="#215A8E" stroke-width="2.08807" mask="url(#path-1-inside-1)"/>
<path d="M278.613 136.223C288.305 118.52 302.415 77.2221 281.327 53.6527C298.384 52.8773 307.688 51.3267 310.013 31.944C311.176 21.865 308.075 9.07232 290.243 9.07232C280.551 9.07232 275.512 16.0501 275.512 20.702C275.512 24.4235 278.872 27.9382 280.551 29.2304C281.456 27.4213 284.195 23.8032 287.917 23.8032C292.569 23.8032 294.507 28.8427 294.507 30.3934C294.507 31.944 294.507 39.3094 286.366 39.3094C278.226 39.3094 263.107 37.7588 251.09 33.4946C238.297 29.2304 212.712 30.0057 197.206 45.5119C181.699 61.0181 168.132 82.7268 187.127 125.369C191.778 136.223 212.712 157.544 221.628 167.623C230.544 177.702 254.579 199.411 258.068 211.428C261.556 223.446 270.86 249.806 238.685 266.088C234.033 268.414 215.813 264.925 215.813 243.604C215.813 236.238 227.83 231.199 232.095 240.115C233.335 242.906 231.061 245.671 229.769 246.705C234.291 247.351 243.337 245.93 243.337 235.075C243.337 221.507 230.932 219.569 225.504 219.569C220.077 219.569 209.611 222.283 202.245 235.075C194.88 247.868 193.717 272.678 229.769 282.757C246.438 286.633 276.675 269.964 278.613 232.362C289.08 263.374 275.124 281.206 255.354 296.712C244.887 304.078 205.346 309.505 189.065 285.47C172.783 261.436 173.171 237.401 196.818 214.142C203.796 207.164 221.628 205.613 227.83 205.226C222.868 199.644 182.51 157.729 162.869 137.312L163.027 55.591C163.219 55.1531 163.42 54.7478 163.627 54.3732C165.247 52.4503 167.631 50.6036 170.214 50.6077C173.358 51.2426 176.303 54.3682 177.37 57.1416C177.721 56.388 178.021 55.6524 178.273 54.9349C181.335 47.2712 178.916 39.0519 173.171 35.8206C172.764 35.5919 172.363 35.3832 171.966 35.1935C166.367 30.8503 160.712 33.6617 158.44 35.7594V31.944C158.483 31.9259 158.527 31.9069 158.572 31.8872C162.758 30.614 166.515 25.2881 166.515 21.0897C166.515 15.2037 163.567 9.47291 160.42 5.46777C158.967 3.38859 157.347 1.66569 155.727 0.543945C155.652 0.588488 155.577 0.635483 155.5 0.684836C155.423 0.635483 155.348 0.588488 155.273 0.543945C153.653 1.66572 152.033 3.38856 150.58 5.46777C147.433 9.47288 144.485 15.2037 144.485 21.0897C144.485 25.2881 148.243 30.614 152.428 31.8872C152.473 31.9069 152.517 31.9259 152.56 31.944V35.7594C150.288 33.6617 144.633 30.8503 139.034 35.1935C138.637 35.3832 138.236 35.5919 137.829 35.8206C132.084 39.0519 129.665 47.2712 132.727 54.9348C132.979 55.6524 133.279 56.388 133.63 57.1416C134.697 54.3682 137.642 51.2426 140.786 50.6077C143.369 50.6036 145.753 52.4503 147.373 54.3732C147.58 54.7477 147.781 55.1531 147.973 55.591L148.253 137.312C128.611 157.729 88.1316 199.644 83.1696 205.226C89.3721 205.613 107.204 207.164 114.182 214.142C137.829 237.401 138.217 261.436 121.935 285.47C105.654 309.505 66.1128 304.078 55.6461 296.712C35.8757 281.206 21.9201 263.374 32.3869 232.362C34.3252 269.964 64.5622 286.633 81.2313 282.757C117.283 272.678 116.12 247.868 108.755 235.075C101.389 222.283 90.9227 219.569 85.4955 219.569C80.0684 219.569 67.6634 221.507 67.6634 235.075C67.6634 245.93 76.7087 247.351 81.2313 246.705C79.9392 245.671 77.6649 242.906 78.9054 240.115C83.1696 231.199 95.1869 236.238 95.1869 243.604C95.1869 264.925 76.9671 268.414 72.3153 266.088C40.1399 249.806 49.4436 223.446 52.9325 211.428C56.4214 199.411 80.456 177.702 89.3721 167.623C98.2882 157.544 119.222 136.223 123.873 125.369C142.869 82.7268 129.301 61.0181 113.794 45.5119C98.2882 30.0057 72.7029 29.2304 59.9103 33.4946C47.893 37.7588 32.7745 39.3094 24.6337 39.3094C16.493 39.3094 16.493 31.944 16.493 30.3933C16.493 28.8427 18.4312 23.8032 23.0831 23.8032C26.8046 23.8032 29.544 27.4213 30.4485 29.2304C32.1284 27.9382 35.4881 24.4234 35.4881 20.702C35.4881 16.0501 30.4485 9.07231 20.757 9.07231C2.92489 9.07231 -0.176367 21.8649 0.986605 31.944C3.31255 51.3267 12.6165 52.8773 29.6733 53.6526C8.58484 77.2221 22.6955 118.52 32.3869 136.223C36.6514 150.954 24.2459 152.505 23.0829 152.505C21.9199 152.505 16.1051 153.28 14.9421 146.302C13.7791 139.324 20.7572 137.774 24.2459 138.549C23.4705 135.836 22.3076 133.897 20.7572 132.734C12.6164 125.757 -3.27744 133.51 0.599102 151.729C4.47564 169.949 23.4707 168.011 32.3869 163.747C58.3599 150.566 47.893 128.082 46.3424 120.717C52.9325 125.369 69.9893 125.369 77.7424 123.431C104.878 114.902 97.9005 84.6651 91.698 76.912C77.3548 58.3045 58.3597 69.1589 56.0338 76.912C51.3819 93.9688 63.3992 96.4239 69.9893 95.5194C68.9556 94.8733 66.8881 92.8058 66.8881 89.7046C68.0511 79.2379 89.3721 85.0527 78.9054 101.722C68.4387 118.391 37.814 107.537 37.814 81.1762C37.814 54.8156 73.4782 41.6354 93.6363 51.3268C113.794 61.0181 117.671 88.5416 116.508 96.6824C112.631 120.329 90.1474 140.875 86.2709 143.201C73.4782 152.117 64.1745 144.752 62.6239 139.712C48.3582 156.459 60.0395 161.162 67.6634 161.421C62.107 167.752 49.9088 181.501 45.5671 185.843C40.1399 191.27 22.6954 212.591 18.0436 225.772C3.31267 259.497 22.6954 287.409 24.6337 289.347C22.6954 289.347 19.5942 291.285 18.0436 292.836C10.6781 299.814 11.8411 306.016 16.493 311.056C23.4708 299.814 33.9374 304.853 39.3646 307.179C44.7918 309.505 57.972 319.584 78.9054 319.584C123.873 319.196 151.397 281.206 149.846 253.295C147.365 221.042 123.227 200.832 111.468 194.759L155.561 148.797L199.532 194.759C187.773 200.832 163.635 221.042 161.154 253.295C159.603 281.206 187.127 319.196 232.095 319.584C253.028 319.584 266.208 309.505 271.635 307.179C277.063 304.853 287.529 299.814 294.507 311.056C299.159 306.016 300.322 299.814 292.956 292.836C291.406 291.285 288.305 289.347 286.366 289.347C288.305 287.409 307.687 259.497 292.956 225.772C288.305 212.591 270.86 191.27 265.433 185.843C261.091 181.501 248.893 167.752 243.337 161.421C250.96 161.162 262.642 156.459 248.376 139.712C246.826 144.752 237.522 152.117 224.729 143.201C220.853 140.875 198.369 120.329 194.492 96.6824C193.329 88.5416 197.206 61.0181 217.364 51.3268C237.522 41.6354 273.186 54.8157 273.186 81.1762C273.186 107.537 242.561 118.391 232.095 101.722C221.628 85.0527 242.949 79.2379 244.112 89.7046C244.112 92.8058 242.044 94.8733 241.011 95.5194C247.601 96.4239 259.618 93.9688 254.966 76.912C252.64 69.1589 233.645 58.3045 219.302 76.912C213.1 84.6651 206.122 114.902 233.258 123.431C241.011 125.369 258.067 125.369 264.658 120.717C263.107 128.082 252.64 150.566 278.613 163.747C287.529 168.011 306.524 169.949 310.401 151.729C314.277 133.51 298.384 125.757 290.243 132.734C288.692 133.897 287.529 135.836 286.754 138.549C290.243 137.774 297.221 139.324 296.058 146.302C294.895 153.28 289.08 152.505 287.917 152.505C286.754 152.505 274.349 150.954 278.613 136.223Z" stroke="#215A8E" stroke-width="2.08807" mask="url(#path-1-inside-1)"/>
</svg>
