<svg width="298" height="755" viewBox="0 0 298 755" fill="none" xmlns="http://www.w3.org/2000/svg">
<path d="M162.145 557.908C163.562 560.565 162.835 563.314 161.062 564.768C160.047 565.602 158.697 565.996 157.268 565.682C155.841 565.37 154.397 564.368 153.139 562.529C150.674 558.927 149.366 555.426 148.734 552.806C148.545 553.802 148.302 554.868 147.998 555.933C147.285 558.429 146.212 560.996 144.645 562.577C142.687 565.102 139.676 565.979 137.556 564.973C136.477 564.46 135.683 563.475 135.423 562.077C135.205 560.909 135.363 559.475 135.993 557.791C132.381 558.95 126.575 562.94 126.575 571.901C126.575 574.974 127.342 577.056 128.463 578.424C129.583 579.79 131.097 580.495 132.693 580.735C134.296 580.977 135.964 580.746 137.341 580.254C138.741 579.754 139.741 579.02 140.119 578.341L141.043 578.697C140.521 580.957 141.125 584.271 142.586 587.375C144 590.38 146.161 593.069 148.697 594.352C152.285 592.114 157.136 587.09 157.136 578.584L157.136 577.377L157.989 578.231C158.286 578.527 159.159 579.077 160.383 579.524C161.591 579.966 163.073 580.283 164.561 580.174C166.04 580.065 167.521 579.536 168.769 578.284C170.02 577.027 171.076 575.001 171.622 571.827C172.19 567.253 170.528 563.94 168.217 561.635C166.341 559.764 164.033 558.557 162.145 557.908Z" stroke="#16436D"/>
<mask id="path-2-inside-1" fill="white">
<path d="M31.0209 624.627C21.7383 641.584 8.22279 681.14 28.4218 703.715C12.0844 704.458 3.17281 705.943 0.944978 724.508C-0.168937 734.162 2.8015 746.415 19.8815 746.415C29.1643 746.415 33.9913 739.732 33.9913 735.276C33.9913 731.712 30.7733 728.345 29.1643 727.108C28.2979 728.84 25.674 732.306 22.1095 732.306C17.6539 732.306 15.7973 727.479 15.7973 725.994C15.7973 724.508 15.7973 717.454 23.5947 717.454C31.3921 717.454 45.873 718.939 57.3835 723.023C69.6366 727.108 94.1427 726.365 108.995 711.513C123.847 696.66 136.843 675.867 118.649 635.024C114.193 624.627 94.1427 604.206 85.6027 594.552C77.0627 584.898 54.0418 564.105 50.7 552.594C47.3583 541.084 38.4469 515.835 69.2653 500.24C73.7209 498.012 91.1723 501.354 91.1723 521.776C91.1723 528.831 79.6618 533.658 75.5774 525.118C74.3893 522.444 76.5676 519.796 77.8053 518.805C73.4734 518.187 64.8096 519.548 64.8096 529.945C64.8096 542.94 76.6914 544.797 81.8896 544.797C87.0879 544.797 97.1131 542.198 104.168 529.945C111.223 517.691 112.337 493.928 77.8053 484.274C61.8392 480.561 32.8775 496.527 31.0209 532.544C20.9956 502.839 34.3626 485.759 53.2991 470.907C63.3244 463.852 101.198 458.654 116.792 481.675C132.387 504.696 132.016 527.717 109.366 549.995C102.683 556.678 85.6027 558.164 79.6618 558.535C84.4145 563.882 123.071 604.029 141.883 623.584L141.732 701.859C141.548 702.278 141.356 702.666 141.157 703.025C139.605 704.867 137.322 706.636 134.848 706.632C131.837 706.024 129.016 703.03 127.994 700.374C127.657 701.095 127.37 701.8 127.129 702.487C124.196 709.828 126.513 717.7 132.016 720.795C132.405 721.014 132.79 721.214 133.17 721.396C138.533 725.556 143.949 722.863 146.125 720.854L146.125 724.508C146.084 724.526 146.042 724.544 145.999 724.563C141.99 725.782 138.391 730.883 138.391 734.905C138.391 740.543 141.214 746.032 144.229 749.868C145.621 751.859 147.173 753.51 148.725 754.584C148.796 754.541 148.868 754.496 148.942 754.449C149.015 754.496 149.087 754.541 149.159 754.584C150.711 753.51 152.262 751.859 153.654 749.868C156.669 746.032 159.492 740.543 159.492 734.905C159.492 730.884 155.893 725.782 151.884 724.563C151.841 724.544 151.799 724.526 151.758 724.508L151.758 720.854C153.934 722.863 159.35 725.556 164.713 721.396C165.093 721.214 165.478 721.014 165.867 720.795C171.37 717.7 173.687 709.828 170.754 702.487C170.513 701.8 170.226 701.095 169.889 700.374C168.867 703.03 166.046 706.024 163.035 706.632C160.561 706.636 158.278 704.867 156.726 703.025C156.527 702.666 156.335 702.278 156.151 701.859L155.883 623.584C174.696 604.029 213.469 563.882 218.221 558.535C212.28 558.164 195.2 556.678 188.517 549.995C165.867 527.717 165.496 504.696 181.091 481.675C196.686 458.654 234.559 463.852 244.584 470.907C263.52 485.759 276.887 502.839 266.862 532.544C265.006 496.527 236.044 480.561 220.078 484.274C185.546 493.928 186.66 517.691 193.715 529.945C200.77 542.198 210.795 544.797 215.993 544.797C221.192 544.797 233.073 542.94 233.073 529.945C233.073 519.548 224.41 518.187 220.078 518.805C221.315 519.796 223.494 522.444 222.306 525.118C218.221 533.658 206.711 528.831 206.711 521.776C206.711 501.354 224.162 498.012 228.618 500.24C259.436 515.835 250.525 541.084 247.183 552.594C243.841 564.105 220.82 584.898 212.28 594.552C203.74 604.206 183.69 624.627 179.234 635.024C161.04 675.867 174.036 696.66 188.888 711.513C203.74 726.365 228.246 727.108 240.5 723.023C252.01 718.939 266.491 717.454 274.288 717.454C282.086 717.454 282.086 724.508 282.086 725.994C282.086 727.479 280.229 732.306 275.774 732.306C272.209 732.306 269.585 728.84 268.719 727.108C267.11 728.345 263.892 731.712 263.892 735.276C263.892 739.732 268.719 746.415 278.002 746.415C295.082 746.415 298.052 734.162 296.938 724.508C294.71 705.943 285.799 704.458 269.461 703.715C289.66 681.14 276.145 641.584 266.862 624.627C262.778 610.518 274.66 609.032 275.774 609.032C276.888 609.032 282.457 608.29 283.571 614.973C284.685 621.657 278.001 623.142 274.66 622.399C275.402 624.999 276.516 626.855 278.001 627.969C285.799 634.653 301.022 627.226 297.309 609.775C293.596 592.324 275.402 594.18 266.862 598.265C241.985 610.889 252.01 632.425 253.495 639.48C247.183 635.024 230.846 635.024 223.42 636.88C197.428 645.049 204.112 674.011 210.053 681.437C223.791 699.26 241.985 688.863 244.213 681.437C248.668 665.1 237.158 662.748 230.846 663.614C231.836 664.233 233.816 666.213 233.816 669.184C232.702 679.209 212.28 673.64 222.306 657.673C232.331 641.707 261.664 652.104 261.664 677.353C261.664 702.601 227.504 715.226 208.196 705.943C188.888 696.66 185.175 670.298 186.289 662.5C190.002 639.851 211.538 620.172 215.251 617.944C227.504 609.404 236.415 616.459 237.9 621.286C251.564 605.245 240.376 600.74 233.073 600.492C238.396 594.428 250.079 581.259 254.238 577.1C259.436 571.902 276.145 551.48 280.601 538.856C294.71 506.552 276.145 479.818 274.288 477.962C276.145 477.962 279.115 476.105 280.601 474.62C287.655 467.937 286.541 461.996 282.086 457.169C275.402 467.937 265.377 463.11 260.179 460.882C254.98 458.654 242.356 449 222.306 449C179.234 449.371 152.872 485.759 154.357 512.493C156.733 543.386 179.853 562.743 191.116 568.56L148.883 612.584L106.767 568.56C118.03 562.743 141.15 543.386 143.526 512.493C145.011 485.759 118.649 449.371 75.5774 449C55.527 449 42.9026 458.654 37.7043 460.882C32.5061 463.11 22.4808 467.937 15.7973 457.169C11.3417 461.996 10.2278 467.937 17.2826 474.62C18.7678 476.105 21.7382 477.962 23.5947 477.962C21.7382 479.818 3.17297 506.552 17.2826 538.856C21.7382 551.48 38.4469 571.902 43.6452 577.1C47.8038 581.259 59.4876 594.428 64.8096 600.492C57.5073 600.74 46.3186 605.245 59.9826 621.286C61.4679 616.459 70.3792 609.404 82.6322 617.944C86.3453 620.172 107.881 639.851 111.594 662.5C112.708 670.298 108.995 696.66 89.687 705.943C70.3792 715.226 36.2191 702.601 36.2191 677.353C36.2191 652.104 65.5522 641.707 75.5774 657.673C85.6027 673.64 65.1809 679.209 64.067 669.184C64.067 666.213 66.0473 664.233 67.0374 663.614C60.7252 662.748 49.2148 665.1 53.6704 681.437C55.8983 688.863 74.0922 699.26 87.8305 681.437C93.7714 674.011 100.455 645.049 74.4635 636.88C67.0374 635.024 50.7 635.024 44.3878 639.479C45.873 632.425 55.8984 610.889 31.0209 598.265C22.4808 594.18 4.28688 592.324 0.573829 609.775C-3.13922 627.226 12.0843 634.653 19.8817 627.969C21.3667 626.855 22.4806 624.999 23.2232 622.399C19.8817 623.142 13.198 621.657 14.3119 614.973C15.4258 608.29 20.9954 609.032 22.1093 609.032C23.2232 609.032 35.1056 610.518 31.0209 624.627Z"/>
</mask>
<path d="M142.041 701.859L142.541 701.858L142.541 702.012L142.455 702.139L142.041 701.859ZM141.157 703.025L140.72 702.783L140.743 702.74L140.775 702.703L141.157 703.025ZM134.848 706.632L134.849 706.132L134.898 706.132L134.947 706.142L134.848 706.632ZM127.931 700.745L127.489 700.513L127.942 699.647L128.379 700.521L127.931 700.745ZM127.129 702.487L126.657 702.322L126.661 702.311L126.665 702.302L127.129 702.487ZM133.17 721.396L132.954 721.847L132.905 721.824L132.863 721.791L133.17 721.396ZM146.125 720.795L145.848 720.379L146.625 719.861L146.625 720.795L146.125 720.795ZM146.125 720.854L146.465 721.221L145.625 721.996L145.625 720.854L146.125 720.854ZM145.999 724.563L145.797 724.106L145.825 724.093L145.854 724.084L145.999 724.563ZM144.229 749.868L143.836 750.177L143.827 750.166L143.819 750.154L144.229 749.868ZM148.942 754.449L149.212 754.87L148.942 755.044L148.671 754.87L148.942 754.449ZM153.654 749.868L154.064 750.154L154.056 750.166L154.047 750.177L153.654 749.868ZM151.884 724.563L152.029 724.084L152.058 724.093L152.086 724.106L151.884 724.563ZM151.695 724.508L151.563 724.991L151.195 724.89L151.195 724.508L151.695 724.508ZM151.695 720.795L151.195 720.795L151.195 719.635L152.038 720.432L151.695 720.795ZM151.758 720.854L152.258 720.854L152.258 721.996L151.418 721.221L151.758 720.854ZM164.713 721.396L165.02 721.791L164.978 721.824L164.929 721.847L164.713 721.396ZM165.433 720.795L165.1 720.423L165.116 720.408L165.133 720.395L165.433 720.795ZM170.754 702.487L171.218 702.302L171.222 702.312L171.226 702.322L170.754 702.487ZM163.035 706.632L162.936 706.142L162.985 706.132L163.034 706.132L163.035 706.632ZM156.726 703.025L157.108 702.703L157.14 702.74L157.163 702.783L156.726 703.025ZM155.842 701.859L155.428 702.139L155.342 702.012L155.342 701.858L155.842 701.859ZM169.952 700.745L169.504 700.521L169.941 699.648L170.395 700.513L169.952 700.745ZM151.758 720.795L151.258 720.795L151.258 719.861L152.035 720.379L151.758 720.795ZM146.188 724.508L146.688 724.508L146.688 724.89L146.32 724.991L146.188 724.508ZM146.188 720.795L145.845 720.432L146.688 719.635L146.688 720.795L146.188 720.795ZM132.45 720.795L132.75 720.395L132.767 720.408L132.783 720.423L132.45 720.795ZM142.383 623.583L142.541 701.858L141.541 701.86L141.383 623.585L142.383 623.583ZM142.455 702.139C142.187 702.535 141.88 702.943 141.539 703.347L140.775 702.703C141.093 702.325 141.379 701.945 141.627 701.578L142.455 702.139ZM134.847 707.132C132.292 707.128 129.709 705.418 127.484 700.968L128.379 700.521C130.522 704.807 132.834 706.129 134.849 706.132L134.847 707.132ZM128.374 700.977C128.081 701.537 127.821 702.103 127.593 702.673L126.665 702.302C126.905 701.701 127.179 701.104 127.489 700.513L128.374 700.977ZM133.385 720.945C138.621 723.45 142.854 722.375 145.848 720.379L146.403 721.211C143.151 723.379 138.545 724.522 132.954 721.847L133.385 720.945ZM146.625 720.795L146.625 720.854L145.625 720.854L145.625 720.795L146.625 720.795ZM146.202 725.02C143.901 726.039 139.571 729.35 139.571 734.905L138.571 734.905C138.571 728.786 143.319 725.203 145.797 724.106L146.202 725.02ZM139.571 734.905C139.571 739.816 141.745 745.44 144.639 749.582L143.819 750.154C140.84 745.891 138.571 740.071 138.571 734.905L139.571 734.905ZM148.671 754.029C149.946 753.209 151.623 751.643 153.261 749.559L154.047 750.177C152.366 752.316 150.61 753.971 149.212 754.87L148.671 754.029ZM151.738 725.041C151.68 725.023 151.622 725.007 151.563 724.991L151.827 724.026C151.894 724.044 151.962 724.064 152.029 724.084L151.738 725.041ZM151.195 724.508L151.195 720.795L152.195 720.795L152.195 724.508L151.195 724.508ZM152.038 720.432C152.057 720.45 152.077 720.468 152.097 720.487L151.418 721.221C151.396 721.2 151.374 721.18 151.352 721.159L152.038 720.432ZM164.407 721.001C164.638 720.822 164.869 720.629 165.1 720.423L165.767 721.168C165.519 721.39 165.27 721.597 165.02 721.791L164.407 721.001ZM165.133 720.395C167.836 718.369 173.659 712.27 170.282 702.653L171.226 702.322C174.815 712.543 168.587 719.055 165.733 721.195L165.133 720.395ZM163.134 707.122C161.93 707.365 160.68 707.259 159.489 706.645C158.302 706.033 157.214 704.937 156.289 703.267L157.163 702.783C158.018 704.326 158.978 705.256 159.947 705.756C160.912 706.254 161.927 706.346 162.936 706.142L163.134 707.122ZM156.383 623.584L156.342 701.859L155.342 701.858L155.383 623.584L156.383 623.584ZM156.256 701.578C156.505 701.945 156.79 702.325 157.108 702.703L156.344 703.347C156.003 702.943 155.696 702.535 155.428 702.139L156.256 701.578ZM163.034 706.132C165.049 706.129 167.361 704.807 169.504 700.521L170.399 700.968C168.174 705.418 165.591 707.128 163.036 707.132L163.034 706.132ZM170.395 700.513C170.704 701.104 170.978 701.701 171.218 702.302L170.29 702.673C170.062 702.103 169.802 701.537 169.509 700.977L170.395 700.513ZM164.929 721.847C159.338 724.522 154.732 723.379 151.48 721.211L152.035 720.379C155.029 722.375 159.262 723.45 164.498 720.945L164.929 721.847ZM152.258 720.795L152.258 720.854L151.258 720.854L151.258 720.795L152.258 720.795ZM152.086 724.106C154.564 725.203 159.312 728.786 159.312 734.905L158.312 734.905C158.312 729.35 153.982 726.039 151.681 725.02L152.086 724.106ZM159.312 734.905C159.312 740.071 157.043 745.891 154.064 750.154L153.244 749.582C156.138 745.44 158.312 739.816 158.312 734.905L159.312 734.905ZM148.671 754.87C147.273 753.971 145.517 752.316 143.836 750.177L144.622 749.559C146.26 751.643 147.938 753.209 149.212 754.029L148.671 754.87ZM145.854 724.084C145.921 724.064 145.989 724.044 146.056 724.026L146.32 724.991C146.261 725.007 146.203 725.023 146.145 725.041L145.854 724.084ZM145.688 724.508L145.688 720.795L146.688 720.795L146.688 724.508L145.688 724.508ZM146.531 721.159C146.509 721.18 146.487 721.2 146.465 721.221L145.786 720.487C145.806 720.468 145.826 720.45 145.845 720.432L146.531 721.159ZM132.863 721.791C132.614 721.597 132.365 721.39 132.116 721.168L132.783 720.423C133.014 720.629 133.245 720.822 133.476 721.001L132.863 721.791ZM132.15 721.195C129.296 719.055 123.068 712.543 126.657 702.322L127.601 702.653C124.224 712.27 130.047 718.369 132.75 720.395L132.15 721.195ZM134.947 706.142C135.956 706.346 136.971 706.254 137.936 705.756C138.905 705.256 139.865 704.326 140.72 702.783L141.594 703.267C140.669 704.937 139.581 706.033 138.394 706.645C137.203 707.259 135.953 707.365 134.749 707.122L134.947 706.142ZM31.0209 624.627L31.9815 624.905L31.9509 625.011L31.8981 625.108L31.0209 624.627ZM28.4218 703.715L29.167 703.048L30.5718 704.619L28.4672 704.714L28.4218 703.715ZM0.944978 724.508L-0.0484408 724.394L-0.0478984 724.389L0.944978 724.508ZM29.1643 727.108L28.2699 726.66L28.8124 725.575L29.774 726.315L29.1643 727.108ZM57.3835 723.023L57.0673 723.972L57.0581 723.969L57.0491 723.966L57.3835 723.023ZM118.649 635.024L117.735 635.431L117.732 635.424L117.73 635.418L118.649 635.024ZM69.2653 500.24L68.8137 499.348L68.8181 499.346L69.2653 500.24ZM75.5774 525.118L74.6753 525.549L74.6693 525.536L74.6636 525.524L75.5774 525.118ZM77.8053 518.805L77.9467 517.815L80.2349 518.142L78.43 519.586L77.8053 518.805ZM77.8053 484.274L78.0318 483.3L78.0533 483.305L78.0745 483.311L77.8053 484.274ZM31.0209 532.544L32.0196 532.595L30.0734 532.863L31.0209 532.544ZM53.2991 470.907L52.682 470.12L52.7024 470.104L52.7237 470.089L53.2991 470.907ZM116.792 481.675L117.62 481.114L116.792 481.675ZM109.366 549.995L108.659 549.288L108.665 549.282L109.366 549.995ZM79.6618 558.535L78.9144 559.199L77.5505 557.665L79.5994 557.537L79.6618 558.535ZM141.883 623.584L142.604 622.891L142.884 623.182L142.883 623.586L141.883 623.584ZM141.157 703.025L142.032 703.51L141.985 703.595L141.922 703.669L141.157 703.025ZM134.848 706.632L134.846 707.632L134.747 707.632L134.65 707.612L134.848 706.632ZM127.129 702.487L128.073 702.818L128.066 702.838L128.058 702.858L127.129 702.487ZM132.016 720.795L132.506 719.924L132.506 719.924L132.016 720.795ZM133.17 721.396L133.601 720.494L133.698 720.54L133.782 720.606L133.17 721.396ZM146.125 720.854L145.447 720.119L147.125 718.569L147.125 720.854L146.125 720.854ZM146.125 724.508L147.125 724.508L147.125 725.172L146.513 725.43L146.125 724.508ZM145.999 724.563L146.404 725.477L146.349 725.502L146.29 725.519L145.999 724.563ZM144.229 749.868L145.015 749.25L145.033 749.272L145.049 749.295L144.229 749.868ZM148.725 754.584L149.239 755.442L148.686 755.773L148.155 755.406L148.725 754.584ZM148.942 754.449L148.401 753.608L148.942 753.26L149.482 753.608L148.942 754.449ZM153.654 749.868L152.834 749.295L152.85 749.272L152.868 749.25L153.654 749.868ZM151.884 724.563L151.593 725.519L151.535 725.502L151.479 725.477L151.884 724.563ZM151.758 720.854L150.758 720.854L150.758 718.569L152.436 720.119L151.758 720.854ZM164.713 721.396L164.101 720.606L164.185 720.54L164.282 720.494L164.713 721.396ZM170.754 702.487L169.825 702.858L169.817 702.839L169.81 702.818L170.754 702.487ZM169.889 700.374L168.956 700.015L169.8 697.819L170.795 699.951L169.889 700.374ZM163.035 706.632L163.233 707.612L163.136 707.632L163.037 707.632L163.035 706.632ZM156.726 703.025L155.961 703.669L155.899 703.595L155.851 703.51L156.726 703.025ZM156.151 701.859L155.235 702.261L155.151 702.071L155.151 701.862L156.151 701.859ZM155.883 623.584L154.883 623.587L154.882 623.183L155.163 622.891L155.883 623.584ZM148.883 612.584L149.605 613.276L148.882 614.03L148.161 613.275L148.883 612.584ZM106.767 568.56L106.044 569.252L105.12 568.285L106.308 567.672L106.767 568.56ZM143.526 512.493L144.525 512.549L144.524 512.559L144.523 512.57L143.526 512.493ZM75.5774 449L75.5774 448L75.5861 448L75.5774 449ZM15.7973 457.169L15.0625 456.49L15.9539 455.525L16.647 456.641L15.7973 457.169ZM17.2826 474.62L17.9703 473.894L17.9801 473.903L17.9897 473.913L17.2826 474.62ZM23.5947 477.962L23.5947 476.962L26.009 476.962L24.3019 478.669L23.5947 477.962ZM17.2826 538.856L18.199 538.456L18.2135 538.489L18.2255 538.523L17.2826 538.856ZM43.6452 577.1L42.9381 577.807L43.6452 577.1ZM64.8096 600.492L65.5612 599.833L66.9543 601.42L64.8435 601.492L64.8096 600.492ZM59.9826 621.286L60.9384 621.58L60.4027 623.321L59.2214 621.934L59.9826 621.286ZM82.6322 617.944L82.1177 618.801L82.0885 618.784L82.0604 618.764L82.6322 617.944ZM111.594 662.5L112.581 662.339L112.583 662.349L112.584 662.359L111.594 662.5ZM89.687 705.943L89.2537 705.042L89.687 705.943ZM64.067 669.184L63.0731 669.294L63.067 669.239L63.067 669.184L64.067 669.184ZM67.0374 663.614L67.1734 662.624L69.9087 662.999L67.5674 664.462L67.0374 663.614ZM53.6704 681.437L52.7126 681.724L52.709 681.712L52.7057 681.7L53.6704 681.437ZM87.8305 681.437L87.0385 680.826L87.044 680.819L87.0496 680.812L87.8305 681.437ZM74.4635 636.88L74.7061 635.91L74.7349 635.917L74.7634 635.926L74.4635 636.88ZM44.3878 639.479L44.9645 640.296L42.8849 641.764L43.4093 639.273L44.3878 639.479ZM31.0209 598.265L31.4524 597.363L31.463 597.368L31.4735 597.373L31.0209 598.265ZM0.573829 609.775L1.55194 609.983L0.573829 609.775ZM19.8817 627.969L19.2309 627.21L19.2556 627.189L19.2816 627.169L19.8817 627.969ZM23.2232 622.399L23.0063 621.423L24.6463 621.059L24.1848 622.674L23.2232 622.399ZM266.862 624.627L265.985 625.108L265.932 625.011L265.902 624.905L266.862 624.627ZM269.461 703.715L269.416 704.714L267.311 704.619L268.716 703.049L269.461 703.715ZM296.938 724.508L297.931 724.389L297.931 724.394L296.938 724.508ZM268.719 727.108L268.109 726.315L269.071 725.575L269.613 726.66L268.719 727.108ZM240.5 723.023L240.834 723.966L240.825 723.969L240.816 723.972L240.5 723.023ZM179.234 635.024L180.153 635.418L180.151 635.424L180.148 635.431L179.234 635.024ZM228.618 500.24L229.065 499.346L229.069 499.348L228.618 500.24ZM222.306 525.118L223.219 525.524L223.214 525.536L223.208 525.549L222.306 525.118ZM220.078 518.805L219.453 519.586L217.648 518.142L219.936 517.815L220.078 518.805ZM220.078 484.274L219.809 483.311L219.83 483.305L219.851 483.3L220.078 484.274ZM266.862 532.544L267.81 532.863L265.863 532.595L266.862 532.544ZM244.584 470.907L245.159 470.089L245.181 470.104L245.201 470.12L244.584 470.907ZM188.517 549.995L189.218 549.282L189.224 549.288L188.517 549.995ZM218.221 558.535L218.284 557.537L220.333 557.665L218.969 559.199L218.221 558.535ZM165.867 720.795L165.377 719.924L165.377 719.924L165.867 720.795ZM151.758 724.508L151.37 725.43L150.758 725.173L150.758 724.508L151.758 724.508ZM149.159 754.584L149.728 755.406L149.197 755.773L148.644 755.442L149.159 754.584ZM127.994 700.374L127.088 699.951L128.083 697.819L128.927 700.015L127.994 700.374ZM141.732 701.859L142.732 701.861L142.732 702.07L142.648 702.261L141.732 701.859ZM191.116 568.56L191.575 567.672L192.765 568.286L191.838 569.253L191.116 568.56ZM154.357 512.493L153.36 512.57L153.359 512.559L153.358 512.549L154.357 512.493ZM222.306 449L222.297 448L222.306 448L222.306 449ZM282.086 457.169L281.236 456.641L281.929 455.525L282.821 456.49L282.086 457.169ZM280.601 474.62L279.893 473.913L279.903 473.903L279.913 473.894L280.601 474.62ZM274.288 477.962L273.581 478.669L271.874 476.962L274.288 476.962L274.288 477.962ZM280.601 538.856L279.658 538.523L279.67 538.489L279.684 538.456L280.601 538.856ZM233.073 600.492L233.04 601.492L230.929 601.42L232.322 599.833L233.073 600.492ZM237.9 621.286L238.662 621.934L237.48 623.321L236.945 621.58L237.9 621.286ZM215.251 617.944L215.823 618.764L215.795 618.784L215.765 618.801L215.251 617.944ZM186.289 662.5L185.299 662.359L185.301 662.349L185.302 662.339L186.289 662.5ZM233.816 669.184L234.816 669.184L234.816 669.239L234.81 669.294L233.816 669.184ZM230.846 663.614L230.316 664.462L227.974 662.999L230.71 662.624L230.846 663.614ZM244.213 681.437L245.177 681.7L245.174 681.712L245.17 681.724L244.213 681.437ZM210.053 681.437L210.833 680.812L210.839 680.819L210.845 680.826L210.053 681.437ZM223.42 636.88L223.12 635.926L223.148 635.917L223.177 635.91L223.42 636.88ZM253.495 639.48L254.474 639.273L254.998 641.764L252.919 640.296L253.495 639.48ZM266.862 598.265L266.41 597.373L266.42 597.368L266.431 597.363L266.862 598.265ZM278.001 627.969L278.601 627.169L278.627 627.189L278.652 627.21L278.001 627.969ZM274.66 622.399L273.698 622.674L273.237 621.059L274.877 621.423L274.66 622.399ZM31.8981 625.108C27.3026 633.502 21.6513 647.513 19.6566 662.199C17.6598 676.9 19.3501 692.077 29.167 703.048L27.6765 704.382C17.2944 692.779 15.643 676.889 17.6748 661.93C19.7089 646.954 25.4566 632.709 30.1438 624.147L31.8981 625.108ZM28.4672 704.714C20.2428 705.088 14.2049 705.654 9.91443 708.281C5.73993 710.837 3.03479 715.486 1.93786 724.628L-0.0478984 724.389C1.083 714.965 3.94755 709.589 8.87013 706.575C13.6767 703.633 20.2633 703.085 28.3764 702.716L28.4672 704.714ZM1.93839 724.623C1.39466 729.335 1.86895 734.545 4.4323 738.542C6.95045 742.469 11.6089 745.415 19.8815 745.415L19.8815 747.415C11.0741 747.415 5.70735 744.235 2.74875 739.622C-0.164644 735.079 -0.618619 729.335 -0.0484305 724.394L1.93839 724.623ZM19.8815 745.415C28.67 745.415 32.9913 739.123 32.9913 735.276L34.9913 735.276C34.9913 740.34 29.6586 747.415 19.8815 747.415L19.8815 745.415ZM32.9913 735.276C32.9913 733.783 32.3098 732.252 31.3609 730.891C30.4192 729.541 29.2859 728.463 28.5546 727.9L29.774 726.315C30.6517 726.99 31.9319 728.214 33.0014 729.747C34.0637 731.271 34.9913 733.205 34.9913 735.276L32.9913 735.276ZM30.0587 727.555C29.5766 728.519 28.6311 729.924 27.3157 731.102C26.0015 732.278 24.2265 733.306 22.1095 733.306L22.1095 731.306C23.557 731.306 24.8763 730.601 25.9818 729.611C27.086 728.623 27.8856 727.429 28.2699 726.66L30.0587 727.555ZM22.1095 733.306C19.4695 733.306 17.6224 731.861 16.4761 730.298C15.904 729.518 15.4907 728.69 15.2187 727.952C14.9534 727.232 14.7973 726.528 14.7973 725.994L16.7973 725.994C16.7973 726.202 16.8733 726.658 17.0954 727.261C17.3107 727.845 17.64 728.503 18.089 729.115C18.9849 730.337 20.2938 731.306 22.1095 731.306L22.1095 733.306ZM14.7973 725.994C14.7973 725.248 14.7879 722.899 15.8776 720.719C16.4316 719.611 17.2773 718.53 18.5573 717.731C19.838 716.931 21.4905 716.454 23.5947 716.454L23.5947 718.454C21.8003 718.454 20.5287 718.858 19.6165 719.427C18.7034 719.997 18.0871 720.773 17.6664 721.614C16.8068 723.333 16.7973 725.254 16.7973 725.994L14.7973 725.994ZM23.5947 716.454C31.4692 716.454 46.0701 717.948 57.7179 722.081L57.0491 723.966C45.676 719.93 31.315 718.454 23.5947 718.454L23.5947 716.454ZM57.6997 722.074C63.6519 724.059 72.6762 724.892 82.0556 723.382C91.4267 721.873 101.051 718.043 108.288 710.806L109.702 712.22C102.087 719.835 92.0317 723.802 82.3734 725.356C72.7235 726.91 63.3682 726.072 57.0673 723.972L57.6997 722.074ZM108.288 710.806C115.655 703.438 122.47 694.687 125.24 682.788C128.009 670.896 126.77 655.713 117.735 635.431L119.562 634.617C128.721 655.178 130.082 670.813 127.188 683.242C124.296 695.664 117.187 704.735 109.702 712.22L108.288 710.806ZM117.73 635.418C116.664 632.932 114.635 629.783 112.006 626.271C109.387 622.772 106.215 618.964 102.904 615.166C99.5939 611.371 96.1548 607.596 93.0054 604.162C89.8608 600.734 86.9965 597.637 84.8537 595.214L86.3517 593.889C88.4788 596.294 91.3234 599.369 94.4793 602.81C97.6305 606.246 101.084 610.036 104.411 613.852C107.737 617.667 110.946 621.517 113.607 625.072C116.258 628.615 118.406 631.918 119.568 634.63L117.73 635.418ZM84.8537 595.214C82.7392 592.824 79.7197 589.735 76.3015 586.241C72.8919 582.756 69.0989 578.882 65.4672 574.947C61.8369 571.015 58.3519 567.005 55.5596 563.245C52.7823 559.505 50.6269 555.929 49.7397 552.873L51.6604 552.315C52.444 555.015 54.4194 558.354 57.1653 562.052C59.8961 565.73 63.3266 569.68 66.9368 573.591C70.5455 577.5 74.3179 581.354 77.731 584.842C81.1355 588.322 84.1962 591.452 86.3517 593.889L84.8537 595.214ZM49.7397 552.873C48.0854 547.175 44.943 537.771 46.1803 527.825C47.431 517.772 53.1289 507.285 68.8138 499.348L69.7168 501.132C54.5833 508.79 49.3277 518.725 48.165 528.072C46.9887 537.527 49.9728 546.503 51.6604 552.315L49.7397 552.873ZM68.8181 499.346C70.1922 498.659 72.354 498.471 74.7076 498.803C77.1015 499.141 79.8367 500.034 82.4239 501.669C87.643 504.968 92.1723 511.233 92.1723 521.776L90.1723 521.776C90.1723 511.897 85.9759 506.28 81.3553 503.36C79.0228 501.885 76.5597 501.084 74.4283 500.784C72.2566 500.477 70.5662 500.708 69.7125 501.135L68.8181 499.346ZM92.1723 521.776C92.1723 525.867 88.8753 529.143 85.195 530.252C83.3247 530.816 81.2712 530.854 79.3771 530.123C77.4671 529.386 75.7976 527.896 74.6753 525.549L76.4796 524.686C77.3995 526.61 78.7005 527.718 80.0973 528.257C81.5102 528.803 83.1001 528.795 84.6179 528.337C87.714 527.404 90.1723 524.74 90.1723 521.776L92.1723 521.776ZM74.6636 525.524C73.9111 523.831 74.2505 522.178 74.8843 520.889C75.5119 519.613 76.4703 518.593 77.1806 518.025L78.43 519.586C77.9026 520.008 77.153 520.808 76.6791 521.772C76.2113 522.723 76.0556 523.731 76.4913 524.711L74.6636 525.524ZM77.6639 519.795C75.6465 519.507 72.6409 519.692 70.1828 521.11C67.8053 522.482 65.8096 525.079 65.8096 529.945L63.8096 529.945C63.8096 524.413 66.1458 521.131 69.1831 519.378C72.1399 517.672 75.6322 517.485 77.9467 517.815L77.6639 519.795ZM65.8096 529.945C65.8096 536.063 68.5697 539.457 71.9 541.378C75.3046 543.342 79.3739 543.797 81.8896 543.797L81.8896 545.797C79.2071 545.797 74.7364 545.323 70.9005 543.11C66.9904 540.854 63.8096 536.822 63.8096 529.945L65.8096 529.945ZM81.8896 543.797C86.7758 543.797 96.4466 541.351 103.301 529.446L105.035 530.443C97.7796 543.044 87.4 545.797 81.8896 545.797L81.8896 543.797ZM103.301 529.446C106.719 523.51 108.674 514.815 105.642 506.476C102.627 498.185 94.5896 490.005 77.536 485.237L78.0745 483.311C95.5524 488.197 104.224 496.726 107.521 505.793C110.801 514.812 108.672 524.126 105.035 530.443L103.301 529.446ZM77.5788 485.248C69.9877 483.483 59.07 486.385 49.7688 494.273C40.5099 502.125 32.9336 514.864 32.0196 532.595L30.0223 532.492C30.9648 514.207 38.7977 500.954 48.4753 492.748C58.1106 484.576 69.6567 481.352 78.0318 483.3L77.5788 485.248ZM30.0734 532.863C24.9924 517.809 25.813 505.847 30.3884 495.743C34.9444 485.682 43.1736 477.578 52.682 470.12L53.9163 471.694C44.4881 479.089 36.5656 486.95 32.2103 496.568C27.8743 506.144 27.0241 517.574 31.9684 532.224L30.0734 532.863ZM52.7237 470.089C55.387 468.215 59.7825 466.531 65.046 465.398C70.3328 464.261 76.5834 463.661 83.012 464.014C95.8412 464.719 109.576 469.24 117.62 481.114L115.964 482.236C108.413 471.089 95.4147 466.699 82.9023 466.011C76.6601 465.668 70.588 466.252 65.4667 467.354C60.322 468.461 56.2239 470.072 53.8746 471.725L52.7237 470.089ZM117.62 481.114C125.504 492.752 129.417 504.488 128.417 516.198C127.417 527.914 121.514 539.449 110.067 550.708L108.665 549.282C119.868 538.262 125.475 527.148 126.425 516.028C127.374 504.904 123.675 493.618 115.964 482.236L117.62 481.114ZM110.073 550.702C106.509 554.266 100.309 556.353 94.4451 557.61C88.5251 558.878 82.7124 559.346 79.7242 559.533L79.5994 557.537C82.5521 557.352 88.2499 556.892 94.026 555.654C99.8581 554.405 105.54 552.407 108.659 549.288L110.073 550.702ZM80.4092 557.871C85.1445 563.198 123.776 603.319 142.604 622.891L141.163 624.277C122.365 604.738 83.6845 564.566 78.9144 559.199L80.4092 557.871ZM141.922 703.669C140.313 705.579 137.774 707.636 134.846 707.632L134.849 705.632C136.87 705.635 138.897 704.155 140.392 702.381L141.922 703.669ZM128.058 702.858C125.263 709.854 127.545 717.133 132.506 719.924L131.526 721.667C125.482 718.267 123.13 709.801 126.2 702.116L128.058 702.858ZM132.506 719.924C132.877 720.132 133.242 720.322 133.601 720.494L132.738 722.298C132.338 722.107 131.934 721.896 131.526 721.667L132.506 719.924ZM147.125 720.854L147.125 724.508L145.125 724.508L145.125 720.854L147.125 720.854ZM146.513 725.43C146.478 725.445 146.442 725.461 146.404 725.477L145.595 723.648C145.643 723.627 145.69 723.607 145.737 723.587L146.513 725.43ZM145.049 749.295C146.396 751.223 147.868 752.775 149.294 753.762L148.155 755.406C146.477 754.244 144.846 752.496 143.409 750.441L145.049 749.295ZM148.21 753.726C148.272 753.69 148.335 753.65 148.401 753.608L149.482 755.29C149.401 755.343 149.32 755.393 149.239 755.442L148.21 753.726ZM152.868 749.25C155.809 745.508 158.492 740.233 158.492 734.905L160.492 734.905C160.492 740.853 157.529 746.556 154.44 750.486L152.868 749.25ZM158.492 734.905C158.492 733.165 157.7 731.086 156.382 729.271C155.065 727.455 153.327 726.047 151.593 725.519L152.175 723.606C154.45 724.298 156.516 726.05 158.001 728.096C159.485 730.141 160.492 732.623 160.492 734.905L158.492 734.905ZM152.436 720.119C153.407 721.016 155.136 722.088 157.214 722.453C159.253 722.813 161.658 722.5 164.101 720.606L165.326 722.186C162.405 724.452 159.42 724.873 156.867 724.423C154.352 723.98 152.284 722.701 151.079 721.589L152.436 720.119ZM169.81 702.818C169.58 702.163 169.306 701.489 168.983 700.796L170.795 699.951C171.145 700.701 171.445 701.436 171.698 702.156L169.81 702.818ZM170.822 700.733C170.252 702.215 169.201 703.748 167.899 704.993C166.6 706.236 164.979 707.259 163.233 707.612L162.837 705.652C164.102 705.396 165.397 704.619 166.517 703.548C167.634 702.48 168.504 701.188 168.956 700.015L170.822 700.733ZM155.851 703.51C155.637 703.122 155.431 702.707 155.235 702.261L157.066 701.456C157.239 701.85 157.418 702.21 157.601 702.54L155.851 703.51ZM155.151 701.862L154.883 623.587L156.883 623.581L157.151 701.855L155.151 701.862ZM148.161 613.275L106.044 569.252L107.49 567.869L149.606 611.893L148.161 613.275ZM106.308 567.672C117.388 561.949 140.189 542.843 142.529 512.416L144.523 512.57C142.111 543.928 118.672 563.537 107.226 569.449L106.308 567.672ZM142.528 512.438C143.981 486.28 118.076 450.366 75.5688 450L75.5861 448C119.222 448.376 146.042 485.238 144.525 512.549L142.528 512.438ZM75.5774 450C55.8006 450 43.5437 459.467 38.0983 461.801L37.3104 459.963C42.2615 457.841 55.2533 448 75.5774 448L75.5774 450ZM38.0983 461.801C35.5524 462.892 31.5599 464.751 27.3427 464.898C25.2078 464.972 22.9872 464.613 20.845 463.491C18.7019 462.368 16.6975 460.515 14.9477 457.696L16.647 456.641C18.2389 459.206 19.994 460.787 21.7728 461.719C23.5525 462.651 25.4163 462.964 27.2729 462.899C31.0388 462.768 34.658 461.099 37.3104 459.963L38.0983 461.801ZM16.5321 457.847C14.4056 460.151 13.1825 462.606 13.2234 465.182C13.2642 467.75 14.564 470.667 17.9703 473.894L16.5948 475.346C12.9463 471.89 11.2757 468.495 11.2237 465.214C11.1717 461.943 12.7334 459.014 15.0625 456.49L16.5321 457.847ZM17.9897 473.913C18.6583 474.582 19.6958 475.364 20.788 475.975C21.9129 476.605 22.9326 476.962 23.5947 476.962L23.5947 478.962C22.4004 478.962 21.0066 478.39 19.8108 477.72C18.5824 477.032 17.392 476.144 16.5755 475.327L17.9897 473.913ZM24.3019 478.669C23.9429 479.028 22.4898 480.943 20.7194 484.195C18.968 487.413 16.945 491.869 15.4133 497.264C12.3518 508.048 11.257 522.562 18.199 538.456L16.3662 539.256C9.19857 522.846 10.3316 507.841 13.4894 496.718C15.0674 491.16 17.152 486.566 18.9628 483.239C20.7546 479.947 22.3184 477.824 22.8876 477.255L24.3019 478.669ZM18.2255 538.523C20.4002 544.685 25.6122 552.844 30.9915 560.171C36.3584 567.481 41.8018 573.843 44.3523 576.393L42.9381 577.807C40.2903 575.16 34.7802 568.711 29.3793 561.355C23.9908 554.015 18.6205 545.651 16.3396 539.189L18.2255 538.523ZM44.3523 576.393C48.5397 580.58 60.2491 593.78 65.5612 599.833L64.058 601.152C58.726 595.076 47.068 581.937 42.9381 577.807L44.3523 576.393ZM64.8435 601.492C63.1017 601.551 61.1461 601.864 59.4085 602.525C57.6641 603.188 56.2236 604.167 55.3786 605.502C53.7662 608.049 53.9468 612.658 60.7439 620.637L59.2214 621.934C52.3544 613.873 51.2973 608.209 53.6888 604.432C54.8458 602.604 56.7176 601.408 58.6979 600.655C60.685 599.9 62.8663 599.558 64.7757 599.493L64.8435 601.492ZM59.0269 620.991C59.8742 618.238 62.7352 615.043 66.9566 613.652C71.2453 612.24 76.8606 612.702 83.204 617.123L82.0604 618.764C76.1508 614.645 71.184 614.365 67.5824 615.552C63.9135 616.76 61.5763 619.507 60.9384 621.58L59.0269 620.991ZM83.1467 617.086C84.1797 617.706 86.2909 619.423 88.8968 621.942C91.5254 624.482 94.7125 627.892 97.8993 631.946C104.259 640.036 110.685 650.776 112.581 662.339L110.607 662.662C108.79 651.576 102.592 641.151 96.327 633.182C93.2016 629.206 90.0765 625.863 87.5069 623.38C84.9145 620.874 82.9413 619.295 82.1177 618.801L83.1467 617.086ZM112.584 662.359C113.169 666.456 112.483 675.165 109.237 684.009C105.985 692.87 100.096 702.048 90.1203 706.844L89.2537 705.042C98.586 700.555 104.207 691.911 107.36 683.32C110.519 674.713 111.133 666.342 110.604 662.642L112.584 662.359ZM90.1203 706.844C80.1319 711.646 66.4421 710.749 55.287 705.502C44.1149 700.247 35.2191 690.492 35.2191 677.353L37.2191 677.353C37.2191 689.462 45.4033 698.643 56.1382 703.692C66.8902 708.749 79.9343 709.522 89.2537 705.042L90.1203 706.844ZM35.2191 677.353C35.2191 664.303 42.814 655.049 51.7377 651.141C60.6234 647.251 71.0676 648.611 76.4243 657.142L74.7305 658.205C70.062 650.77 60.8271 649.345 52.5399 652.973C44.2907 656.585 37.2191 665.154 37.2191 677.353L35.2191 677.353ZM76.4243 657.142C79.0226 661.28 79.732 664.881 79.1456 667.814C78.5578 670.752 76.6972 672.866 74.471 674.057C72.2648 675.237 69.6366 675.545 67.429 674.809C65.1656 674.054 63.3971 672.21 63.0731 669.294L65.0609 669.073C65.2939 671.17 66.4957 672.389 68.0615 672.911C69.683 673.452 71.7425 673.249 73.5277 672.294C75.2931 671.349 76.7279 669.704 77.1844 667.421C77.6422 665.132 77.1449 662.05 74.7305 658.205L76.4243 657.142ZM63.067 669.184C63.067 665.763 65.3273 663.504 66.5074 662.766L67.5674 664.462C66.7673 664.962 65.067 666.664 65.067 669.184L63.067 669.184ZM66.9014 664.605C63.8798 664.19 59.7516 664.576 56.9459 666.851C54.2527 669.035 52.469 673.231 54.6352 681.174L52.7057 681.7C50.4162 673.305 52.1599 668.157 55.6861 665.298C59.0997 662.529 63.8829 662.172 67.1734 662.624L66.9014 664.605ZM54.6283 681.15C55.1055 682.74 56.4948 684.623 58.6305 686.287C60.7479 687.937 63.518 689.307 66.6288 689.924C72.7869 691.147 80.3927 689.448 87.0385 680.826L88.6225 682.047C81.53 691.249 73.1697 693.262 66.2393 691.886C62.8059 691.204 59.7511 689.696 57.4012 687.865C55.0697 686.048 53.3493 683.847 52.7126 681.724L54.6283 681.15ZM87.0496 680.812C88.4201 679.099 89.9035 676.038 90.9382 672.229C91.9683 668.437 92.531 663.985 92.1257 659.528C91.7207 655.073 90.3525 650.64 87.5479 646.838C84.7496 643.044 80.4786 639.819 74.1637 637.834L74.7634 635.926C81.4441 638.026 86.0844 641.484 89.1574 645.651C92.224 649.808 93.687 654.612 94.1175 659.347C94.5477 664.079 93.95 668.771 92.8683 672.753C91.7912 676.718 90.2114 680.062 88.6114 682.062L87.0496 680.812ZM74.221 637.85C70.6333 636.954 64.7986 636.49 59.0639 636.811C56.2044 636.971 53.399 637.325 50.9352 637.906C48.4578 638.49 46.3935 639.288 44.9645 640.296L43.8111 638.663C45.5382 637.443 47.8832 636.57 50.4764 635.959C53.0833 635.345 56.0099 634.979 58.952 634.814C64.8206 634.486 70.8676 634.951 74.7061 635.91L74.221 637.85ZM43.4093 639.273C43.604 638.349 43.9354 637.2 44.2986 635.926C44.6663 634.638 45.0769 633.188 45.4512 631.608C46.2 628.447 46.7936 624.803 46.5918 621.014C46.3905 617.234 45.3983 613.315 42.9749 609.583C40.551 605.85 36.6583 602.247 30.5684 599.156L31.4735 597.373C37.8223 600.595 42.0055 604.418 44.6523 608.494C47.2995 612.57 48.3726 616.843 48.589 620.907C48.8049 624.962 48.1685 628.814 47.3973 632.069C47.0115 633.698 46.5896 635.186 46.2219 636.475C45.8498 637.779 45.543 638.847 45.3664 639.686L43.4093 639.273ZM30.5895 599.167C26.4688 597.196 20.0058 595.769 14.1819 596.925C11.2872 597.499 8.57996 598.705 6.38104 600.769C4.18687 602.828 2.44328 605.794 1.55194 609.983L-0.404277 609.567C0.560903 605.031 2.48395 601.684 5.01232 599.311C7.53594 596.942 10.6072 595.595 13.7926 594.963C20.1289 593.706 27.0329 595.249 31.4524 597.363L30.5895 599.167ZM1.55194 609.983C-0.235425 618.384 2.54991 624.183 6.50718 627.12C10.5149 630.093 15.7455 630.197 19.2309 627.21L20.5325 628.728C16.2204 632.424 9.94063 632.157 5.31549 628.726C0.63992 625.257 -2.32997 618.618 -0.404277 609.567L1.55194 609.983ZM19.2816 627.169C20.5285 626.234 21.5527 624.606 22.2617 622.125L24.1848 622.674C23.4085 625.391 22.205 627.476 20.4817 628.769L19.2816 627.169ZM23.4402 623.376C21.558 623.794 18.7924 623.592 16.6006 622.339C15.4856 621.702 14.492 620.777 13.8662 619.497C13.2384 618.214 13.0184 616.651 13.3255 614.809L15.2983 615.138C15.0484 616.637 15.2462 617.767 15.6628 618.618C16.0812 619.474 16.7585 620.126 17.5929 620.603C19.2999 621.578 21.5469 621.748 23.0063 621.423L23.4402 623.376ZM13.3255 614.809C13.9385 611.131 15.8374 609.347 17.8482 608.565C19.7436 607.827 21.6779 608.032 22.1093 608.032L22.1093 610.032C21.4268 610.032 20.0194 609.866 18.5731 610.429C17.2421 610.946 15.7992 612.132 15.2983 615.138L13.3255 614.809ZM22.1093 608.032C22.5034 608.032 23.5523 608.145 24.8317 608.527C26.1238 608.912 27.7175 609.59 29.1493 610.766C30.5924 611.951 31.8592 613.634 32.4756 615.984C33.0893 618.324 33.0393 621.251 31.9815 624.905L30.0604 624.349C31.0449 620.948 31.0413 618.399 30.5411 616.492C30.0435 614.595 29.036 613.261 27.8799 612.312C26.7124 611.353 25.382 610.778 24.2604 610.443C23.1264 610.105 22.2722 610.032 22.1093 610.032L22.1093 608.032ZM267.739 624.147C272.426 632.709 278.174 646.954 280.208 661.93C282.24 676.889 280.589 692.779 270.207 704.382L268.716 703.049C278.533 692.077 280.223 676.9 278.226 662.199C276.232 647.513 270.58 633.502 265.985 625.108L267.739 624.147ZM269.507 702.716C277.62 703.085 284.206 703.633 289.013 706.575C293.936 709.589 296.8 714.965 297.931 724.389L295.945 724.628C294.848 715.486 292.143 710.837 287.969 708.281C283.678 705.654 277.64 705.088 269.416 704.714L269.507 702.716ZM297.931 724.394C298.502 729.335 298.048 735.079 295.134 739.622C292.176 744.235 286.809 747.415 278.002 747.415L278.002 745.415C286.274 745.415 290.933 742.469 293.451 738.542C296.014 734.545 296.488 729.335 295.945 724.623L297.931 724.394ZM278.002 747.415C268.224 747.415 262.892 740.34 262.892 735.276L264.892 735.276C264.892 739.123 269.213 745.415 278.002 745.415L278.002 747.415ZM262.892 735.276C262.892 733.205 263.819 731.271 264.882 729.747C265.951 728.214 267.231 726.99 268.109 726.315L269.328 727.9C268.597 728.463 267.464 729.541 266.522 730.891C265.573 732.252 264.892 733.783 264.892 735.276L262.892 735.276ZM269.613 726.66C269.997 727.429 270.797 728.623 271.901 729.611C273.007 730.601 274.326 731.306 275.774 731.306L275.774 733.306C273.657 733.306 271.882 732.278 270.567 731.102C269.252 729.924 268.306 728.519 267.824 727.555L269.613 726.66ZM275.774 731.306C277.589 731.306 278.898 730.337 279.794 729.115C280.243 728.503 280.572 727.845 280.788 727.261C281.01 726.658 281.086 726.202 281.086 725.994L283.086 725.994C283.086 726.528 282.93 727.232 282.664 727.952C282.392 728.691 281.979 729.518 281.407 730.298C280.261 731.861 278.414 733.306 275.774 733.306L275.774 731.306ZM281.086 725.994C281.086 725.254 281.076 723.333 280.217 721.614C279.796 720.773 279.18 719.997 278.267 719.427C277.354 718.858 276.083 718.454 274.288 718.454L274.288 716.454C276.393 716.454 278.045 716.931 279.326 717.731C280.606 718.53 281.451 719.611 282.005 720.719C283.095 722.899 283.086 725.248 283.086 725.994L281.086 725.994ZM274.288 718.454C266.568 718.454 252.207 719.93 240.834 723.966L240.165 722.081C251.813 717.948 266.414 716.454 274.288 716.454L274.288 718.454ZM240.816 723.972C234.515 726.072 225.16 726.91 215.51 725.356C205.851 723.802 195.796 719.835 188.181 712.22L189.595 710.806C196.833 718.043 206.456 721.873 215.827 723.382C225.207 724.892 234.231 724.059 240.183 722.075L240.816 723.972ZM188.181 712.22C180.696 704.735 173.587 695.664 170.695 683.242C167.801 670.813 169.162 655.178 178.321 634.617L180.148 635.431C171.113 655.713 169.874 670.896 172.643 682.788C175.413 694.687 182.228 703.438 189.595 710.806L188.181 712.22ZM178.315 634.63C179.477 631.918 181.625 628.615 184.276 625.072C186.937 621.517 190.146 617.667 193.472 613.852C196.799 610.036 200.253 606.246 203.404 602.81C206.56 599.37 209.404 596.294 211.531 593.889L213.029 595.214C210.887 597.637 208.022 600.734 204.878 604.162C201.728 607.596 198.289 611.371 194.979 615.166C191.668 618.964 188.496 622.772 185.877 626.271C183.248 629.783 181.219 632.932 180.153 635.418L178.315 634.63ZM211.531 593.889C213.687 591.452 216.748 588.322 220.152 584.842C223.565 581.354 227.338 577.5 230.946 573.591C234.556 569.68 237.987 565.73 240.718 562.052C243.464 558.354 245.439 555.015 246.223 552.315L248.143 552.873C247.256 555.929 245.101 559.505 242.323 563.245C239.531 567.005 236.046 571.015 232.416 574.947C228.784 578.882 224.991 582.756 221.582 586.241C218.163 589.735 215.144 592.824 213.029 595.214L211.531 593.889ZM246.223 552.315C247.91 546.503 250.894 537.527 249.718 528.072C248.555 518.725 243.3 508.79 228.166 501.132L229.069 499.348C244.754 507.285 250.452 517.772 251.703 527.825C252.94 537.771 249.798 547.175 248.143 552.873L246.223 552.315ZM228.171 501.135C227.317 500.708 225.626 500.477 223.455 500.784C221.323 501.084 218.86 501.885 216.528 503.36C211.907 506.28 207.711 511.897 207.711 521.776L205.711 521.776C205.711 511.233 210.24 504.968 215.459 501.669C218.046 500.034 220.782 499.141 223.175 498.803C225.529 498.471 227.691 498.659 229.065 499.346L228.171 501.135ZM207.711 521.776C207.711 524.74 210.169 527.404 213.265 528.337C214.783 528.795 216.373 528.803 217.786 528.257C219.183 527.718 220.484 526.61 221.403 524.686L223.208 525.549C222.085 527.896 220.416 529.386 218.506 530.123C216.612 530.854 214.558 530.816 212.688 530.252C209.008 529.143 205.711 525.867 205.711 521.776L207.711 521.776ZM221.392 524.711C221.827 523.731 221.672 522.723 221.204 521.772C220.73 520.808 219.98 520.008 219.453 519.586L220.702 518.025C221.413 518.593 222.371 519.613 222.999 520.889C223.633 522.178 223.972 523.831 223.219 525.524L221.392 524.711ZM219.936 517.815C222.251 517.485 225.743 517.672 228.7 519.378C231.737 521.131 234.073 524.413 234.073 529.945L232.073 529.945C232.073 525.079 230.078 522.482 227.7 521.11C225.242 519.692 222.237 519.507 220.219 519.795L219.936 517.815ZM234.073 529.945C234.073 536.822 230.893 540.854 226.983 543.11C223.147 545.323 218.676 545.797 215.993 545.797L215.993 543.797C218.509 543.797 222.578 543.342 225.983 541.378C229.313 539.457 232.073 536.063 232.073 529.945L234.073 529.945ZM215.993 545.797C210.483 545.797 200.103 543.044 192.849 530.443L194.582 529.446C201.436 541.351 211.107 543.797 215.993 543.797L215.993 545.797ZM192.849 530.443C189.211 524.126 187.082 514.812 190.362 505.793C193.659 496.726 202.331 488.197 219.809 483.311L220.347 485.237C203.294 490.005 195.256 498.185 192.241 506.476C189.209 514.815 191.164 523.51 194.582 529.446L192.849 530.443ZM219.851 483.3C228.226 481.352 239.772 484.576 249.408 492.748C259.085 500.955 266.918 514.207 267.861 532.492L265.863 532.595C264.949 514.864 257.373 502.125 248.114 494.273C238.813 486.385 227.895 483.483 220.304 485.248L219.851 483.3ZM265.915 532.224C270.859 517.574 270.009 506.144 265.673 496.568C261.318 486.95 253.395 479.089 243.967 471.694L245.201 470.12C254.709 477.578 262.939 485.682 267.495 495.743C272.07 505.847 272.891 517.809 267.81 532.863L265.915 532.224ZM244.008 471.725C241.659 470.072 237.561 468.461 232.416 467.354C227.295 466.252 221.223 465.668 214.981 466.011C202.468 466.699 189.47 471.089 181.919 482.236L180.263 481.114C188.307 469.24 202.042 464.719 214.871 464.014C221.3 463.661 227.55 464.261 232.837 465.398C238.101 466.531 242.496 468.215 245.159 470.089L244.008 471.725ZM181.919 482.236C174.208 493.618 170.509 504.904 171.459 516.028C172.408 527.148 178.015 538.262 189.218 549.282L187.816 550.708C176.369 539.449 170.466 527.914 169.466 516.198C168.466 504.488 172.379 492.752 180.263 481.114L181.919 482.236ZM189.224 549.288C192.343 552.407 198.025 554.405 203.857 555.654C209.633 556.892 215.331 557.352 218.284 557.537L218.159 559.533C215.171 559.346 209.358 558.878 203.438 557.61C197.574 556.353 191.374 554.266 187.81 550.702L189.224 549.288ZM218.969 559.199C214.199 564.566 175.399 604.74 156.604 624.277L155.163 622.891C173.993 603.317 212.739 563.198 217.474 557.871L218.969 559.199ZM157.491 702.381C158.986 704.155 161.013 705.635 163.034 705.632L163.037 707.632C160.109 707.636 157.57 705.579 155.961 703.669L157.491 702.381ZM171.683 702.116C174.753 709.801 172.401 718.267 166.358 721.667L165.377 719.924C170.338 717.133 172.62 709.854 169.825 702.858L171.683 702.116ZM166.358 721.667C165.949 721.896 165.545 722.107 165.145 722.298L164.282 720.494C164.641 720.322 165.006 720.132 165.377 719.924L166.358 721.667ZM152.758 720.854L152.758 724.508L150.758 724.508L150.758 720.854L152.758 720.854ZM152.145 723.587C152.193 723.607 152.241 723.627 152.288 723.648L151.479 725.477C151.441 725.461 151.405 725.445 151.37 725.43L152.145 723.587ZM154.474 750.441C153.037 752.496 151.406 754.244 149.728 755.406L148.589 753.762C150.015 752.775 151.488 751.223 152.834 749.295L154.474 750.441ZM148.644 755.442C148.563 755.393 148.482 755.343 148.401 755.29L149.482 753.608C149.548 753.65 149.611 753.69 149.673 753.726L148.644 755.442ZM143.443 750.486C140.354 746.556 137.391 740.853 137.391 734.905L139.391 734.905C139.391 740.233 142.074 745.508 145.015 749.25L143.443 750.486ZM137.391 734.905C137.391 732.623 138.398 730.141 139.882 728.096C141.367 726.05 143.433 724.298 145.708 723.606L146.29 725.519C144.556 726.047 142.818 727.455 141.501 729.27C140.183 731.086 139.391 733.165 139.391 734.905L137.391 734.905ZM146.804 721.589C145.599 722.701 143.531 723.98 141.016 724.423C138.463 724.873 135.478 724.452 132.557 722.186L133.782 720.606C136.225 722.5 138.63 722.813 140.669 722.453C142.747 722.088 144.476 721.016 145.447 720.119L146.804 721.589ZM126.186 702.156C126.438 701.436 126.738 700.701 127.088 699.951L128.9 700.796C128.577 701.489 128.303 702.163 128.073 702.818L126.186 702.156ZM128.927 700.015C129.379 701.188 130.249 702.48 131.366 703.548C132.486 704.619 133.781 705.396 135.046 705.652L134.65 707.612C132.904 707.259 131.283 706.236 129.984 704.993C128.682 703.748 127.631 702.215 127.061 700.733L128.927 700.015ZM140.282 702.54C140.465 702.21 140.644 701.85 140.817 701.456L142.648 702.261C142.452 702.707 142.246 703.122 142.032 703.51L140.282 702.54ZM140.732 701.857L140.883 623.582L142.883 623.586L142.732 701.861L140.732 701.857ZM148.162 611.892L190.394 567.868L191.838 569.253L149.605 613.276L148.162 611.892ZM190.657 569.449C179.211 563.537 155.772 543.928 153.36 512.57L155.354 512.416C157.694 542.843 180.495 561.949 191.575 567.672L190.657 569.449ZM153.358 512.549C151.841 485.238 178.661 448.376 222.297 448L222.314 450C179.807 450.366 153.902 486.28 155.355 512.438L153.358 512.549ZM222.306 448C242.63 448 255.622 457.841 260.573 459.963L259.785 461.801C254.339 459.467 242.082 450 222.306 450L222.306 448ZM260.573 459.963C263.225 461.099 266.844 462.768 270.61 462.899C272.467 462.964 274.331 462.651 276.11 461.719C277.889 460.787 279.644 459.206 281.236 456.641L282.935 457.696C281.186 460.515 279.181 462.368 277.038 463.491C274.896 464.613 272.675 464.972 270.54 464.898C266.323 464.751 262.331 462.892 259.785 461.801L260.573 459.963ZM282.821 456.49C285.15 459.014 286.711 461.943 286.659 465.214C286.607 468.495 284.937 471.89 281.288 475.346L279.913 473.894C283.319 470.667 284.619 467.75 284.66 465.182C284.701 462.606 283.477 460.151 281.351 457.847L282.821 456.49ZM281.308 475.327C280.491 476.144 279.301 477.032 278.072 477.72C276.876 478.39 275.483 478.962 274.288 478.962L274.288 476.962C274.95 476.962 275.97 476.605 277.095 475.975C278.187 475.364 279.225 474.582 279.893 473.913L281.308 475.327ZM274.995 477.255C275.565 477.824 277.129 479.947 278.92 483.239C280.731 486.566 282.816 491.16 284.394 496.718C287.552 507.841 288.685 522.846 281.517 539.256L279.684 538.456C286.626 522.562 285.531 508.048 282.47 497.264C280.938 491.869 278.915 487.413 277.164 484.195C275.393 480.943 273.94 479.028 273.581 478.669L274.995 477.255ZM281.544 539.189C279.263 545.651 273.892 554.015 268.504 561.355C263.103 568.711 257.593 575.16 254.945 577.807L253.531 576.393C256.081 573.843 261.525 567.481 266.892 560.171C272.271 552.844 277.483 544.685 279.658 538.523L281.544 539.189ZM254.945 577.807C250.815 581.937 239.157 595.076 233.825 601.152L232.322 599.833C237.634 593.78 249.343 580.58 253.531 576.393L254.945 577.807ZM233.107 599.493C235.017 599.558 237.198 599.9 239.185 600.655C241.165 601.408 243.037 602.604 244.194 604.432C246.586 608.209 245.529 613.873 238.662 621.934L237.139 620.637C243.936 612.658 244.117 608.049 242.504 605.502C241.659 604.167 240.219 603.188 238.475 602.525C236.737 601.864 234.781 601.551 233.04 601.492L233.107 599.493ZM236.945 621.58C236.307 619.507 233.97 616.76 230.301 615.552C226.699 614.365 221.732 614.645 215.823 618.764L214.679 617.123C221.022 612.702 226.638 612.24 230.926 613.652C235.148 615.043 238.009 618.238 238.856 620.991L236.945 621.58ZM215.765 618.801C214.942 619.295 212.969 620.874 210.376 623.38C207.807 625.863 204.681 629.206 201.556 633.182C195.291 641.151 189.093 651.576 187.276 662.662L185.302 662.339C187.198 650.776 193.624 640.036 199.984 631.946C203.171 627.892 206.358 624.482 208.986 621.942C211.592 619.423 213.703 617.706 214.736 617.086L215.765 618.801ZM187.279 662.642C186.75 666.342 187.364 674.713 190.523 683.32C193.676 691.911 199.297 700.555 208.629 705.042L207.763 706.844C197.787 702.048 191.898 692.87 188.646 684.009C185.4 675.165 184.714 666.456 185.299 662.359L187.279 662.642ZM208.629 705.042C217.949 709.522 230.993 708.749 241.745 703.692C252.48 698.643 260.664 689.462 260.664 677.353L262.664 677.353C262.664 690.492 253.768 700.247 242.596 705.502C231.441 710.749 217.751 711.646 207.763 706.844L208.629 705.042ZM260.664 677.353C260.664 665.154 253.592 656.585 245.343 652.973C237.056 649.345 227.821 650.77 223.153 658.205L221.459 657.142C226.815 648.611 237.26 647.251 246.145 651.141C255.069 655.049 262.664 664.303 262.664 677.353L260.664 677.353ZM223.153 658.205C220.738 662.05 220.241 665.132 220.699 667.421C221.155 669.704 222.59 671.349 224.355 672.294C226.141 673.249 228.2 673.452 229.822 672.911C231.387 672.389 232.589 671.17 232.822 669.073L234.81 669.294C234.486 672.21 232.717 674.054 230.454 674.809C228.246 675.545 225.618 675.237 223.412 674.057C221.186 672.866 219.325 670.752 218.737 667.814C218.151 664.881 218.86 661.28 221.459 657.142L223.153 658.205ZM232.816 669.184C232.816 666.664 231.116 664.962 230.316 664.462L231.376 662.766C232.556 663.504 234.816 665.763 234.816 669.184L232.816 669.184ZM230.71 662.624C234 662.172 238.783 662.529 242.197 665.298C245.723 668.157 247.467 673.305 245.177 681.7L243.248 681.174C245.414 673.231 243.63 669.035 240.937 666.851C238.131 664.576 234.003 664.19 230.982 664.605L230.71 662.624ZM245.17 681.724C244.534 683.847 242.813 686.048 240.482 687.865C238.132 689.696 235.077 691.204 231.644 691.886C224.713 693.262 216.353 691.249 209.261 682.047L210.845 680.826C217.49 689.448 225.096 691.147 231.254 689.924C234.365 689.307 237.135 687.937 239.253 686.287C241.388 684.623 242.778 682.74 243.255 681.15L245.17 681.724ZM209.272 682.062C207.672 680.062 206.092 676.718 205.015 672.753C203.933 668.771 203.335 664.079 203.766 659.347C204.196 654.612 205.659 649.808 208.726 645.651C211.799 641.484 216.439 638.026 223.12 635.926L223.719 637.834C217.404 639.819 213.133 643.044 210.335 646.838C207.531 650.64 206.162 655.073 205.757 659.528C205.352 663.985 205.915 668.437 206.945 672.229C207.98 676.038 209.463 679.099 210.833 680.812L209.272 682.062ZM223.177 635.91C227.015 634.951 233.062 634.486 238.931 634.814C241.873 634.979 244.8 635.345 247.407 635.959C250 636.57 252.345 637.443 254.072 638.663L252.919 640.296C251.49 639.288 249.425 638.49 246.948 637.906C244.484 637.325 241.679 636.971 238.819 636.811C233.084 636.49 227.25 636.954 223.662 637.851L223.177 635.91ZM252.517 639.686C252.34 638.847 252.033 637.779 251.661 636.475C251.293 635.186 250.872 633.698 250.486 632.069C249.715 628.814 249.078 624.962 249.294 620.907C249.51 616.843 250.584 612.571 253.231 608.494C255.878 604.418 260.061 600.595 266.41 597.373L267.315 599.156C261.225 602.247 257.332 605.85 254.908 609.583C252.485 613.315 251.493 617.234 251.291 621.014C251.089 624.803 251.683 628.447 252.432 631.608C252.806 633.188 253.217 634.638 253.584 635.926C253.948 637.2 254.279 638.349 254.474 639.273L252.517 639.686ZM266.431 597.363C270.85 595.249 277.754 593.706 284.091 594.963C287.276 595.595 290.347 596.942 292.871 599.311C295.399 601.684 297.322 605.031 298.287 609.567L296.331 609.983C295.44 605.794 293.696 602.828 291.502 600.769C289.303 598.705 286.596 597.499 283.701 596.925C277.877 595.769 271.414 597.196 267.294 599.167L266.431 597.363ZM298.287 609.567C300.213 618.618 297.243 625.257 292.568 628.726C287.942 632.157 281.663 632.424 277.351 628.728L278.652 627.21C282.138 630.197 287.368 630.093 291.376 627.12C295.333 624.183 298.118 618.384 296.331 609.983L298.287 609.567ZM277.401 628.769C275.678 627.476 274.475 625.391 273.698 622.674L275.621 622.125C276.33 624.606 277.355 626.234 278.601 627.169L277.401 628.769ZM274.877 621.423C276.336 621.748 278.583 621.578 280.29 620.603C281.125 620.126 281.802 619.474 282.22 618.618C282.637 617.767 282.835 616.637 282.585 615.138L284.558 614.809C284.865 616.651 284.645 618.214 284.017 619.497C283.391 620.777 282.397 621.702 281.282 622.339C279.091 623.592 276.325 623.794 274.443 623.376L274.877 621.423ZM282.585 615.138C282.084 612.132 280.641 610.946 279.31 610.429C277.864 609.866 276.456 610.032 275.774 610.032L275.774 608.032C276.205 608.032 278.139 607.827 280.035 608.565C282.046 609.347 283.945 611.131 284.558 614.809L282.585 615.138ZM275.774 610.032C275.611 610.032 274.757 610.105 273.623 610.443C272.501 610.778 271.171 611.353 270.003 612.312C268.847 613.261 267.84 614.595 267.342 616.492C266.842 618.399 266.838 620.948 267.823 624.349L265.902 624.905C264.844 621.251 264.794 618.324 265.407 615.984C266.024 613.634 267.291 611.951 268.734 610.766C270.166 609.59 271.759 608.912 273.051 608.527C274.331 608.145 275.38 608.032 275.774 608.032L275.774 610.032Z" fill="#16436D" mask="url(#path-2-inside-1)"/>
<mask id="path-4-inside-2" fill="white">
<path d="M171.81 182.683C171.81 192.783 164.631 196.793 161.042 197.535C164.755 189.367 157.329 187.51 153.616 192.337C150.645 195.308 149.408 202.239 149.16 205.333C149.16 203.353 148.195 197.981 144.333 192.337C139.506 185.282 132.451 191.966 136.907 197.535C132.699 196.545 124.58 192.189 125.768 182.683C127.996 169.688 138.764 174.515 140.249 176C140.249 167.088 145.447 161.89 149.16 159.662C154.73 162.261 158.443 171.173 157.329 176C159.185 172.658 171.81 170.059 171.81 182.683Z"/>
<path d="M266.864 129.957C276.146 113 289.662 73.4441 269.463 50.8688C285.8 50.1261 294.712 48.6409 296.94 30.0757C298.053 20.4218 295.083 8.16868 278.003 8.16868C268.72 8.16868 263.893 14.8522 263.893 19.3078C263.893 22.8724 267.111 26.2389 268.72 27.4765C269.587 25.7438 272.211 22.2783 275.775 22.2783C280.231 22.2783 282.087 27.1052 282.087 28.5905C282.087 30.0757 282.087 37.1305 274.29 37.1305C266.492 37.1305 252.011 35.6452 240.501 31.5609C228.248 27.4765 203.742 28.2191 188.89 43.0714C174.037 57.9236 161.042 78.7166 179.236 119.56C183.691 129.957 203.742 150.379 212.282 160.032C220.822 169.686 243.843 190.479 247.185 201.99C250.526 213.5 259.438 238.749 228.619 254.344C224.164 256.572 206.712 253.23 206.712 232.808C206.712 225.753 218.223 220.926 222.307 229.466C223.495 232.14 221.317 234.789 220.079 235.779C224.411 236.398 233.075 235.036 233.075 224.64C233.075 211.644 221.193 209.787 215.995 209.787C210.797 209.787 200.771 212.386 193.717 224.64C186.662 236.893 185.548 260.656 220.079 270.31C236.045 274.023 265.007 258.057 266.864 222.04C276.889 251.745 263.522 268.825 244.585 283.677C234.56 290.732 196.687 295.93 181.092 272.909C165.497 249.888 165.869 226.867 188.518 204.589C195.202 197.906 212.282 196.42 218.223 196.049C213.47 190.702 174.814 150.555 156.001 131L156.152 52.7253C156.337 52.306 156.529 51.9177 156.727 51.559C158.279 49.7171 160.563 47.9483 163.037 47.9522C166.048 48.5604 168.869 51.5541 169.89 54.2105C170.227 53.4888 170.514 52.7842 170.755 52.0969C173.688 44.7565 171.371 36.8838 165.869 33.7888C165.479 33.5697 165.095 33.3698 164.715 33.1881C159.352 29.0282 153.935 31.7209 151.759 33.7302V30.0757C151.8 30.0583 151.842 30.0402 151.885 30.0213C155.894 28.8018 159.494 23.7006 159.494 19.6792C159.494 14.0414 156.67 8.55237 153.655 4.71616C152.264 2.72467 150.712 1.07443 149.16 1.89702e-08C149.089 0.0426636 149.017 0.087677 148.943 0.134949C148.869 0.087677 148.797 0.0426636 148.726 0C147.174 1.07446 145.622 2.72464 144.23 4.71616C141.216 8.55234 138.392 14.0414 138.392 19.6792C138.392 23.7005 141.992 28.8018 146.001 30.0213C146.044 30.0402 146.086 30.0583 146.127 30.0757V33.7302C143.951 31.7209 138.534 29.0282 133.171 33.1881C132.791 33.3698 132.407 33.5697 132.017 33.7888C126.515 36.8838 124.198 44.7565 127.131 52.0968C127.372 52.7841 127.659 53.4888 127.996 54.2105C129.017 51.5541 131.838 48.5604 134.849 47.9522C137.323 47.9483 139.607 49.7171 141.158 51.5589C141.357 51.9177 141.549 52.3059 141.734 52.7253L142.001 131C123.188 150.555 84.416 190.702 79.6633 196.049C85.6041 196.42 102.684 197.906 109.368 204.589C132.017 226.867 132.389 249.888 116.794 272.909C101.199 295.93 63.3258 290.732 53.3006 283.677C34.3641 268.825 20.997 251.745 31.0224 222.04C32.879 258.057 61.8406 274.023 77.8067 270.31C112.338 260.656 111.224 236.893 104.169 224.64C97.1146 212.386 87.0894 209.787 81.8911 209.787C76.6928 209.787 64.8111 211.644 64.8111 224.64C64.8111 235.036 73.4748 236.398 77.8067 235.779C76.5691 234.789 74.3907 232.14 75.5789 229.466C79.6633 220.926 91.1737 225.753 91.1737 232.808C91.1737 253.23 73.7224 256.572 69.2667 254.344C38.4484 238.749 47.3597 213.5 50.7015 201.99C54.0432 190.479 77.0641 169.686 85.6041 160.032C94.1442 150.379 114.195 129.957 118.65 119.56C136.844 78.7166 123.849 57.9236 108.996 43.0714C94.1442 28.2191 69.638 27.4765 57.385 31.5609C45.8745 35.6452 31.3936 37.1305 23.5962 37.1305C15.7988 37.1305 15.7988 30.0757 15.7988 28.5904C15.7988 27.1052 17.6553 22.2783 22.111 22.2783C25.6755 22.2783 28.2994 25.7438 29.1658 27.4765C30.7748 26.2389 33.9928 22.8723 33.9928 19.3078C33.9928 14.8522 29.1658 8.16866 19.883 8.16866C2.803 8.16866 -0.167463 20.4217 0.946458 30.0757C3.1743 48.6409 12.0858 50.1261 28.4232 50.8688C8.22423 73.4441 21.7398 113 31.0224 129.957C35.107 144.066 23.2247 145.552 22.1108 145.552C20.9969 145.552 15.4273 146.294 14.3134 139.611C13.1994 132.927 19.8832 131.442 23.2247 132.185C22.4821 129.585 21.3682 127.729 19.8832 126.615C12.0858 119.932 -3.13774 127.358 0.575299 144.809C4.28834 162.26 22.4823 160.404 31.0224 156.319C55.8999 143.695 45.8745 122.159 44.3893 115.105C50.7015 119.56 67.0389 119.56 74.465 117.704C100.456 109.535 93.7729 80.5732 87.832 73.1471C74.0937 55.3244 55.8997 65.721 53.6719 73.1471C49.2163 89.4845 60.7267 91.8361 67.0389 90.9697C66.0488 90.3509 64.0685 88.3706 64.0685 85.4001C65.1824 75.3749 85.6042 80.9445 75.5789 96.9106C65.5537 112.877 36.2206 102.48 36.2206 77.2314C36.2206 51.9827 70.3806 39.3583 89.6885 48.641C108.996 57.9236 112.709 84.2862 111.596 92.0836C107.882 114.733 86.3468 134.412 82.6337 136.64C70.3806 145.18 61.4693 138.125 59.9841 133.299C46.3201 149.339 57.5087 153.844 64.8111 154.092C59.489 160.156 47.8053 173.325 43.6467 177.484C38.4484 182.682 21.7397 203.104 17.284 215.728C3.17442 248.032 21.7397 274.766 23.5962 276.622C21.7397 276.622 18.7692 278.479 17.284 279.964C10.2292 286.647 11.3431 292.588 15.7988 297.415C22.4823 286.647 32.5075 291.474 37.7058 293.702C42.9041 295.93 55.5284 305.584 75.5789 305.584C118.65 305.213 145.013 268.825 143.528 242.091C141.151 211.198 118.031 191.841 106.769 186.024L149.001 142L191.117 186.024C179.855 191.841 156.735 211.198 154.358 242.091C152.873 268.825 179.236 305.213 222.307 305.584C242.358 305.584 254.982 295.93 260.18 293.702C265.378 291.474 275.404 286.647 282.087 297.415C286.543 292.588 287.657 286.647 280.602 279.964C279.117 278.479 276.146 276.622 274.29 276.622C276.146 274.766 294.712 248.032 280.602 215.728C276.146 203.104 259.438 182.682 254.239 177.484C250.081 173.325 238.397 160.156 233.075 154.092C240.377 153.844 251.566 149.339 237.902 133.299C236.417 138.125 227.505 145.18 215.252 136.64C211.539 134.412 190.004 114.733 186.29 92.0836C185.177 84.2862 188.89 57.9236 208.197 48.641C227.505 39.3583 261.665 51.9827 261.665 77.2315C261.665 102.48 232.332 112.877 222.307 96.9106C212.282 80.9445 232.704 75.3749 233.818 85.4001C233.818 88.3706 231.837 90.3509 230.847 90.9697C237.159 91.8361 248.67 89.4845 244.214 73.1471C241.986 65.721 223.792 55.3244 210.054 73.1471C204.113 80.5732 197.43 109.535 223.421 117.704C230.847 119.56 247.185 119.56 253.497 115.105C252.011 122.159 241.986 143.695 266.864 156.319C275.404 160.404 293.598 162.26 297.311 144.809C301.024 127.358 285.8 119.932 278.003 126.615C276.518 127.729 275.404 129.585 274.661 132.185C278.003 131.442 284.687 132.927 283.573 139.611C282.459 146.294 276.889 145.552 275.775 145.552C274.661 145.552 262.779 144.066 266.864 129.957Z"/>
</mask>
<path d="M171.81 182.683C171.81 192.783 164.631 196.793 161.042 197.535C164.755 189.367 157.329 187.51 153.616 192.337C150.645 195.308 149.408 202.239 149.16 205.333C149.16 203.353 148.195 197.981 144.333 192.337C139.506 185.282 132.451 191.966 136.907 197.535C132.699 196.545 124.58 192.189 125.768 182.683C127.996 169.688 138.764 174.515 140.249 176C140.249 167.088 145.447 161.89 149.16 159.662C154.73 162.261 158.443 171.173 157.329 176C159.185 172.658 171.81 170.059 171.81 182.683Z" stroke="#16436D" stroke-width="2" mask="url(#path-4-inside-2)"/>
<path d="M266.864 129.957C276.146 113 289.662 73.4441 269.463 50.8688C285.8 50.1261 294.712 48.6409 296.94 30.0757C298.053 20.4218 295.083 8.16868 278.003 8.16868C268.72 8.16868 263.893 14.8522 263.893 19.3078C263.893 22.8724 267.111 26.2389 268.72 27.4765C269.587 25.7438 272.211 22.2783 275.775 22.2783C280.231 22.2783 282.087 27.1052 282.087 28.5905C282.087 30.0757 282.087 37.1305 274.29 37.1305C266.492 37.1305 252.011 35.6452 240.501 31.5609C228.248 27.4765 203.742 28.2191 188.89 43.0714C174.037 57.9236 161.042 78.7166 179.236 119.56C183.691 129.957 203.742 150.379 212.282 160.032C220.822 169.686 243.843 190.479 247.185 201.99C250.526 213.5 259.438 238.749 228.619 254.344C224.164 256.572 206.712 253.23 206.712 232.808C206.712 225.753 218.223 220.926 222.307 229.466C223.495 232.14 221.317 234.789 220.079 235.779C224.411 236.398 233.075 235.036 233.075 224.64C233.075 211.644 221.193 209.787 215.995 209.787C210.797 209.787 200.771 212.386 193.717 224.64C186.662 236.893 185.548 260.656 220.079 270.31C236.045 274.023 265.007 258.057 266.864 222.04C276.889 251.745 263.522 268.825 244.585 283.677C234.56 290.732 196.687 295.93 181.092 272.909C165.497 249.888 165.869 226.867 188.518 204.589C195.202 197.906 212.282 196.42 218.223 196.049C213.47 190.702 174.814 150.555 156.001 131L156.152 52.7253C156.337 52.306 156.529 51.9177 156.727 51.559C158.279 49.7171 160.563 47.9483 163.037 47.9522C166.048 48.5604 168.869 51.5541 169.89 54.2105C170.227 53.4888 170.514 52.7842 170.755 52.0969C173.688 44.7565 171.371 36.8838 165.869 33.7888C165.479 33.5697 165.095 33.3698 164.715 33.1881C159.352 29.0282 153.935 31.7209 151.759 33.7302V30.0757C151.8 30.0583 151.842 30.0402 151.885 30.0213C155.894 28.8018 159.494 23.7006 159.494 19.6792C159.494 14.0414 156.67 8.55237 153.655 4.71616C152.264 2.72467 150.712 1.07443 149.16 1.89702e-08C149.089 0.0426636 149.017 0.087677 148.943 0.134949C148.869 0.087677 148.797 0.0426636 148.726 0C147.174 1.07446 145.622 2.72464 144.23 4.71616C141.216 8.55234 138.392 14.0414 138.392 19.6792C138.392 23.7005 141.992 28.8018 146.001 30.0213C146.044 30.0402 146.086 30.0583 146.127 30.0757V33.7302C143.951 31.7209 138.534 29.0282 133.171 33.1881C132.791 33.3698 132.407 33.5697 132.017 33.7888C126.515 36.8838 124.198 44.7565 127.131 52.0968C127.372 52.7841 127.659 53.4888 127.996 54.2105C129.017 51.5541 131.838 48.5604 134.849 47.9522C137.323 47.9483 139.607 49.7171 141.158 51.5589C141.357 51.9177 141.549 52.3059 141.734 52.7253L142.001 131C123.188 150.555 84.416 190.702 79.6633 196.049C85.6041 196.42 102.684 197.906 109.368 204.589C132.017 226.867 132.389 249.888 116.794 272.909C101.199 295.93 63.3258 290.732 53.3006 283.677C34.3641 268.825 20.997 251.745 31.0224 222.04C32.879 258.057 61.8406 274.023 77.8067 270.31C112.338 260.656 111.224 236.893 104.169 224.64C97.1146 212.386 87.0894 209.787 81.8911 209.787C76.6928 209.787 64.8111 211.644 64.8111 224.64C64.8111 235.036 73.4748 236.398 77.8067 235.779C76.5691 234.789 74.3907 232.14 75.5789 229.466C79.6633 220.926 91.1737 225.753 91.1737 232.808C91.1737 253.23 73.7224 256.572 69.2667 254.344C38.4484 238.749 47.3597 213.5 50.7015 201.99C54.0432 190.479 77.0641 169.686 85.6041 160.032C94.1442 150.379 114.195 129.957 118.65 119.56C136.844 78.7166 123.849 57.9236 108.996 43.0714C94.1442 28.2191 69.638 27.4765 57.385 31.5609C45.8745 35.6452 31.3936 37.1305 23.5962 37.1305C15.7988 37.1305 15.7988 30.0757 15.7988 28.5904C15.7988 27.1052 17.6553 22.2783 22.111 22.2783C25.6755 22.2783 28.2994 25.7438 29.1658 27.4765C30.7748 26.2389 33.9928 22.8723 33.9928 19.3078C33.9928 14.8522 29.1658 8.16866 19.883 8.16866C2.803 8.16866 -0.167463 20.4217 0.946458 30.0757C3.1743 48.6409 12.0858 50.1261 28.4232 50.8688C8.22423 73.4441 21.7398 113 31.0224 129.957C35.107 144.066 23.2247 145.552 22.1108 145.552C20.9969 145.552 15.4273 146.294 14.3134 139.611C13.1994 132.927 19.8832 131.442 23.2247 132.185C22.4821 129.585 21.3682 127.729 19.8832 126.615C12.0858 119.932 -3.13774 127.358 0.575299 144.809C4.28834 162.26 22.4823 160.404 31.0224 156.319C55.8999 143.695 45.8745 122.159 44.3893 115.105C50.7015 119.56 67.0389 119.56 74.465 117.704C100.456 109.535 93.7729 80.5732 87.832 73.1471C74.0937 55.3244 55.8997 65.721 53.6719 73.1471C49.2163 89.4845 60.7267 91.8361 67.0389 90.9697C66.0488 90.3509 64.0685 88.3706 64.0685 85.4001C65.1824 75.3749 85.6042 80.9445 75.5789 96.9106C65.5537 112.877 36.2206 102.48 36.2206 77.2314C36.2206 51.9827 70.3806 39.3583 89.6885 48.641C108.996 57.9236 112.709 84.2862 111.596 92.0836C107.882 114.733 86.3468 134.412 82.6337 136.64C70.3806 145.18 61.4693 138.125 59.9841 133.299C46.3201 149.339 57.5087 153.844 64.8111 154.092C59.489 160.156 47.8053 173.325 43.6467 177.484C38.4484 182.682 21.7397 203.104 17.284 215.728C3.17442 248.032 21.7397 274.766 23.5962 276.622C21.7397 276.622 18.7692 278.479 17.284 279.964C10.2292 286.647 11.3431 292.588 15.7988 297.415C22.4823 286.647 32.5075 291.474 37.7058 293.702C42.9041 295.93 55.5284 305.584 75.5789 305.584C118.65 305.213 145.013 268.825 143.528 242.091C141.151 211.198 118.031 191.841 106.769 186.024L149.001 142L191.117 186.024C179.855 191.841 156.735 211.198 154.358 242.091C152.873 268.825 179.236 305.213 222.307 305.584C242.358 305.584 254.982 295.93 260.18 293.702C265.378 291.474 275.404 286.647 282.087 297.415C286.543 292.588 287.657 286.647 280.602 279.964C279.117 278.479 276.146 276.622 274.29 276.622C276.146 274.766 294.712 248.032 280.602 215.728C276.146 203.104 259.438 182.682 254.239 177.484C250.081 173.325 238.397 160.156 233.075 154.092C240.377 153.844 251.566 149.339 237.902 133.299C236.417 138.125 227.505 145.18 215.252 136.64C211.539 134.412 190.004 114.733 186.29 92.0836C185.177 84.2862 188.89 57.9236 208.197 48.641C227.505 39.3583 261.665 51.9827 261.665 77.2315C261.665 102.48 232.332 112.877 222.307 96.9106C212.282 80.9445 232.704 75.3749 233.818 85.4001C233.818 88.3706 231.837 90.3509 230.847 90.9697C237.159 91.8361 248.67 89.4845 244.214 73.1471C241.986 65.721 223.792 55.3244 210.054 73.1471C204.113 80.5732 197.43 109.535 223.421 117.704C230.847 119.56 247.185 119.56 253.497 115.105C252.011 122.159 241.986 143.695 266.864 156.319C275.404 160.404 293.598 162.26 297.311 144.809C301.024 127.358 285.8 119.932 278.003 126.615C276.518 127.729 275.404 129.585 274.661 132.185C278.003 131.442 284.687 132.927 283.573 139.611C282.459 146.294 276.889 145.552 275.775 145.552C274.661 145.552 262.779 144.066 266.864 129.957Z" stroke="#16436D" stroke-width="2" mask="url(#path-4-inside-2)"/>
<path d="M112.946 327.889L149.159 305.799L185.011 327.89L173.75 335.808L173.75 335.808L161.684 344.283L161.076 344.71L161.701 345.112L200.129 369.869L200.405 370.046L200.677 369.865C204.016 367.639 213.071 361.701 222.572 355.763C223.935 354.911 225.371 353.997 226.862 353.047L227.034 352.938C232.784 349.275 239.084 345.262 245.421 342.163C251.758 339.064 258.08 336.906 263.879 336.903C272.701 337.414 278.313 339.983 281.724 343.583C285.137 347.186 286.414 351.895 286.414 356.824C286.414 361.686 284.16 366.384 280.725 369.594C277.291 372.801 272.721 374.486 268.09 373.417C263.447 372.346 261.275 369.612 260.575 366.508C259.97 363.821 260.46 360.815 261.513 358.31C262.59 361.786 265.152 364.023 268.666 364.376C270.364 364.575 271.774 364.151 272.843 363.302C273.905 362.459 274.594 361.226 274.916 359.863C275.557 357.15 274.773 353.804 272.4 351.629C270.075 349.498 266.972 348.147 262.837 348.435C258.725 348.722 253.627 350.628 247.276 354.925C246.019 355.775 241.661 358.573 236.404 361.947L236.403 361.948L236.403 361.948C231.548 365.064 225.935 368.667 221.318 371.666C216.717 374.654 213.066 377.065 212.168 377.784L211.68 378.174L212.168 378.565C213.066 379.283 216.716 381.695 221.317 384.682C225.933 387.68 231.545 391.282 236.399 394.398L236.401 394.4L236.402 394.4L236.406 394.403L236.407 394.403L236.407 394.404L236.408 394.404L236.409 394.405L236.412 394.406L112.946 327.889ZM112.946 327.889L136.633 344.281L137.249 344.707L136.619 345.112L98.1906 369.869L97.9152 370.046L97.6425 369.865C94.3041 367.639 85.2484 361.701 75.7478 355.763C74.3851 354.911 72.9496 353.997 71.4595 353.048L71.4584 353.047C65.6912 349.373 59.1018 345.177 52.6024 341.975C46.0888 338.766 39.7439 336.597 34.4555 336.902C25.6253 337.411 20.0083 339.981 16.5957 343.583C13.1829 347.186 11.9058 351.895 11.9058 356.824C11.9058 361.686 14.1597 366.384 17.5951 369.594C21.0285 372.801 25.5985 374.486 30.2299 373.417C34.8734 372.346 37.0452 369.612 37.7448 366.508C38.3501 363.821 37.8595 360.815 36.8067 358.31C35.7297 361.786 33.1682 364.023 29.6533 364.376C27.9562 364.575 26.5458 364.15 25.4769 363.302C24.4149 362.459 23.7262 361.226 23.4042 359.863C22.7629 357.15 23.5472 353.804 25.9201 351.629C28.2445 349.498 31.3482 348.147 35.4825 348.435C39.5952 348.722 44.6929 350.628 51.044 354.925C52.301 355.775 56.66 358.573 61.9169 361.948C65.6677 364.356 69.8647 367.005 73.7055 369.43C75.1634 370.351 76.57 371.239 77.8813 372.069C80.2631 373.577 82.3318 374.894 83.8209 375.866C84.565 376.351 85.168 376.752 85.5943 377.049C85.8067 377.197 85.9807 377.323 86.1079 377.422C86.1709 377.471 86.229 377.518 86.2766 377.562C86.3004 377.584 86.3268 377.609 86.352 377.637C86.372 377.659 86.4145 377.709 86.4484 377.776L86.5602 378L86.4484 378.224C86.4152 378.29 86.3738 378.339 86.3543 378.36C86.3298 378.388 86.3039 378.414 86.2805 378.436C86.2335 378.48 86.176 378.528 86.1132 378.578C85.9864 378.68 85.8129 378.809 85.6005 378.961C85.1744 379.268 84.5715 379.683 83.8273 380.185C82.3379 381.189 80.2691 382.55 77.8868 384.102C73.1214 387.205 67.093 391.078 61.9169 394.401C56.66 397.775 52.301 400.573 51.044 401.424C44.6929 405.72 39.5952 407.626 35.4825 407.913C31.3482 408.202 28.2445 406.851 25.9201 404.72C23.5472 402.545 22.7629 399.199 23.4042 396.485C23.7262 395.123 24.4149 393.89 25.4769 393.047C26.5458 392.198 27.9562 391.774 29.6533 391.972C33.1682 392.326 35.7297 394.562 36.8067 398.039C37.8595 395.533 38.3501 392.527 37.7448 389.841C37.0452 386.737 34.8734 384.003 30.2299 382.932C25.5985 381.863 21.0285 383.547 17.5951 386.755C14.1597 389.964 11.9058 394.662 11.9058 399.524C11.9058 404.454 13.1829 409.163 16.5957 412.765C20.0083 416.368 25.6253 418.938 34.4555 419.447C39.7439 419.752 46.0888 417.583 52.6024 414.374C59.1018 411.172 65.6912 406.975 71.4584 403.302L71.4615 403.3C72.9509 402.351 74.3857 401.437 75.7478 400.586C85.2484 394.648 94.3041 388.71 97.6425 386.484L97.9152 386.302L98.1906 386.48L136.619 411.237L137.244 411.639L136.636 412.066L113.309 428.459L149.16 450.549L185.011 428.459L173.75 420.541L161.868 412.186L161.263 411.761L161.883 411.358L200.127 386.481L200.403 386.301L200.677 386.484C204.016 388.71 213.071 394.648 222.572 400.586C223.935 401.438 225.371 402.352 226.862 403.302C232.629 406.975 239.218 411.172 245.717 414.374C252.231 417.583 258.576 419.752 263.864 419.447C272.695 418.938 278.312 416.368 281.724 412.765C285.137 409.163 286.414 404.454 286.414 399.524C286.414 394.662 284.16 389.964 280.725 386.755C277.291 383.547 272.721 381.863 268.09 382.932C263.447 384.003 261.275 386.737 260.575 389.841C259.97 392.527 260.46 395.533 261.513 398.039C262.59 394.562 265.152 392.325 268.667 391.972C270.364 391.774 271.774 392.198 272.843 393.047C273.905 393.89 274.594 395.123 274.916 396.485C275.557 399.199 274.773 402.545 272.4 404.72C270.075 406.851 266.972 408.202 262.837 407.913C258.725 407.626 253.627 405.72 247.276 401.424C246.02 400.574 241.665 397.779 236.412 394.407L112.946 327.889ZM148.9 337.943L149.16 338.102L149.42 337.943L164.644 328.661L165.344 328.234L164.644 327.807L149.42 318.524L149.16 318.366L148.9 318.524L133.676 327.807L132.976 328.234L133.676 328.661L148.9 337.943ZM133.676 427.688L132.976 428.115L133.676 428.542L148.9 437.824L149.16 437.983L149.42 437.824L164.644 428.542L165.344 428.115L164.644 427.688L149.42 418.405L149.16 418.247L148.9 418.405L133.676 427.688ZM110.728 377.581L110.091 377.998L110.726 378.417L148.94 403.65L149.214 403.831L149.489 403.651L188.05 378.407L188.693 377.986L188.047 377.569L149.419 352.651L149.146 352.475L148.875 352.653L110.728 377.581ZM163.423 328.234L149.16 336.931L134.897 328.234L149.16 319.537L163.423 328.234ZM149.16 436.812L134.897 428.115L149.16 419.418L163.423 428.115L149.16 436.812Z" stroke="#16436D"/>
</svg>
