<svg width="60" height="53" viewBox="0 0 60 53" fill="none" xmlns="http://www.w3.org/2000/svg">
<path d="M1.10874 20.5059L1.10806 20.5089C0.82178 21.7401 0.631736 23.0032 0.568458 24.2629L0.56783 24.2754L0.567674 24.2754C0.440699 25.9605 0.503487 27.6886 0.663905 29.4293C0.855897 31.1256 1.17517 32.7828 1.65259 34.402L1.65914 34.4242C1.66347 34.4347 1.66869 34.4482 1.67392 34.4636C1.67804 34.4757 1.68271 34.4907 1.68718 34.508C1.70106 34.5447 1.70996 34.5743 1.71596 34.5942L1.71667 34.5966C1.72343 34.619 1.72416 34.6206 1.72568 34.6239L1.72601 34.6246L1.73961 34.6547L1.74914 34.6863C2.10064 35.8525 2.51587 36.9828 2.99474 38.0774C3.46883 39.1609 4.04012 40.1804 4.6532 41.2154C5.25438 42.1947 5.95332 43.1443 6.65836 44.0306C7.39111 44.9111 8.18736 45.7563 9.01479 46.5306C9.83874 47.3016 10.7279 48.0043 11.651 48.6379C12.5692 49.2682 13.5541 49.8308 14.5432 50.325C15.5613 50.8175 16.6072 51.2376 17.6489 51.5518L17.6592 51.5549L17.6592 51.555C18.7326 51.9042 19.8381 52.1487 20.9439 52.2885L20.9497 52.2892L20.9496 52.2893C21.9665 52.4298 22.9826 52.5 23.9657 52.5L23.967 52.5L23.9683 52.5L23.9697 52.5L23.971 52.5L23.9723 52.5L23.9737 52.5L23.975 52.5L23.9763 52.5L23.9777 52.5L23.979 52.5L23.9803 52.5L23.9817 52.5L23.983 52.5L23.9844 52.5L23.9857 52.5L23.9871 52.5L23.9884 52.5L23.9897 52.5L23.9911 52.5L23.9924 52.5L23.9938 52.5L23.9951 52.5L23.9965 52.5L23.9978 52.5L23.9992 52.5L24.0005 52.5L24.0019 52.5L24.0032 52.5L24.0046 52.5L24.0059 52.5L24.0073 52.5L24.0086 52.5L24.01 52.5L24.0113 52.5L24.0127 52.5L24.0141 52.5L24.0154 52.5L24.0168 52.5L24.0181 52.5L24.0195 52.5L24.0208 52.5L24.0222 52.5L24.0236 52.5L24.0249 52.5L24.0263 52.5L24.0277 52.5L24.029 52.5L24.0304 52.5L24.0317 52.5L24.0331 52.5L24.0345 52.5L24.0358 52.5L24.0372 52.5L24.0386 52.5L24.0399 52.5L24.0413 52.5L24.0427 52.5L24.0441 52.5L24.0454 52.5L24.0468 52.5L24.0482 52.5L24.0495 52.5L24.0509 52.5L24.0523 52.5L24.0537 52.5L24.055 52.5L24.0564 52.5L24.0578 52.5L24.0592 52.5L24.0605 52.5L24.0619 52.5L24.0633 52.5L24.0647 52.5L24.066 52.5L24.0674 52.5L24.0688 52.5L24.0702 52.5L24.0716 52.5L24.0729 52.5L24.0743 52.5L24.0757 52.5L24.0771 52.5L24.0785 52.5L24.0799 52.5L24.0812 52.5L24.0826 52.5L24.084 52.5L24.0854 52.5L24.0868 52.5L24.0882 52.5L24.0896 52.5L24.0909 52.5L24.0923 52.5L24.0937 52.5L24.0951 52.5L24.0965 52.5L24.0979 52.5L24.0993 52.5L24.1007 52.5L24.1021 52.5L24.1034 52.5L24.1048 52.5L24.1062 52.5L24.1076 52.5L24.109 52.5L24.1104 52.5L24.1118 52.5L24.1132 52.5L24.1146 52.5L24.116 52.5L24.1174 52.5L24.1188 52.5L24.1202 52.5L24.1216 52.5L24.123 52.5L24.1244 52.5L24.1258 52.5L24.1272 52.5L24.1286 52.5L24.13 52.5L24.1314 52.5L24.1328 52.5L24.1342 52.5L24.1356 52.5L24.137 52.5L24.1384 52.5L24.1398 52.5L24.1412 52.5L24.1426 52.5L24.144 52.5L24.1454 52.5L24.1468 52.5L24.1482 52.5L24.1496 52.5L24.151 52.5L24.1524 52.5L24.1538 52.5L24.1552 52.5L24.1566 52.5L24.158 52.5L24.1595 52.5L24.1609 52.5L24.1623 52.5L24.1637 52.5L24.1651 52.5L24.1665 52.5L24.1679 52.5L24.1693 52.5L24.1707 52.5L24.1721 52.5L24.1735 52.5L24.175 52.5L24.1764 52.5L24.1778 52.5L24.1792 52.5L24.1806 52.5L24.182 52.5L24.1834 52.5L24.1848 52.5L24.1863 52.5L24.1877 52.5L24.1891 52.5L24.1905 52.5L24.1919 52.5L24.1933 52.5L24.1947 52.5L24.1962 52.5L24.1976 52.5L24.199 52.5L24.2004 52.5L24.2018 52.5L24.2032 52.5L24.2047 52.5L24.2061 52.5L24.2075 52.5L24.2089 52.5L24.2103 52.5L24.2117 52.5L24.2132 52.5L24.2146 52.5L24.216 52.5L24.2174 52.5L24.2188 52.5L24.2203 52.5L24.2217 52.5L24.2231 52.5L24.2245 52.5L24.2259 52.5L24.2274 52.5L24.2288 52.5L24.2302 52.5L24.2316 52.5L24.233 52.5L24.2345 52.5L24.2359 52.5L24.2373 52.5L24.2387 52.5L24.2401 52.5L24.2416 52.5L24.243 52.5L24.2444 52.5L24.2458 52.5L24.2473 52.5L24.2487 52.5L24.2501 52.5L24.2515 52.5L24.2529 52.5L24.2544 52.5L24.2558 52.5L24.2572 52.5L24.2586 52.5L24.2601 52.5L24.2615 52.5L24.2629 52.5L24.2643 52.5L24.2658 52.5L24.2672 52.5L24.2686 52.5L24.27 52.5L24.2715 52.5L24.2729 52.5L24.2743 52.5L24.2757 52.5L24.2772 52.5L24.2786 52.5L24.28 52.5L24.2814 52.5L24.2829 52.5L24.2843 52.5L24.2857 52.5L24.2871 52.5L24.2886 52.5L24.29 52.5L24.2914 52.5L24.2928 52.5L24.2943 52.5L24.2957 52.5L24.2971 52.5L24.2986 52.5L24.3 52.5L24.3014 52.5L24.3028 52.5L24.3043 52.5L24.3057 52.5L24.3071 52.5L24.3085 52.5L24.31 52.5L24.3114 52.5L24.3128 52.5L24.3142 52.5L24.3157 52.5L24.3171 52.5L24.3185 52.5L24.32 52.5L24.3214 52.5L24.3228 52.5L24.3242 52.5L24.3257 52.5L24.3271 52.5L24.3285 52.5L24.3299 52.5L24.3314 52.5L24.3328 52.5L24.3342 52.5L24.3356 52.5L24.3371 52.5L24.3385 52.5L24.3399 52.5L24.3414 52.5L24.3428 52.5L24.3442 52.5L24.3456 52.5L24.3471 52.5L24.3485 52.5L24.3499 52.5L24.3513 52.5L24.3528 52.5L24.3542 52.5L24.3556 52.5L24.357 52.5L24.3585 52.5L24.3599 52.5L24.3613 52.5L24.3627 52.5L24.3642 52.5L24.3656 52.5L24.367 52.5L24.3684 52.5L24.3699 52.5L24.3713 52.5L24.3727 52.5L24.3741 52.5L24.3756 52.5L24.377 52.5L24.3784 52.5L24.3798 52.5L24.3813 52.5L24.3827 52.5L24.3841 52.5L24.3855 52.5L24.387 52.5L24.3884 52.5L24.3898 52.5L24.3912 52.5L24.3927 52.5L24.3941 52.5L24.3955 52.5L24.3969 52.5L24.3984 52.5L24.3998 52.5L24.4012 52.5L24.4026 52.5L24.404 52.5L24.4055 52.5L24.4069 52.5L24.4083 52.5L24.4097 52.5L24.4112 52.5L24.4126 52.5L24.414 52.5L24.4154 52.5L24.4168 52.5L24.4183 52.5L24.4197 52.5L24.4211 52.5L24.4225 52.5L24.4239 52.5L24.4254 52.5L24.4268 52.5L24.4282 52.5L24.4296 52.5L24.431 52.5L24.4324 52.5L24.4339 52.5L24.4353 52.5L24.4367 52.5L24.4381 52.5L24.4395 52.5L24.441 52.5L24.4424 52.5L24.4438 52.5L24.4452 52.5L24.4466 52.5L24.448 52.5L24.4495 52.5L24.4509 52.5L24.4523 52.5L24.4537 52.5L24.4551 52.5L24.4565 52.5L24.4579 52.5L24.4594 52.5L24.4608 52.5L24.4622 52.5L24.4636 52.5L24.465 52.5L24.4664 52.5L24.4678 52.5L24.4692 52.5L24.4706 52.5L24.4721 52.5L24.4735 52.5L24.4749 52.5L24.4763 52.5L24.4777 52.5L24.4791 52.5L24.4805 52.5L24.4819 52.5L24.4833 52.5L24.4847 52.5L24.4862 52.5L24.4876 52.5L24.489 52.5L24.4904 52.5L24.4918 52.5L24.4932 52.5L24.4946 52.5L24.496 52.5L24.4974 52.5L24.4988 52.5L24.5002 52.5L24.5016 52.5L24.503 52.5L24.5044 52.5L24.5058 52.5L24.5072 52.5L24.5086 52.5L24.51 52.5L24.5114 52.5L24.5128 52.5L24.5142 52.5L24.5156 52.5L24.517 52.5L24.5184 52.5L24.5198 52.5L24.5212 52.5L24.5226 52.5L24.524 52.5L24.5254 52.5L24.5268 52.5L24.5282 52.5L24.5296 52.5L24.531 52.5L24.5324 52.5L24.5338 52.5L24.5352 52.5L24.5366 52.5L24.538 52.5L24.5394 52.5L24.5408 52.5L24.5422 52.5L24.5436 52.5L24.5449 52.5L24.5463 52.5L24.5477 52.5L24.5491 52.5L24.5505 52.5L24.5519 52.5L24.5533 52.5L24.5547 52.5L24.5561 52.5L24.5574 52.5L24.5588 52.5L24.5602 52.5L24.5616 52.5L24.563 52.5L24.5644 52.5L24.5658 52.5L24.5671 52.5L24.5685 52.5L24.5699 52.5L24.5713 52.5L24.5727 52.5L24.5741 52.5L24.5754 52.5L24.5768 52.5L24.5782 52.5L24.5796 52.5L24.5809 52.5L24.5823 52.5L24.5837 52.5L24.5851 52.5L24.5865 52.5L24.5878 52.5L24.5892 52.5L24.5906 52.5L24.592 52.5L24.5933 52.5L24.5947 52.5L24.5961 52.5L24.5974 52.5L24.5988 52.5L24.6002 52.5L24.6016 52.5L24.6029 52.5L24.6043 52.5L24.6057 52.5L24.607 52.5L24.6084 52.5L24.6098 52.5L24.6111 52.5L24.6125 52.5L24.6139 52.5L24.6152 52.5L24.6166 52.5L24.618 52.5L24.6193 52.5L24.6207 52.5L24.622 52.5L24.6234 52.5L24.6248 52.5L24.6261 52.5L24.6275 52.5L24.6288 52.5L24.6302 52.5L24.6316 52.5L24.6329 52.5L24.6343 52.5L24.6356 52.5L24.637 52.5L24.6383 52.5L24.6397 52.5L24.641 52.5L24.6424 52.5L24.6437 52.5L24.6451 52.5L24.6464 52.5L24.6478 52.5L24.6491 52.5L24.6505 52.5L24.6518 52.5L24.6532 52.5L24.6545 52.5L24.6559 52.5L24.6572 52.5L24.6586 52.5L24.6599 52.5L24.6612 52.5L24.6626 52.5L24.6639 52.5L24.6653 52.5L24.6666 52.5L24.6679 52.5L24.6686 52.5C25.5329 52.4605 26.3795 52.3667 27.2152 52.2361C26.0083 51.8135 24.8391 51.2893 23.7252 50.6735C21.7008 49.5722 19.8112 48.1419 18.1544 46.4562C16.5023 44.7752 15.0141 42.8373 13.8222 40.7138C12.5937 38.5471 11.7694 36.2077 11.0832 33.8228C10.8962 33.2015 10.7865 32.5575 10.6828 31.9489L10.6803 31.9342C10.5738 31.3093 10.4729 30.721 10.3049 30.1633C10.0247 29.2337 9.27761 28.4186 8.45237 27.8439L8.44837 27.8411C8.0432 27.5531 7.51149 27.2895 7.03558 27.1229C7.03269 27.1222 7.02917 27.1214 7.02498 27.1204C7.00926 27.1167 6.9883 27.1119 6.96247 27.1061C6.91093 27.0947 6.8429 27.08 6.76396 27.0635C6.60591 27.0305 6.40754 26.9911 6.21413 26.9561C6.01807 26.9207 5.83734 26.8919 5.71038 26.8781C5.69576 26.8766 5.68244 26.8752 5.67041 26.8742C5.64205 26.8758 5.61416 26.8767 5.58755 26.8764C5.55427 26.8761 5.48352 26.8743 5.40655 26.8527C5.36961 26.8423 5.28998 26.8165 5.21072 26.7513C5.1234 26.6795 5.03621 26.5566 5.02496 26.3923L5.02374 26.3923L5.02374 26.3564L5.02496 26.3564C5.03565 26.2008 5.11455 26.0814 5.19764 26.0082C5.27411 25.9409 5.35224 25.9122 5.39026 25.9002C5.46803 25.8756 5.53963 25.8721 5.57287 25.871C5.60177 25.87 5.63205 25.8704 5.66264 25.8716C5.67722 25.8701 5.69358 25.8682 5.71176 25.8659C5.84571 25.849 6.03526 25.8158 6.23967 25.7759C6.44153 25.7365 6.64836 25.6925 6.8129 25.6561C6.89507 25.6379 6.96598 25.6218 7.01976 25.6092C7.0335 25.606 7.04598 25.6031 7.05713 25.6005C7.06783 25.5979 7.0773 25.5956 7.08549 25.5936L7.09956 25.5902C7.56213 25.4281 8.06388 25.1682 8.51398 24.8708C9.17201 24.3722 9.73072 23.7491 10.1111 23.0048L10.1121 23.0029C10.4576 22.3343 10.6098 21.5261 10.7737 20.6559L10.778 20.6332C10.7782 20.632 10.7784 20.6309 10.7786 20.6297C10.9451 19.6733 11.1772 18.7578 11.4397 17.8509L11.4412 17.8455L11.4412 17.8455C11.8049 16.6389 12.2353 15.5037 12.7649 14.3686M1.10874 20.5059L13.2187 14.5786M1.10874 20.5059C1.52309 18.6729 2.12944 16.8715 2.83302 15.2085C3.79017 13.0571 5.00149 11.0485 6.43408 9.25289C7.86491 7.45949 9.51891 5.9113 11.3333 4.60852M1.10874 20.5059L11.3333 4.60852M12.7649 14.3686C12.7652 14.3681 12.7654 14.3676 12.7656 14.3671L13.2187 14.5786M12.7649 14.3686C12.7647 14.369 12.7646 14.3694 12.7644 14.3698L13.2187 14.5786M12.7649 14.3686C13.7894 12.1395 15.0788 10.0917 16.6006 8.26222C18.1222 6.43309 19.8783 4.81975 21.8049 3.53397L21.8128 3.5287L21.8129 3.52878L21.8176 3.52578C22.4313 3.13282 23.0556 2.73309 23.6817 2.36869L23.6881 2.36491L23.6947 2.36132C24.836 1.74213 26.0204 1.2152 27.2478 0.791045M13.2187 14.5786C14.2252 12.3882 15.4915 10.3774 16.985 8.58198C18.4785 6.78659 20.1993 5.20664 22.0825 3.94986L22.0826 3.94982C22.6994 3.55485 23.3163 3.15988 23.9332 2.80081C25.3316 2.04212 26.7943 1.42572 28.3214 0.970862C27.967 0.905466 27.609 0.845328 27.2478 0.791045M27.2478 0.791045C26.4997 0.678629 25.7381 0.591342 24.9679 0.534552L24.9546 0.533576L24.9546 0.5334C24.6265 0.500414 24.2944 0.499999 23.9332 0.499999C21.6798 0.499999 19.4294 0.850993 17.2765 1.58631L17.2738 1.58724C15.1787 2.28936 13.1772 3.30787 11.3333 4.60852M27.2478 0.791045C27.5931 0.671683 27.9419 0.560458 28.2941 0.457606C27.2265 0.264483 26.1251 0.118517 25.0046 0.0359064L11.3333 4.60852M29.3554 52.3537L29.2904 52.3537C28.9414 52.4292 28.5906 52.5008 28.2377 52.5671L29.3554 52.3537ZM29.3554 52.3537C29.3337 52.3483 29.3121 52.3429 29.2904 52.3375C29.2892 52.3371 29.288 52.3368 29.2867 52.3365C28.9437 52.2503 28.6028 52.1557 28.2645 52.0531L29.3554 52.3537ZM6.02272 26.3242C6.37868 26.2635 6.83599 26.1644 7.08051 26.1084L6.02272 26.3242Z" stroke="#204E79"/>
<path d="M58.8913 20.5059L58.8919 20.5089C59.1782 21.7401 59.3683 23.0032 59.4315 24.2629L59.4322 24.2754L59.4323 24.2754C59.5593 25.9605 59.4965 27.6886 59.3361 29.4293C59.1441 31.1256 58.8248 32.7828 58.3474 34.402L58.3409 34.4242C58.3365 34.4347 58.3313 34.4482 58.3261 34.4636C58.322 34.4757 58.3173 34.4907 58.3128 34.508C58.2989 34.5447 58.29 34.5743 58.284 34.5942L58.2833 34.5966C58.2766 34.619 58.2758 34.6206 58.2743 34.6239L58.274 34.6246L58.2604 34.6547L58.2509 34.6863C57.8994 35.8525 57.4841 36.9828 57.0053 38.0774C56.5312 39.1609 55.9599 40.1804 55.3468 41.2154C54.7456 42.1947 54.0467 43.1443 53.3416 44.0306C52.6089 44.9111 51.8126 45.7563 50.9852 46.5306C50.1613 47.3016 49.2721 48.0043 48.349 48.6379C47.4308 49.2682 46.4459 49.8308 45.4568 50.325C44.4387 50.8175 43.3928 51.2376 42.3511 51.5518L42.3408 51.5549L42.3408 51.555C41.2674 51.9042 40.1619 52.1487 39.0561 52.2885L39.0503 52.2892L39.0504 52.2893C38.0335 52.4298 37.0174 52.5 36.0343 52.5L36.033 52.5L36.0317 52.5L36.0303 52.5L36.029 52.5L36.0277 52.5L36.0263 52.5L36.025 52.5L36.0237 52.5L36.0223 52.5L36.021 52.5L36.0197 52.5L36.0183 52.5L36.017 52.5L36.0156 52.5L36.0143 52.5L36.0129 52.5L36.0116 52.5L36.0103 52.5L36.0089 52.5L36.0076 52.5L36.0062 52.5L36.0049 52.5L36.0035 52.5L36.0022 52.5L36.0008 52.5L35.9995 52.5L35.9981 52.5L35.9968 52.5L35.9954 52.5L35.9941 52.5L35.9927 52.5L35.9914 52.5L35.99 52.5L35.9887 52.5L35.9873 52.5L35.9859 52.5L35.9846 52.5L35.9832 52.5L35.9819 52.5L35.9805 52.5L35.9792 52.5L35.9778 52.5L35.9764 52.5L35.9751 52.5L35.9737 52.5L35.9723 52.5L35.971 52.5L35.9696 52.5L35.9683 52.5L35.9669 52.5L35.9655 52.5L35.9642 52.5L35.9628 52.5L35.9614 52.5L35.9601 52.5L35.9587 52.5L35.9573 52.5L35.9559 52.5L35.9546 52.5L35.9532 52.5L35.9518 52.5L35.9505 52.5L35.9491 52.5L35.9477 52.5L35.9463 52.5L35.945 52.5L35.9436 52.5L35.9422 52.5L35.9408 52.5L35.9395 52.5L35.9381 52.5L35.9367 52.5L35.9353 52.5L35.934 52.5L35.9326 52.5L35.9312 52.5L35.9298 52.5L35.9284 52.5L35.9271 52.5L35.9257 52.5L35.9243 52.5L35.9229 52.5L35.9215 52.5L35.9201 52.5L35.9188 52.5L35.9174 52.5L35.916 52.5L35.9146 52.5L35.9132 52.5L35.9118 52.5L35.9104 52.5L35.9091 52.5L35.9077 52.5L35.9063 52.5L35.9049 52.5L35.9035 52.5L35.9021 52.5L35.9007 52.5L35.8993 52.5L35.8979 52.5L35.8966 52.5L35.8952 52.5L35.8938 52.5L35.8924 52.5L35.891 52.5L35.8896 52.5L35.8882 52.5L35.8868 52.5L35.8854 52.5L35.884 52.5L35.8826 52.5L35.8812 52.5L35.8798 52.5L35.8784 52.5L35.877 52.5L35.8756 52.5L35.8742 52.5L35.8728 52.5L35.8714 52.5L35.87 52.5L35.8686 52.5L35.8672 52.5L35.8658 52.5L35.8644 52.5L35.863 52.5L35.8616 52.5L35.8602 52.5L35.8588 52.5L35.8574 52.5L35.856 52.5L35.8546 52.5L35.8532 52.5L35.8518 52.5L35.8504 52.5L35.849 52.5L35.8476 52.5L35.8462 52.5L35.8448 52.5L35.8434 52.5L35.842 52.5L35.8405 52.5L35.8391 52.5L35.8377 52.5L35.8363 52.5L35.8349 52.5L35.8335 52.5L35.8321 52.5L35.8307 52.5L35.8293 52.5L35.8279 52.5L35.8265 52.5L35.825 52.5L35.8236 52.5L35.8222 52.5L35.8208 52.5L35.8194 52.5L35.818 52.5L35.8166 52.5L35.8152 52.5L35.8137 52.5L35.8123 52.5L35.8109 52.5L35.8095 52.5L35.8081 52.5L35.8067 52.5L35.8053 52.5L35.8038 52.5L35.8024 52.5L35.801 52.5L35.7996 52.5L35.7982 52.5L35.7968 52.5L35.7953 52.5L35.7939 52.5L35.7925 52.5L35.7911 52.5L35.7897 52.5L35.7883 52.5L35.7868 52.5L35.7854 52.5L35.784 52.5L35.7826 52.5L35.7812 52.5L35.7797 52.5L35.7783 52.5L35.7769 52.5L35.7755 52.5L35.7741 52.5L35.7726 52.5L35.7712 52.5L35.7698 52.5L35.7684 52.5L35.767 52.5L35.7655 52.5L35.7641 52.5L35.7627 52.5L35.7613 52.5L35.7599 52.5L35.7584 52.5L35.757 52.5L35.7556 52.5L35.7542 52.5L35.7527 52.5L35.7513 52.5L35.7499 52.5L35.7485 52.5L35.7471 52.5L35.7456 52.5L35.7442 52.5L35.7428 52.5L35.7414 52.5L35.7399 52.5L35.7385 52.5L35.7371 52.5L35.7357 52.5L35.7342 52.5L35.7328 52.5L35.7314 52.5L35.73 52.5L35.7285 52.5L35.7271 52.5L35.7257 52.5L35.7243 52.5L35.7228 52.5L35.7214 52.5L35.72 52.5L35.7186 52.5L35.7171 52.5L35.7157 52.5L35.7143 52.5L35.7129 52.5L35.7114 52.5L35.71 52.5L35.7086 52.5L35.7072 52.5L35.7057 52.5L35.7043 52.5L35.7029 52.5L35.7014 52.5L35.7 52.5L35.6986 52.5L35.6972 52.5L35.6957 52.5L35.6943 52.5L35.6929 52.5L35.6915 52.5L35.69 52.5L35.6886 52.5L35.6872 52.5L35.6858 52.5L35.6843 52.5L35.6829 52.5L35.6815 52.5L35.68 52.5L35.6786 52.5L35.6772 52.5L35.6758 52.5L35.6743 52.5L35.6729 52.5L35.6715 52.5L35.6701 52.5L35.6686 52.5L35.6672 52.5L35.6658 52.5L35.6644 52.5L35.6629 52.5L35.6615 52.5L35.6601 52.5L35.6586 52.5L35.6572 52.5L35.6558 52.5L35.6544 52.5L35.6529 52.5L35.6515 52.5L35.6501 52.5L35.6487 52.5L35.6472 52.5L35.6458 52.5L35.6444 52.5L35.643 52.5L35.6415 52.5L35.6401 52.5L35.6387 52.5L35.6373 52.5L35.6358 52.5L35.6344 52.5L35.633 52.5L35.6316 52.5L35.6301 52.5L35.6287 52.5L35.6273 52.5L35.6259 52.5L35.6244 52.5L35.623 52.5L35.6216 52.5L35.6202 52.5L35.6187 52.5L35.6173 52.5L35.6159 52.5L35.6145 52.5L35.613 52.5L35.6116 52.5L35.6102 52.5L35.6088 52.5L35.6073 52.5L35.6059 52.5L35.6045 52.5L35.6031 52.5L35.6016 52.5L35.6002 52.5L35.5988 52.5L35.5974 52.5L35.596 52.5L35.5945 52.5L35.5931 52.5L35.5917 52.5L35.5903 52.5L35.5888 52.5L35.5874 52.5L35.586 52.5L35.5846 52.5L35.5832 52.5L35.5817 52.5L35.5803 52.5L35.5789 52.5L35.5775 52.5L35.5761 52.5L35.5746 52.5L35.5732 52.5L35.5718 52.5L35.5704 52.5L35.569 52.5L35.5676 52.5L35.5661 52.5L35.5647 52.5L35.5633 52.5L35.5619 52.5L35.5605 52.5L35.559 52.5L35.5576 52.5L35.5562 52.5L35.5548 52.5L35.5534 52.5L35.552 52.5L35.5505 52.5L35.5491 52.5L35.5477 52.5L35.5463 52.5L35.5449 52.5L35.5435 52.5L35.5421 52.5L35.5406 52.5L35.5392 52.5L35.5378 52.5L35.5364 52.5L35.535 52.5L35.5336 52.5L35.5322 52.5L35.5308 52.5L35.5294 52.5L35.5279 52.5L35.5265 52.5L35.5251 52.5L35.5237 52.5L35.5223 52.5L35.5209 52.5L35.5195 52.5L35.5181 52.5L35.5167 52.5L35.5153 52.5L35.5138 52.5L35.5124 52.5L35.511 52.5L35.5096 52.5L35.5082 52.5L35.5068 52.5L35.5054 52.5L35.504 52.5L35.5026 52.5L35.5012 52.5L35.4998 52.5L35.4984 52.5L35.497 52.5L35.4956 52.5L35.4942 52.5L35.4928 52.5L35.4914 52.5L35.49 52.5L35.4886 52.5L35.4872 52.5L35.4858 52.5L35.4844 52.5L35.483 52.5L35.4816 52.5L35.4802 52.5L35.4788 52.5L35.4774 52.5L35.476 52.5L35.4746 52.5L35.4732 52.5L35.4718 52.5L35.4704 52.5L35.469 52.5L35.4676 52.5L35.4662 52.5L35.4648 52.5L35.4634 52.5L35.462 52.5L35.4606 52.5L35.4592 52.5L35.4578 52.5L35.4564 52.5L35.4551 52.5L35.4537 52.5L35.4523 52.5L35.4509 52.5L35.4495 52.5L35.4481 52.5L35.4467 52.5L35.4453 52.5L35.4439 52.5L35.4426 52.5L35.4412 52.5L35.4398 52.5L35.4384 52.5L35.437 52.5L35.4356 52.5L35.4342 52.5L35.4329 52.5L35.4315 52.5L35.4301 52.5L35.4287 52.5L35.4273 52.5L35.4259 52.5L35.4246 52.5L35.4232 52.5L35.4218 52.5L35.4204 52.5L35.4191 52.5L35.4177 52.5L35.4163 52.5L35.4149 52.5L35.4135 52.5L35.4122 52.5L35.4108 52.5L35.4094 52.5L35.408 52.5L35.4067 52.5L35.4053 52.5L35.4039 52.5L35.4026 52.5L35.4012 52.5L35.3998 52.5L35.3984 52.5L35.3971 52.5L35.3957 52.5L35.3943 52.5L35.393 52.5L35.3916 52.5L35.3902 52.5L35.3889 52.5L35.3875 52.5L35.3861 52.5L35.3848 52.5L35.3834 52.5L35.382 52.5L35.3807 52.5L35.3793 52.5L35.378 52.5L35.3766 52.5L35.3752 52.5L35.3739 52.5L35.3725 52.5L35.3712 52.5L35.3698 52.5L35.3684 52.5L35.3671 52.5L35.3657 52.5L35.3644 52.5L35.363 52.5L35.3617 52.5L35.3603 52.5L35.359 52.5L35.3576 52.5L35.3563 52.5L35.3549 52.5L35.3536 52.5L35.3522 52.5L35.3509 52.5L35.3495 52.5L35.3482 52.5L35.3468 52.5L35.3455 52.5L35.3441 52.5L35.3428 52.5L35.3414 52.5L35.3401 52.5L35.3388 52.5L35.3374 52.5L35.3361 52.5L35.3347 52.5L35.3334 52.5L35.3321 52.5L35.3314 52.5C34.4671 52.4605 33.6205 52.3667 32.7848 52.2361C33.9917 51.8135 35.1609 51.2893 36.2748 50.6735C38.2992 49.5722 40.1888 48.1419 41.8456 46.4562C43.4977 44.7752 44.9859 42.8373 46.1778 40.7138C47.4063 38.5471 48.2306 36.2077 48.9168 33.8228C49.1038 33.2015 49.2135 32.5575 49.3172 31.9489L49.3197 31.9342C49.4262 31.3093 49.5271 30.721 49.6951 30.1633C49.9753 29.2337 50.7224 28.4186 51.5476 27.8439L51.5516 27.8411C51.9568 27.5531 52.4885 27.2895 52.9644 27.1229C52.9673 27.1222 52.9708 27.1214 52.975 27.1204C52.9907 27.1167 53.0117 27.1119 53.0375 27.1061C53.0891 27.0947 53.1571 27.08 53.236 27.0635C53.3941 27.0305 53.5925 26.9911 53.7859 26.9561C53.9819 26.9207 54.1627 26.8919 54.2896 26.8781C54.3042 26.8766 54.3176 26.8752 54.3296 26.8742C54.3579 26.8758 54.3858 26.8767 54.4125 26.8764C54.4457 26.8761 54.5165 26.8743 54.5934 26.8527C54.6304 26.8423 54.71 26.8165 54.7893 26.7513C54.8766 26.6795 54.9638 26.5566 54.975 26.3923L54.9763 26.3923L54.9763 26.3564L54.975 26.3564C54.9644 26.2008 54.8855 26.0814 54.8024 26.0082C54.7259 25.9409 54.6478 25.9122 54.6097 25.9002C54.532 25.8756 54.4604 25.8721 54.4271 25.871C54.3982 25.87 54.368 25.8704 54.3374 25.8716C54.3228 25.8701 54.3064 25.8682 54.2882 25.8659C54.1543 25.849 53.9647 25.8158 53.7603 25.7759C53.5585 25.7365 53.3516 25.6925 53.1871 25.6561C53.1049 25.6379 53.034 25.6218 52.9802 25.6092C52.9665 25.606 52.954 25.6031 52.9429 25.6005C52.9322 25.5979 52.9227 25.5956 52.9145 25.5936L52.9004 25.5902C52.4379 25.4281 51.9361 25.1682 51.486 24.8708C50.828 24.3722 50.2693 23.7491 49.8889 23.0048L49.8879 23.0029C49.5424 22.3343 49.3902 21.5261 49.2263 20.6559L49.222 20.6332C49.2218 20.632 49.2216 20.6309 49.2214 20.6297C49.0549 19.6733 48.8228 18.7578 48.5603 17.8509L48.5588 17.8455L48.5588 17.8455C48.1951 16.6389 47.7647 15.5037 47.2351 14.3686M58.8913 20.5059L46.7813 14.5786M58.8913 20.5059C58.4769 18.6729 57.8706 16.8715 57.167 15.2085C56.2098 13.0571 54.9985 11.0485 53.5659 9.25289C52.1351 7.45949 50.4811 5.9113 48.6667 4.60852M58.8913 20.5059L48.6667 4.60852M47.2351 14.3686C47.2348 14.3681 47.2346 14.3676 47.2344 14.3671L46.7813 14.5786M47.2351 14.3686C47.2353 14.369 47.2354 14.3694 47.2356 14.3698L46.7813 14.5786M47.2351 14.3686C46.2106 12.1395 44.9212 10.0917 43.3994 8.26222C41.8778 6.43309 40.1217 4.81975 38.1951 3.53397L38.1872 3.5287L38.1871 3.52878L38.1824 3.52578C37.5687 3.13282 36.9444 2.73309 36.3183 2.36869L36.3119 2.36491L36.3053 2.36132C35.164 1.74213 33.9796 1.2152 32.7522 0.791045M46.7813 14.5786C45.7748 12.3882 44.5085 10.3774 43.015 8.58198C41.5215 6.78659 39.8007 5.20664 37.9175 3.94986L37.9174 3.94982C37.3006 3.55485 36.6837 3.15988 36.0668 2.80081C34.6684 2.04212 33.2057 1.42572 31.6786 0.970862C32.033 0.905467 32.391 0.845328 32.7522 0.791045M32.7522 0.791045C33.5003 0.678629 34.2619 0.591342 35.0321 0.534552L35.0454 0.533576L35.0454 0.5334C35.3735 0.500415 35.7056 0.499999 36.0668 0.499999C38.3202 0.499999 40.5706 0.850993 42.7235 1.58631L42.7262 1.58724C44.8213 2.28936 46.8228 3.30787 48.6667 4.60852M32.7522 0.791045C32.4069 0.671683 32.0581 0.560458 31.7059 0.457606C32.7735 0.264483 33.8749 0.118517 34.9954 0.0359064L48.6667 4.60852M30.6446 52.3537L30.7096 52.3537C31.0586 52.4292 31.4094 52.5008 31.7623 52.5671L30.6446 52.3537ZM30.6446 52.3537C30.6663 52.3483 30.6879 52.3429 30.7096 52.3375C30.7108 52.3371 30.712 52.3368 30.7133 52.3365C31.0563 52.2503 31.3972 52.1557 31.7355 52.0531L30.6446 52.3537ZM53.9773 26.3242C53.6213 26.2635 53.164 26.1644 52.9195 26.1084L53.9773 26.3242Z" stroke="#204E79"/>
</svg>
