<svg width="85" height="88" viewBox="0 0 85 88" fill="none" xmlns="http://www.w3.org/2000/svg">
<path fill-rule="evenodd" clip-rule="evenodd" d="M76.1483 37.0923C78.797 32.2539 82.6537 20.9666 76.8899 14.5248C81.5518 14.3129 84.0946 13.8891 84.7304 8.59159C85.0482 5.83687 84.2006 2.3405 79.3269 2.3405C76.6781 2.3405 75.3007 4.24761 75.3007 5.51902C75.3007 6.53614 76.2189 7.49676 76.6781 7.84994C76.9253 7.3555 77.674 6.36662 78.6911 6.36662C79.9625 6.36662 80.4923 7.74399 80.4923 8.16779C80.4923 8.59159 80.4923 10.6047 78.2673 10.6047C76.0424 10.6047 71.9103 10.1808 68.6258 9.0154C65.1294 7.84994 58.1367 8.06184 53.8986 12.2999C49.6606 16.5379 45.9523 22.4711 51.1439 34.1257C52.1581 36.4922 56.0039 40.6789 58.7553 43.6743C59.4531 44.434 60.0806 45.117 60.5735 45.6743C61.1892 46.3703 62.0687 47.2692 63.0547 48.277L63.0547 48.2771C65.9713 51.2581 69.8203 55.1921 70.5329 57.6468C70.5704 57.7759 70.6104 57.9111 70.652 58.052L70.652 58.0522C71.669 61.4938 73.6833 68.311 65.2354 72.5858C63.964 73.2215 58.9843 72.268 58.9843 66.4407C58.9843 64.4276 62.2688 63.0503 63.4342 65.4871C63.7733 66.25 63.1517 67.0058 62.7985 67.2883C64.0346 67.4649 66.5068 67.0764 66.5068 64.1098C66.5068 60.4015 63.1164 59.8717 61.6331 59.8717C60.1497 59.8717 57.2891 60.6134 55.276 64.1098C53.2629 67.6061 52.9451 74.387 62.7985 77.1417C67.3544 78.2012 75.6185 73.6453 76.1483 63.3681C79.009 71.8442 75.1947 76.7179 69.7913 80.9559C66.9306 82.969 56.1236 84.4523 51.6737 77.8834C47.2238 71.3144 47.3297 64.7455 53.7927 58.3884C55.6998 56.4813 60.5735 56.0575 62.2688 55.9516C60.917 54.4309 49.9093 42.9595 44.5217 37.359L44.5571 37.3042L44.5571 15.0546C44.6097 14.9349 44.6646 14.8241 44.7213 14.7218C45.1641 14.1962 45.8157 13.6915 46.5216 13.6926C47.3808 13.8662 48.1857 14.7204 48.4773 15.4784C48.5734 15.2725 48.6553 15.0714 48.7241 14.8753C49.561 12.7807 48.8998 10.5343 47.3297 9.6511C47.2186 9.58859 47.1088 9.53155 47.0005 9.4797C45.47 8.29266 43.9245 9.06104 43.3036 9.6344L43.3036 8.5916C43.3154 8.58664 43.3273 8.58146 43.3395 8.57607C44.4836 8.2281 45.5107 6.77248 45.5107 5.62498C45.5107 4.01626 44.705 2.44999 43.8447 1.35534C43.4476 0.787069 43.0048 0.316183 42.5619 0.00958829C42.5416 0.0217648 42.521 0.0346051 42.5 0.0480938L42.4735 0.0312939C42.4616 0.02384 42.4498 0.0166073 42.4381 0.00958829C41.9952 0.316183 41.5524 0.787024 41.1553 1.35529C40.2951 2.44994 39.4894 4.01626 39.4894 5.62498C39.4894 6.77248 40.5165 8.22812 41.6605 8.57609L41.6781 8.58376L41.6964 8.5916L41.6964 9.6344C41.0755 9.06104 39.53 8.29268 37.9995 9.47972C37.8912 9.53157 37.7814 9.58859 37.6703 9.6511C36.1002 10.5343 35.439 12.7807 36.2759 14.8753C36.3448 15.0714 36.4266 15.2725 36.5227 15.4784C36.8143 14.7204 37.6192 13.8662 38.4784 13.6926C39.1843 13.6915 39.8359 14.1962 40.2787 14.7218C40.3354 14.8241 40.3903 14.9349 40.4429 15.0546L40.4429 37.3042L40.4783 37.359C35.0907 42.9595 24.083 54.4309 22.7312 55.9516C24.4265 56.0575 29.3002 56.4813 31.2073 58.3884C37.6703 64.7455 37.7762 71.3144 33.3263 77.8834C28.8764 84.4523 18.0694 82.969 15.2087 80.9559C9.80526 76.7179 5.99103 71.8442 8.85172 63.3681C9.3815 73.6453 17.6456 78.2012 22.2015 77.1417C32.0549 74.387 31.7371 67.6061 29.724 64.1098C27.7109 60.6134 24.8503 59.8717 23.367 59.8717C21.8836 59.8717 18.4932 60.4015 18.4932 64.1098C18.4932 67.0764 20.9654 67.4649 22.2015 67.2883C21.8483 67.0058 21.2267 66.25 21.5658 65.4871C22.7312 63.0503 26.0157 64.4276 26.0157 66.4407C26.0157 72.268 21.036 73.2215 19.7646 72.5858C11.3167 68.3109 13.331 61.4938 14.348 58.0522L14.3482 58.0514C14.3898 57.9108 14.4297 57.7757 14.4671 57.6468C15.1797 55.1921 19.0287 51.2581 21.9453 48.277L21.9454 48.2769C22.9314 47.2692 23.8108 46.3703 24.4265 45.6743C24.9193 45.1173 25.5464 44.4345 26.2439 43.6752L26.2443 43.6747L26.2447 43.6743C28.9961 40.6789 32.8419 36.4922 33.8561 34.1257C39.0477 22.4711 35.3394 16.5379 31.1014 12.2999C26.8633 8.06183 19.8706 7.84993 16.3742 9.01539C13.0897 10.1808 8.95766 10.6046 6.73269 10.6046C4.50772 10.6046 4.50772 8.59159 4.50772 8.16778C4.50772 7.74398 5.03748 6.36662 6.30889 6.36662C7.32602 6.36662 8.07473 7.3555 8.32195 7.84993C8.78107 7.49676 9.69931 6.53614 9.69931 5.51902C9.69931 4.24761 8.32195 2.3405 5.67314 2.3405C0.799404 2.3405 -0.048199 5.83686 0.269649 8.59159C0.905353 13.8891 3.44824 14.3129 8.11007 14.5248C2.34635 20.9666 6.20296 32.2539 8.85172 37.0923C10.0173 41.1184 6.62668 41.5423 6.30883 41.5423C6.2856 41.5423 6.25559 41.5434 6.21976 41.5448L6.21942 41.5448C5.76476 41.562 4.37841 41.6143 4.08386 39.8471C3.76601 37.9399 5.67318 37.5161 6.62668 37.728C6.41478 36.9864 6.09693 36.4566 5.67318 36.1388C3.44822 34.2317 -0.895765 36.3507 0.163744 41.3304C1.22325 46.3101 6.41483 45.7803 8.85172 44.6148C15.0995 41.4443 13.6324 36.3041 12.902 33.7449C12.8026 33.3963 12.7167 33.0956 12.6659 32.8543C14.4671 34.1257 19.1289 34.1257 21.2479 33.596C28.6645 31.265 26.7574 23.0009 25.0622 20.8819C21.142 15.7962 15.9504 18.7629 15.3147 20.8819C14.0433 25.5437 17.3278 26.2147 19.1289 25.9675C18.8464 25.7909 18.2813 25.2259 18.2813 24.3783C18.5992 21.5176 24.4265 23.1068 21.5658 27.6627C18.7051 32.2186 10.335 29.252 10.335 22.0473C10.335 14.8427 20.0825 11.2404 25.5919 13.8891C31.1014 16.5379 32.1609 24.0604 31.843 26.2854C30.7835 32.7484 24.6384 38.3637 23.5789 38.9995C20.0825 41.4363 17.5397 39.4233 17.1159 38.0459C13.2169 42.623 16.4095 43.9085 18.4932 43.9791C16.9746 45.7097 13.6407 49.4674 12.454 50.654C10.9707 52.1373 6.20294 57.9646 4.93153 61.567C0.905396 70.7847 6.20293 78.4131 6.73269 78.9429C6.20293 78.9429 5.35533 79.4726 4.93153 79.8964C2.91846 81.8035 3.23631 83.4988 4.50772 84.8761C6.34802 81.9112 9.07626 83.0899 10.598 83.7473L10.5995 83.748C10.6542 83.7716 10.7073 83.7945 10.7588 83.8166C11.0472 83.9402 11.4158 84.1439 11.8644 84.3919C13.7231 85.4194 16.9569 87.207 21.5658 87.207C33.8561 87.1011 41.3786 76.7179 40.9548 69.0895C40.2767 60.2744 33.6795 54.7508 30.4657 53.0909L42.4381 40.5887L42.5 40.4927L42.5619 40.5887L54.5344 53.0909C51.3205 54.7508 44.7233 60.2744 44.0452 69.0895C43.6214 76.7179 51.1439 87.1011 63.4342 87.207C68.0431 87.207 71.2769 85.4194 73.1356 84.3919L73.1356 84.3919C73.5843 84.1439 73.9528 83.9402 74.2412 83.8166C74.2931 83.7944 74.3467 83.7712 74.4019 83.7473L74.402 83.7473C75.9238 83.0899 78.652 81.9112 80.4923 84.8761C81.7637 83.4988 82.0815 81.8035 80.0685 79.8964C79.6447 79.4726 78.7971 78.9429 78.2673 78.9429C78.7971 78.4131 84.0946 70.7847 80.0685 61.567C78.7971 57.9646 74.0293 52.1373 72.546 50.654C71.3593 49.4674 68.0254 45.7097 66.5068 43.9791C68.5905 43.9085 71.7831 42.623 67.8841 38.0459C67.4603 39.4233 64.9175 41.4363 61.4212 38.9995C60.3616 38.3637 54.2165 32.7484 53.157 26.2854C52.8391 24.0604 53.8986 16.5379 59.4081 13.8891C64.9175 11.2404 74.665 14.8427 74.665 22.0473C74.665 29.252 66.2949 32.2186 63.4342 27.6627C60.5735 23.1068 66.4008 21.5176 66.7187 24.3783C66.7187 25.2259 66.1536 25.7909 65.8711 25.9675C67.6722 26.2147 70.9567 25.5437 69.6853 20.8819C69.0496 18.7629 63.858 15.7962 59.9378 20.8819C58.2426 23.0009 56.3355 31.265 63.7521 33.596C65.8711 34.1257 70.5329 34.1257 72.3341 32.8543C72.2833 33.0956 72.1975 33.3962 72.098 33.7448L72.098 33.7448L72.098 33.7448C71.3676 36.3041 69.9005 41.4443 76.1483 44.6148C78.5852 45.7803 83.7768 46.3101 84.8363 41.3304C85.8958 36.3507 81.5518 34.2317 79.3268 36.1388C78.9031 36.4566 78.5852 36.9864 78.3733 37.728C79.3268 37.5161 81.234 37.9399 80.9161 39.8471C80.6216 41.6143 79.2352 41.562 78.7806 41.5448L78.7803 41.5448C78.7444 41.5434 78.7144 41.5423 78.6912 41.5423C78.3733 41.5423 74.9827 41.1184 76.1483 37.0923ZM45.9527 56.3766C46.9769 56.1647 49.0253 55.0204 49.0253 52.1386C49.0253 48.5362 45.4229 49.2779 44.8932 50.2315C45.211 48.8541 44.1515 46.3113 42.5623 45.5696C41.5028 46.2053 40.0195 47.6886 40.0195 50.2315C39.5957 49.8077 36.5231 48.4303 35.8874 52.1386C35.5483 54.8509 37.8651 56.0941 39.0659 56.3766C37.7945 54.7873 39.8076 52.8802 41.1849 54.8933C42.2868 56.5037 42.5623 58.0365 42.5623 58.6016C42.6329 57.7186 42.9861 55.7409 43.8337 54.8933C44.8932 53.5159 47.0122 54.0457 45.9527 56.3766Z" fill="url(#paint0_linear)"/>
<defs>
<linearGradient id="paint0_linear" x1="55.5" y1="87.0098" x2="55.5" y2="5.00977" gradientUnits="userSpaceOnUse">
<stop stop-color="#EDEEF1" stop-opacity="0"/>
<stop offset="1" stop-color="#EDEEF1"/>
</linearGradient>
</defs>
</svg>
