<svg width="90" height="24" viewBox="0 0 90 24" fill="none" xmlns="http://www.w3.org/2000/svg">
  <path fill-rule="evenodd" clip-rule="evenodd" d="M17.12 7.84C15.2 7.76 13.36 7.6 11.6 7.52C11.28 5.6 9.92 3.2 7.84 2.96C7.6 2.96 7.44 2.88 7.2 2.88V7.2C5.28 7.04 3.44 6.88 1.52 6.72C1.52 3.36 1.2 3.2 0 0C5.6 1.28 15.76 0.4 17.12 7.84ZM17.2 9.76C17.12 11.36 16.56 13.04 15.6 14.48L10.24 14.8C11.12 13.36 11.6 11.36 11.6 9.44C13.44 9.52 15.28 9.68 17.2 9.76ZM13.76 16.48C12.16 17.76 10.08 18.64 7.36 18.88C7.52 20.08 7.84 20.72 8.64 22.48C6.16 22.88 3.76 23.28 1.6 23.76V17.36C5.6 17.04 9.6 16.72 13.76 16.48ZM7.28 15.04C5.36 15.2 3.44 15.36 1.6 15.52V8.8C3.44 8.96 5.36 9.12 7.28 9.28V15.04ZM21.04 17.76C22.88 17.68 24.8 17.6 26.72 17.6C27.12 18.56 27.44 19.52 27.76 20.48C30.16 20.32 32.64 20.24 35.12 20.16C34.56 18.72 34 17.28 33.44 15.84C28.48 15.92 23.6 16.08 18.88 16.32C18.56 18 18.16 19.68 17.84 21.36C18.64 21.28 19.52 21.2 20.32 21.12C20.64 19.92 20.88 18.88 21.04 17.76ZM32.72 13.84C32.32 12.64 31.84 11.52 31.44 10.32C28.96 10.24 26.48 10.16 24 10.08C24.48 11.36 24.96 12.72 25.44 14.08C27.84 13.92 30.24 13.84 32.72 13.84ZM30.72 8.32C30.16 6.8 29.6 5.28 29.04 3.68C26 3.52 23.2 3.36 20.4 3.04C21.68 5.36 21.12 5.28 20.64 8C23.84 8.16 27.12 8.24 30.72 8.32ZM20.16 9.92C19.84 11.36 19.6 12.8 19.28 14.24C20.08 14.24 20.96 14.16 21.76 14.16C22 12.8 22.32 11.36 22.64 10C21.84 10 21.04 10 20.16 9.92ZM42.88 4.16L45.52 8.56C42.88 8.56 40.24 8.56 37.6 8.48C37.6 5.52 38 6.24 36.72 4.08C38.72 4.08 40.8 4.16 42.88 4.16ZM46.72 10.48L48.72 13.76C46.64 13.76 44.64 13.76 42.56 13.76L40.56 10.48C42.56 10.48 44.64 10.48 46.72 10.48ZM49.36 13.68V10.4C50.08 10.4 50.8 10.4 51.52 10.4V13.76C50.88 13.76 50.08 13.68 49.36 13.68ZM49.36 8.48C49.36 5.92 49.28 6.32 47.92 4.16C49.12 4.16 50.32 4.08 51.52 4.08V8.48C50.88 8.48 50.08 8.48 49.36 8.48ZM51.6 15.68C51.6 18 51.28 18 52.48 20.08C50.4 20 48.4 20 46.32 19.92L43.76 15.6C46.32 15.68 48.96 15.68 51.6 15.68ZM39.76 10.4V10.72V13.76C39.04 13.76 38.32 13.76 37.6 13.76V10.4C38.32 10.4 39.04 10.4 39.76 10.4ZM39.76 15.68C39.76 18.16 39.84 17.84 41.2 20C40 20 38.8 20 37.6 20.08V15.76C38.32 15.68 39.04 15.68 39.76 15.68Z" fill="#00C2FF"></path>
  <path fill-rule="evenodd" clip-rule="evenodd" d="M57.0399 17.44C58.9599 17.52 60.8799 17.52 62.7199 17.6C63.1199 18.64 63.4399 19.6 63.8399 20.64C66.3999 20.88 68.8799 21.04 71.2799 21.28C70.7199 19.6 70.1599 17.92 69.5199 16.16C64.7999 15.92 59.9199 15.76 54.9599 15.68C54.5599 17.12 54.2399 18.56 53.9199 20.08C54.7199 20.08 55.5999 20.16 56.3999 20.16C56.6399 19.28 56.7999 18.4 57.0399 17.44ZM68.8799 14.24C68.3999 12.8 67.9199 11.44 67.4399 9.99998C65.0399 10.08 62.6399 10.16 60.1599 10.24C60.6399 11.44 61.0399 12.72 61.5199 13.92C63.9199 14.08 66.3999 14.16 68.8799 14.24ZM66.7199 8.07998C66.1599 6.47998 65.5999 4.95998 65.0399 3.35998C62.3199 3.59998 59.5199 3.75998 56.6399 3.83998C57.7599 5.75998 57.1999 6.07998 56.7199 8.31998C59.9199 8.31998 63.1199 8.23998 66.7199 8.07998ZM56.2399 10.32C55.9999 11.52 55.6799 12.64 55.4399 13.84C56.2399 13.84 57.1199 13.84 57.9199 13.92C58.2399 12.72 58.4799 11.52 58.7199 10.32C57.9199 10.32 57.0399 10.32 56.2399 10.32ZM87.36 2.39998C88.16 3.27998 88.72 4.87998 89.04 6.63998C87.28 6.79998 85.44 6.95998 83.6 7.11998C83.2 4.79998 82.16 2.87998 79.2799 3.19998V7.43998C77.3599 7.59998 75.5199 7.67998 73.5999 7.75998V5.43998C73.1199 4.55998 72.6399 3.67998 72.1599 2.79998C75.8399 2.31998 84.8 -0.480014 87.36 2.39998ZM89.28 8.55998C89.44 10.64 89.2 13.68 88.16 15.52C86.32 15.36 84.4 15.2 82.48 15.04C83.68 13.52 83.76 10.96 83.76 9.03998C85.6 8.87998 87.44 8.71998 89.28 8.55998ZM86.48 17.28C84.8 18.32 82.4 18.48 79.2799 18.32C79.2799 19.36 79.2799 18.24 79.2799 19.28C79.7599 20.32 80.16 21.36 80.64 22.48C78.3999 22.16 75.9999 21.84 73.5999 21.52V16.4C78.0799 16.64 82.4 16.96 86.48 17.28ZM73.5999 14.48V9.67998C75.5199 9.59998 77.4399 9.43998 79.2799 9.35998V14.8C77.4399 14.72 75.5199 14.56 73.5999 14.48Z" fill="#00C2FF"></path>
</svg>