<?xml version="1.0" encoding="utf-8"?>
<!-- Generator: Adobe Illustrator 21.1.0, SVG Export Plug-In . SVG Version: 6.00 Build 0)  -->
<svg version="1.1" id="Layer_1" xmlns="http://www.w3.org/2000/svg" xmlns:xlink="http://www.w3.org/1999/xlink" x="0px" y="0px"
	 viewBox="0 0 456.8 522.5" style="enable-background:new 0 0 456.8 522.5;" xml:space="preserve">
<style type="text/css">
	.st0{fill:none;stroke:#00B0FD;stroke-width:6.4178;stroke-miterlimit:10;}
	.st1{fill:none;stroke:#41A9DF;stroke-width:1.6044;stroke-miterlimit:10;}
	.st2{fill:#231F20;stroke:#41A9DF;stroke-width:7.4235;stroke-miterlimit:10;}
	.st3{fill:#FFFFFF;}
</style>
<g>
	<g>
		<polygon class="st0" points="448.5,390.5 448.5,136 228.2,8.8 7.9,136 7.9,390.5 228.2,517.7 		"/>
		<polygon class="st0" points="228.2,97.8 227.7,43.3 37.4,153.1 85,170.8 		"/>
		<polygon class="st0" points="361,119.7 361,164.9 377.2,182 377.2,215.7 418.9,236 418.9,153.1 		"/>
		<g>
			<polygon class="st0" points="225.8,440.4 171.7,400.6 137.4,431.1 228.2,483.5 367.7,403 328.9,385.6 			"/>
		</g>
		<line class="st1" x1="288.6" y1="107" x2="316.3" y2="59.7"/>
		<path class="st1" d="M228.2,70.2"/>
		<line class="st1" x1="395.4" y1="359.8" x2="448.5" y2="390.5"/>
		<line class="st1" x1="7.9" y1="390.5" x2="61" y2="359.8"/>
		<polygon class="st2" points="395.4,359.8 395.4,166.7 228.2,70.2 61,166.7 61,359.8 228.2,456.3 		"/>
	</g>
	<g>
		<path class="st3" d="M226.6,349.3h-9.4v-87.6H98.9v87.6h-9.4V173.1h9.4v79h118.3v-79h9.4V349.3z"/>
		<path class="st3" d="M355.1,325.2c-14.1,15.9-33.2,23.9-57.4,23.9h-63.5V172.8h63.5c24.5,0,43.8,7.8,57.6,23.4
			c13.9,15.4,20.8,36.9,20.8,64.5C376.2,287.9,369.2,309.4,355.1,325.2z M348.8,202.8c-12-13.7-29-20.6-51-20.6h-54.1v157.4h54.1
			c21.5,0,38.4-7,50.8-21.1c12.2-13.9,18.3-33.2,18.3-57.9C366.8,235.6,360.8,216.3,348.8,202.8z"/>
	</g>
</g>
</svg>
