<?xml version="1.0" encoding="utf-8"?>
<!-- Generator: Adobe Illustrator 22.1.0, SVG Export Plug-In . SVG Version: 6.00 Build 0)  -->
<svg version="1.1" id="Layer_1" xmlns="http://www.w3.org/2000/svg" xmlns:xlink="http://www.w3.org/1999/xlink" x="0px" y="0px"
	 viewBox="0 0 866.2 522.5" style="enable-background:new 0 0 866.2 522.5;" xml:space="preserve">
<style type="text/css">
	.st0{fill:none;stroke:#00B0FD;stroke-width:6.4178;stroke-miterlimit:10;}
	.st1{fill:none;stroke:#41A9DF;stroke-width:1.6044;stroke-miterlimit:10;}
	.st2{fill:#231F20;stroke:#41A9DF;stroke-width:7.4235;stroke-miterlimit:10;}
	.st3{fill:#FFFFFF;}
	.st4{fill:#00B0FD;}
</style>
<g>
	<g>
		<polygon class="st0" points="448.5,390.5 448.5,136 228.2,8.8 7.9,136 7.9,390.5 228.2,517.7 		"/>
		<polygon class="st0" points="228.2,97.8 227.7,43.3 37.4,153.1 85,170.8 		"/>
		<polygon class="st0" points="361,119.7 361,164.9 377.2,182 377.2,215.7 418.9,236 418.9,153.1 		"/>
		<g>
			<polygon class="st0" points="225.8,440.4 171.7,400.6 137.4,431.1 228.2,483.5 367.7,403 328.9,385.6 			"/>
		</g>
		<line class="st1" x1="288.6" y1="107" x2="316.3" y2="59.7"/>
		<path class="st1" d="M228.2,70.2"/>
		<line class="st1" x1="395.4" y1="359.8" x2="448.5" y2="390.5"/>
		<line class="st1" x1="7.9" y1="390.5" x2="61" y2="359.8"/>
		<polygon class="st2" points="395.4,359.8 395.4,166.7 228.2,70.2 61,166.7 61,359.8 228.2,456.3 		"/>
	</g>
	<g>
		<path class="st3" d="M226.6,349.3h-9.4v-87.6H98.9v87.6h-9.4V173.1h9.4v79h118.3v-79h9.4V349.3z"/>
		<path class="st3" d="M355.1,325.2c-14.1,15.9-33.2,23.9-57.4,23.9h-63.5V172.8h63.5c24.5,0,43.8,7.8,57.6,23.4
			c13.9,15.4,20.8,36.9,20.8,64.5C376.2,287.9,369.2,309.4,355.1,325.2z M348.8,202.8c-12-13.7-29-20.6-51-20.6h-54.1v157.4h54.1
			c21.5,0,38.4-7,50.8-21.1c12.2-13.9,18.3-33.2,18.3-57.9C366.8,235.6,360.8,216.3,348.8,202.8z"/>
	</g>
</g>
<g>
	<path class="st4" d="M574.8,248.5h-8V216h-36.3v32.4h-8v-68.9h8v29.3h36.3v-29.3h8V248.5z"/>
	<path class="st4" d="M645.8,179.5v44.6c0,7.9-2.4,14-7.1,18.5c-4.7,4.5-11.3,6.7-19.6,6.7s-14.7-2.3-19.3-6.8
		c-4.5-4.5-6.8-10.8-6.8-18.7v-44.4h8v45c0,5.8,1.6,10.2,4.7,13.2c3.1,3.1,7.8,4.6,13.9,4.6c5.8,0,10.3-1.5,13.4-4.6
		c3.1-3.1,4.7-7.5,4.7-13.3v-44.9H645.8z"/>
	<path class="st4" d="M694.5,248.5l-23.4-61.1h-0.4c0.4,4.8,0.7,10.6,0.7,17.3v43.9H664v-68.9h12.1l21.8,56.9h0.4l22-56.9h12v68.9
		h-8V204c0-5.1,0.2-10.6,0.7-16.6h-0.4l-23.6,61H694.5z"/>
	<path class="st4" d="M794.5,248.5l-8.6-21.9h-27.6l-8.5,21.9h-8.1l27.3-69.2h6.7l27.1,69.2H794.5z M783.5,219.3l-8-21.4
		c-1-2.7-2.1-6-3.2-9.9c-0.7,3-1.7,6.3-3,9.9l-8.1,21.4H783.5z"/>
	<path class="st4" d="M866.2,248.5H857l-37.7-57.9H819c0.5,6.8,0.8,13,0.8,18.7v39.2h-7.4v-68.9h9.1l37.6,57.6h0.4
		c-0.1-0.8-0.2-3.6-0.4-8.2c-0.2-4.6-0.3-7.9-0.2-9.9v-39.6h7.5V248.5z"/>
	<path class="st4" d="M577.5,311.3c0,11.4-3.1,20.1-9.3,26.1s-15.1,9-26.7,9h-19.1v-68.9h21.1c10.7,0,19,3,25,8.9
		C574.5,292.4,577.5,300.7,577.5,311.3z M569,311.6c0-9-2.3-15.8-6.8-20.3c-4.5-4.6-11.2-6.8-20.1-6.8h-11.6v55.1h9.8
		c9.6,0,16.7-2.3,21.5-7S569,320.8,569,311.6z"/>
	<path class="st4" d="M631.3,346.5h-38.4v-68.9h38.4v7.1h-30.4v22.2h28.6v7.1h-28.6v25.4h30.4V346.5z"/>
	<path class="st4" d="M685.5,328.1c0,6.1-2.2,10.8-6.6,14.2c-4.4,3.4-10.4,5.1-17.9,5.1c-8.2,0-14.5-1.1-18.9-3.2v-7.7
		c2.8,1.2,5.9,2.1,9.2,2.8c3.3,0.7,6.6,1,9.9,1c5.3,0,9.4-1,12.1-3c2.7-2,4.1-4.8,4.1-8.5c0-2.4-0.5-4.3-1.4-5.9
		c-1-1.5-2.6-2.9-4.8-4.2s-5.7-2.8-10.3-4.4c-6.4-2.3-11-5-13.7-8.2c-2.8-3.1-4.1-7.2-4.1-12.3c0-5.3,2-9.5,6-12.7
		c4-3.1,9.3-4.7,15.8-4.7c6.9,0,13.2,1.3,18.9,3.8l-2.5,7c-5.7-2.4-11.2-3.6-16.6-3.6c-4.2,0-7.6,0.9-9.9,2.7
		c-2.4,1.8-3.6,4.4-3.6,7.6c0,2.4,0.4,4.3,1.3,5.9c0.9,1.5,2.4,2.9,4.5,4.2c2.1,1.3,5.3,2.7,9.6,4.2c7.2,2.6,12.2,5.3,14.9,8.3
		S685.5,323.4,685.5,328.1z"/>
	<path class="st4" d="M699.6,346.5v-68.9h8v68.9H699.6z"/>
	<path class="st4" d="M756.8,310.3h23.4v33.5c-3.6,1.2-7.4,2-11.1,2.6s-8.1,0.9-13.1,0.9c-10.4,0-18.6-3.1-24.4-9.3
		c-5.8-6.2-8.7-14.9-8.7-26.1c0-7.2,1.4-13.4,4.3-18.8c2.9-5.4,7-9.5,12.4-12.4c5.4-2.8,11.7-4.3,19-4.3c7.4,0,14.2,1.4,20.6,4.1
		l-3.1,7.1c-6.2-2.6-12.2-4-18-4c-8.4,0-14.9,2.5-19.7,7.5s-7.1,11.9-7.1,20.8c0,9.3,2.3,16.4,6.8,21.2s11.2,7.2,20,7.2
		c4.8,0,9.4-0.5,14-1.6v-21.2h-15.4V310.3z"/>
	<path class="st4" d="M850.7,346.5h-9.1l-37.7-57.9h-0.4c0.5,6.8,0.8,13,0.8,18.7v39.2h-7.4v-68.9h9.1l37.6,57.6h0.4
		c-0.1-0.8-0.2-3.6-0.4-8.2c-0.2-4.6-0.3-7.9-0.2-9.9v-39.6h7.5V346.5z"/>
</g>
</svg>
