<?xml version="1.0" encoding="utf-8"?>
<!-- Generator: Adobe Illustrator 22.1.0, SVG Export Plug-In . SVG Version: 6.00 Build 0)  -->
<svg version="1.1" id="Layer_1" xmlns="http://www.w3.org/2000/svg" xmlns:xlink="http://www.w3.org/1999/xlink" x="0px" y="0px"
	 viewBox="0 0 974.5 522.5" style="enable-background:new 0 0 974.5 522.5;" xml:space="preserve">
<style type="text/css">
	.st0{fill:none;stroke:#00B0FD;stroke-width:6.4178;stroke-miterlimit:10;}
	.st1{fill:none;stroke:#41A9DF;stroke-width:1.6044;stroke-miterlimit:10;}
	.st2{fill:#231F20;stroke:#41A9DF;stroke-width:7.4235;stroke-miterlimit:10;}
	.st3{fill:#FFFFFF;}
	.st4{fill:#00B0FD;}
</style>
<g>
	<g>
		<g>
			<polygon class="st0" points="448.5,390.5 448.5,136 228.2,8.8 7.9,136 7.9,390.5 228.2,517.7 			"/>
			<polygon class="st0" points="228.2,97.8 227.7,43.3 37.4,153.1 85,170.8 			"/>
			<polygon class="st0" points="361,119.7 361,164.9 377.2,182 377.2,215.7 418.9,236 418.9,153.1 			"/>
			<g>
				<polygon class="st0" points="225.8,440.4 171.7,400.6 137.4,431.1 228.2,483.5 367.7,403 328.9,385.6 				"/>
			</g>
			<line class="st1" x1="288.6" y1="107" x2="316.3" y2="59.7"/>
			<path class="st1" d="M228.2,70.2"/>
			<line class="st1" x1="395.4" y1="359.8" x2="448.5" y2="390.5"/>
			<line class="st1" x1="7.9" y1="390.5" x2="61" y2="359.8"/>
			<polygon class="st2" points="395.4,359.8 395.4,166.7 228.2,70.2 61,166.7 61,359.8 228.2,456.3 			"/>
		</g>
		<g>
			<path class="st3" d="M226.6,349.3h-9.4v-87.6H98.9v87.6h-9.4V173.1h9.4v79h118.3v-79h9.4V349.3z"/>
			<path class="st3" d="M355.1,325.2c-14.1,15.9-33.2,23.9-57.4,23.9h-63.5V172.8h63.5c24.5,0,43.8,7.8,57.6,23.4
				c13.9,15.4,20.8,36.9,20.8,64.5C376.2,287.9,369.2,309.4,355.1,325.2z M348.8,202.8c-12-13.7-29-20.6-51-20.6h-54.1v157.4h54.1
				c21.5,0,38.4-7,50.8-21.1c12.2-13.9,18.3-33.2,18.3-57.9C366.8,235.6,360.8,216.3,348.8,202.8z"/>
		</g>
	</g>
	<g>
		<path class="st4" d="M574.3,243h-11v-44.6h-49.8v44.5h-11v-94.6h11v40.2h49.8v-40.2h11V243z"/>
		<path class="st4" d="M671.7,148.3v61.2c0,10.8-3.3,19.2-9.7,25.4c-6.5,6.2-15.5,9.2-26.9,9.2c-11.4,0-20.2-3.2-26.5-9.3
			c-6.2-6.2-9.3-14.8-9.3-25.7v-60.9h11v61.8c0,8,2.2,14,6.5,18.1c4.3,4.3,10.7,6.3,19.1,6.3c8,0,14.1-2.1,18.4-6.3
			c4.3-4.3,6.5-10.3,6.5-18.3v-61.6h11.1V148.3z"/>
		<path class="st4" d="M738.5,243l-32.1-83.9h-0.5c0.5,6.6,1,14.5,1,23.7v60.2h-10.2v-94.6h16.6l29.9,78.1h0.5l30.2-78.1h16.5v94.6
			h-11v-61.2c0-7,0.3-14.5,1-22.8h-0.5l-32.4,83.7h-8.9V243z"/>
		<path class="st4" d="M875.8,243L864,212.9h-37.9L814.4,243h-11.1l37.5-95h9.2l37.2,95H875.8z M860.7,202.9l-11-29.4
			c-1.4-3.7-2.9-8.2-4.4-13.6c-1,4.1-2.3,8.6-4.1,13.6l-11.1,29.4H860.7z"/>
		<path class="st4" d="M974.2,243h-12.6l-51.7-79.5h-0.4c0.7,9.3,1.1,17.8,1.1,25.7V243h-10.2v-94.6h12.5l51.6,79.1h0.5
			c-0.1-1.1-0.3-4.9-0.5-11.3c-0.3-6.3-0.4-10.8-0.3-13.6v-54.3h10.3V243H974.2z"/>
		<path class="st4" d="M578,329.2c0,15.6-4.3,27.6-12.8,35.8c-8.5,8.2-20.7,12.4-36.6,12.4h-26.2v-94.6h29
			c14.7,0,26.1,4.1,34.3,12.2C573.9,303.2,578,314.6,578,329.2z M566.3,329.6c0-12.4-3.2-21.7-9.3-27.9c-6.2-6.3-15.4-9.3-27.6-9.3
			h-15.9V368h13.4c13.2,0,22.9-3.2,29.5-9.6C563,351.9,566.3,342.2,566.3,329.6z"/>
		<path class="st4" d="M651.8,377.5h-52.7v-94.6h52.7v9.7h-41.7v30.5h39.3v9.7h-39.3v34.9h41.7V377.5z"/>
		<path class="st4" d="M726.2,352.2c0,8.4-3,14.8-9.1,19.5c-6,4.7-14.3,7-24.6,7c-11.3,0-19.9-1.5-25.9-4.4v-10.6
			c3.8,1.6,8.1,2.9,12.6,3.8c4.5,1,9.1,1.4,13.6,1.4c7.3,0,12.9-1.4,16.6-4.1c3.7-2.7,5.6-6.6,5.6-11.7c0-3.3-0.7-5.9-1.9-8.1
			c-1.4-2.1-3.6-4-6.6-5.8s-7.8-3.8-14.1-6c-8.8-3.2-15.1-6.9-18.8-11.3c-3.8-4.3-5.6-9.9-5.6-16.9c0-7.3,2.7-13,8.2-17.4
			c5.5-4.3,12.8-6.5,21.7-6.5c9.5,0,18.1,1.8,25.9,5.2l-3.4,9.6c-7.8-3.3-15.4-4.9-22.8-4.9c-5.8,0-10.4,1.2-13.6,3.7
			c-3.3,2.5-4.9,6-4.9,10.4c0,3.3,0.5,5.9,1.8,8.1c1.2,2.1,3.3,4,6.2,5.8c2.9,1.8,7.3,3.7,13.2,5.8c9.9,3.6,16.7,7.3,20.4,11.4
			S726.2,345.8,726.2,352.2z"/>
		<path class="st4" d="M745.5,377.5v-94.6h11v94.6H745.5z"/>
		<path class="st4" d="M824.1,327.8h32.1v46c-4.9,1.6-10.2,2.7-15.2,3.6c-5.1,0.8-11.1,1.2-18,1.2c-14.3,0-25.5-4.3-33.5-12.8
			c-8-8.5-11.9-20.4-11.9-35.8c0-9.9,1.9-18.4,5.9-25.8c4-7.4,9.6-13,17-17c7.4-3.8,16.1-5.9,26.1-5.9c10.2,0,19.5,1.9,28.3,5.6
			l-4.3,9.7c-8.5-3.6-16.7-5.5-24.7-5.5c-11.5,0-20.4,3.4-27,10.3c-6.6,6.9-9.7,16.3-9.7,28.5c0,12.8,3.2,22.5,9.3,29.1
			s15.4,9.9,27.4,9.9c6.6,0,12.9-0.7,19.2-2.2v-29.1h-21.1v-9.9H824.1z"/>
		<path class="st4" d="M952.9,377.5h-12.5L888.7,298h-0.5c0.7,9.3,1.1,17.8,1.1,25.7v53.8h-10.2v-94.6h12.5l51.6,79.1h0.5
			c-0.1-1.1-0.3-4.9-0.5-11.3c-0.3-6.3-0.4-10.8-0.3-13.6v-54.3h10.3v94.7H952.9z"/>
	</g>
</g>
</svg>
