<svg width="9" height="9" viewBox="0 0 9 9" fill="none" xmlns="http://www.w3.org/2000/svg">
<g clip-path="url(#clip0)">
<path d="M5.36817 2.66759L4.49989 1.79907L3.63162 2.66759L3.25879 2.29474L4.49989 1.05338L5.741 2.29474L5.36817 2.66759Z" fill="#262A2C"/>
<path d="M4.49989 7.20092L5.36817 6.3324L5.741 6.70525L4.49989 7.94661L3.25879 6.70525L3.63162 6.3324L4.49989 7.20092Z" fill="#262A2C"/>
<path d="M1.88611 5.42273L1.46631 5.00293C1.5487 4.85271 1.59978 4.68299 1.59978 4.49988C1.59978 4.31677 1.5487 4.14705 1.46631 3.99683L1.88611 3.57703L2.80896 4.49988L1.88611 5.42273Z" fill="#262A2C"/>
<path d="M6.08203 2.54471L6.74121 3.20389L5.44551 4.49959L6.74121 5.79529L6.08203 6.45447L4.5 4.87244L2.91797 6.45447L2.25879 5.79529L3.55449 4.49959L2.25879 3.20389L2.91797 2.54471L4.5 4.12674L6.08203 2.54471Z" fill="#262A2C"/>
<path d="M6.19141 4.49988L7.11426 3.57703L7.53406 3.99683C7.45167 4.14705 7.40059 4.31677 7.40059 4.49988C7.40059 4.68299 7.45167 4.85271 7.53406 5.00293L7.11426 5.42273L6.19141 4.49988Z" fill="#262A2C"/>
<path d="M7.92773 4.49988C7.92773 4.20863 8.16383 3.97253 8.45508 3.97253C8.74633 3.97253 9 4.20863 9 4.49988C9 4.79113 8.74633 5.02722 8.45508 5.02722C8.16383 5.02722 7.92773 4.79113 7.92773 4.49988Z" fill="#262A2C"/>
<path d="M1.07227 4.49988C1.07227 4.79113 0.836174 5.02722 0.544922 5.02722C0.25367 5.02722 -3.5782e-08 4.79113 -2.30509e-08 4.49988C-1.03199e-08 4.20863 0.25367 3.97253 0.544922 3.97253C0.836174 3.97253 1.07227 4.20863 1.07227 4.49988Z" fill="#262A2C"/>
<path d="M4.91943 6.03717L4.50133 5.61906L4.08322 6.03717L4.50133 6.45528L4.91943 6.03717Z" fill="#262A2C"/>
<path d="M4.91895 2.96341L4.50084 2.5453L4.08273 2.96341L4.50084 3.38152L4.91895 2.96341Z" fill="#262A2C"/>
</g>
<defs>
<clipPath id="clip0">
<rect width="9" height="9" fill="white" transform="matrix(1 0 0 -1 0 9)"/>
</clipPath>
</defs>
</svg>
