<svg width="35" height="36" fill="none" xmlns="http://www.w3.org/2000/svg"><path d="M24.61 16.625a8.193 8.193 0 0 0-4.558 1.385 8.231 8.231 0 0 0-1.243 12.643 8.198 8.198 0 0 0 8.94 1.782 8.205 8.205 0 0 0 3.681-3.027 8.228 8.228 0 0 0 1.383-4.565 8.234 8.234 0 0 0-2.406-5.808 8.205 8.205 0 0 0-5.798-2.41zm5.468 9.861H26.25v3.835a.548.548 0 0 1-.547.548h-2.187a.546.546 0 0 1-.547-.548v-3.835H19.14a.546.546 0 0 1-.547-.548v-2.191a.549.549 0 0 1 .547-.548h3.828v-3.835a.549.549 0 0 1 .547-.548h2.187a.546.546 0 0 1 .547.548V23.2h3.828a.546.546 0 0 1 .547.548v2.191a.548.548 0 0 1-.547.548zM2.734 24.295h2.202a2.714 2.714 0 0 1-.561-1.644V9.503c0-.726.29-1.422.802-1.936a2.735 2.735 0 0 1 1.932-.803h20.235V5.12a.549.549 0 0 0-.547-.547H11.484a1.64 1.64 0 0 1-1.64-1.644.548.548 0 0 0-.547-.548H2.734a.546.546 0 0 0-.546.548v20.818a.548.548 0 0 0 .546.548z" fill="#262A2C"/><path d="M25.156 23.747v-3.835h-1.093v3.835a.548.548 0 0 1-.547.548h-3.828v1.095h3.828a.546.546 0 0 1 .547.548v3.835h1.093v-3.835a.549.549 0 0 1 .547-.548h3.828v-1.095h-3.828a.546.546 0 0 1-.547-.548zm-9.816.548a9.295 9.295 0 0 1 4.46-7.427 9.256 9.256 0 0 1 8.637-.503V8.407a.548.548 0 0 0-.546-.547H7.109a1.64 1.64 0 0 0-1.64 1.643v13.148a1.645 1.645 0 0 0 1.64 1.644h8.231zM6.563 9.503a.548.548 0 0 1 .546-.548h2.188v1.096h-1.64v1.643H6.561v-2.19zm0 3.287h1.093v1.096H6.563V12.79z" fill="#262A2C"/></svg>