<svg width="15" height="15" viewBox="0 0 15 15" fill="none" xmlns="http://www.w3.org/2000/svg">
<path d="M0.554916 1.80286H2.14566L4.41158 9.9971C4.47631 10.2376 4.69828 10.404 4.94799 10.404H11.9122C12.1342 10.404 12.3284 10.2746 12.4208 10.0711L14.955 4.24448C15.029 4.06877 15.0104 3.87455 14.9087 3.71731C14.807 3.56008 14.6312 3.4676 14.4463 3.4676H6.75147C6.44626 3.4676 6.19655 3.71731 6.19655 4.02252C6.19655 4.32772 6.44626 4.57743 6.75147 4.57743H13.5954L11.5423 9.29422H5.36418L3.09829 1.09997C3.03356 0.859498 2.8116 0.693024 2.56188 0.693024H0.554916C0.249712 0.693024 0 0.942736 0 1.24794C0 1.55314 0.249712 1.80286 0.554916 1.80286Z" fill="white"/>
<path d="M4.42089 14.307C5.11453 14.307 5.67869 13.7428 5.67869 13.0492C5.67869 12.3555 5.11453 11.7914 4.42089 11.7914C3.72724 11.7914 3.16309 12.3555 3.16309 13.0491C3.16309 13.7428 3.72724 14.307 4.42089 14.307Z" fill="white"/>
<path d="M12.2827 14.307C12.3104 14.307 12.3474 14.307 12.3752 14.307C12.7081 14.2792 13.0133 14.1313 13.2353 13.8723C13.4572 13.6226 13.559 13.2988 13.5405 12.9567C13.4942 12.2723 12.8931 11.7451 12.1994 11.7913C11.5058 11.8376 10.9879 12.448 11.0341 13.1324C11.0803 13.789 11.626 14.307 12.2827 14.307Z" fill="white"/>
</svg>
