<svg width="9" height="7" viewBox="0 0 9 7" fill="none" xmlns="http://www.w3.org/2000/svg">
<path d="M0.103846 3.84614C0.0346154 3.77691 0 3.67307 0 3.60384C0 3.53461 0.0346154 3.43076 0.103846 3.36153L0.588462 2.87691C0.726923 2.73845 0.934615 2.73845 1.07308 2.87691L1.10769 2.91153L3.01154 4.95384C3.08077 5.02307 3.18462 5.02307 3.25385 4.95384L7.89231 0.142298H7.92692C8.06538 0.00383677 8.27308 0.00383677 8.41154 0.142298L8.89615 0.626914C9.03462 0.765375 9.03462 0.973067 8.89615 1.11153L3.35769 6.85768C3.28846 6.92691 3.21923 6.96153 3.11538 6.96153C3.01154 6.96153 2.94231 6.92691 2.87308 6.85768L0.173077 3.94999L0.103846 3.84614Z" fill="#C9D4DA"/>
</svg>
