<svg width="13" height="13" viewBox="0 0 13 13" fill="none" xmlns="http://www.w3.org/2000/svg">
<path d="M6.5 0C2.9159 0 0 2.9159 0 6.5C0 10.0841 2.9159 13 6.5 13C10.0841 13 13 10.0841 13 6.5C13 2.9159 10.0841 0 6.5 0ZM6.5 11.6169C3.67856 11.6169 1.38296 9.32157 1.38296 6.5C1.38296 3.67843 3.67856 1.38309 6.5 1.38309C9.32144 1.38309 11.617 3.67843 11.617 6.5C11.617 9.32157 9.32144 11.6169 6.5 11.6169Z" fill="#262A2C"/>
<path d="M9.88605 6.29916H6.96493V2.78691C6.96493 2.49134 6.72529 2.25171 6.42973 2.25171C6.13417 2.25171 5.89453 2.49134 5.89453 2.78691V6.83436C5.89453 7.12992 6.13417 7.36956 6.42973 7.36956H9.88605C10.1816 7.36956 10.4212 7.12992 10.4212 6.83436C10.4212 6.53879 10.1816 6.29916 9.88605 6.29916Z" fill="#262A2C"/>
</svg>
