<svg width="23" height="23" viewBox="0 0 23 23" fill="none" xmlns="http://www.w3.org/2000/svg">
<path d="M0.425926 3.83335H1.7037V5.53705C1.7037 5.77259 1.89409 5.96298 2.12963 5.96298H7.24074C7.47628 5.96298 7.66667 5.77259 7.66667 5.53705V3.83335H22.5741C22.8096 3.83335 23 3.64296 23 3.40742C23 3.17189 22.8096 2.9815 22.5741 2.9815H7.66667V1.27779C7.66667 1.04226 7.47628 0.851868 7.24074 0.851868H2.12963C1.89409 0.851868 1.7037 1.04226 1.7037 1.27779V2.9815H0.425926C0.190389 2.9815 0 3.17189 0 3.40742C0 3.64296 0.190389 3.83335 0.425926 3.83335ZM2.55556 1.70372H6.81482V5.11113H2.55556V1.70372Z" fill="white"/>
<path d="M22.5741 11.0741H14.4815V9.37038C14.4815 9.13485 14.2911 8.94446 14.0556 8.94446H8.94444C8.70891 8.94446 8.51852 9.13485 8.51852 9.37038V11.0741H0.425926C0.190389 11.0741 0 11.2645 0 11.5C0 11.7355 0.190389 11.9259 0.425926 11.9259H8.51852V13.6296C8.51852 13.8652 8.70891 14.0556 8.94444 14.0556H14.0556C14.2911 14.0556 14.4815 13.8652 14.4815 13.6296V11.9259H22.5741C22.8096 11.9259 23 11.7355 23 11.5C23 11.2645 22.8096 11.0741 22.5741 11.0741ZM13.6296 13.2037H9.37037V9.79631H13.6296V13.2037Z" fill="white"/>
<path d="M22.5741 19.1667H21.2963V17.463C21.2963 17.2274 21.1059 17.037 20.8704 17.037H15.7593C15.5237 17.037 15.3333 17.2274 15.3333 17.463V19.1667H0.425926C0.190389 19.1667 0 19.3571 0 19.5926C0 19.8281 0.190389 20.0185 0.425926 20.0185H15.3333V21.7222C15.3333 21.9578 15.5237 22.1482 15.7593 22.1482H20.8704C21.1059 22.1482 21.2963 21.9578 21.2963 21.7222V20.0185H22.5741C22.8096 20.0185 23 19.8281 23 19.5926C23 19.3571 22.8096 19.1667 22.5741 19.1667ZM20.4444 21.2963H16.1852V17.8889H20.4444V21.2963Z" fill="white"/>
</svg>
