<svg width="18" height="21" viewBox="0 0 18 21" fill="none" xmlns="http://www.w3.org/2000/svg">
<path d="M0 19.3045C0 19.7648 0.287511 20.0856 0.700006 20.0856H5.93746C6.34995 20.0856 6.68745 19.709 6.68745 19.2487C6.68745 18.7884 6.34995 18.4118 5.93746 18.4118H2.51247L6.78742 13.6694C7.07493 13.3486 7.07493 12.8325 6.78742 12.4978C6.49991 12.1769 6.04991 12.1769 5.74992 12.4978L1.49998 17.2681V13.1812C1.49998 12.7209 1.16249 12.3443 0.749991 12.3443C0.337496 12.3443 0 12.7209 0 13.1812V19.3045Z" fill="white"/>
<path d="M11.1377 19.2487C11.1377 19.709 11.4752 20.0856 11.8877 20.0856H17.2877C17.7002 20.0856 17.9877 19.7648 17.9877 19.3045V13.3765C17.9877 12.9162 17.6502 12.5396 17.2377 12.5396C16.8252 12.5396 16.4877 12.9162 16.4877 13.3765V17.0868L12.4127 12.5117C12.1252 12.1909 11.6627 12.1909 11.3627 12.5117C11.0752 12.8325 11.0752 13.3346 11.3627 13.6694L15.6377 18.4118H11.8627C11.4752 18.4118 11.1377 18.7884 11.1377 19.2487Z" fill="white"/>
<path d="M6.99993 0.836898C6.99993 0.376604 6.66243 0 6.24994 0H0.700006C0.287511 0 0 0.320827 0 0.781121V6.76494C0 7.22523 0.337496 7.60184 0.749991 7.60184C1.16249 7.60184 1.49998 7.22523 1.49998 6.76494V2.60831L5.74992 7.37863C5.89991 7.54601 6.07493 7.6297 6.26242 7.6297C6.44992 7.6297 6.63742 7.54601 6.78742 7.37863C7.07493 7.0578 7.07493 6.55566 6.78742 6.22091L2.68748 1.6738H6.24994C6.67492 1.6738 6.99993 1.29719 6.99993 0.836898Z" fill="white"/>
<path d="M11.387 7.37869C11.5369 7.54607 11.7244 7.62976 11.9119 7.62976C12.0994 7.62976 12.2745 7.54607 12.4119 7.37869L16.4994 2.80371V6.76501C16.4994 7.2253 16.8369 7.6019 17.2494 7.6019C17.6619 7.6019 17.9994 7.2253 17.9994 6.76501V0.781237C17.9994 0.320947 17.7119 0.00012207 17.2994 0.00012207H12.2119C11.7994 0.00012207 11.4619 0.376723 11.4619 0.837013C11.4619 1.2973 11.7994 1.6739 12.2119 1.6739H15.4994L11.3994 6.22103C11.0994 6.5418 11.0994 7.04394 11.387 7.37869Z" fill="white"/>
</svg>
