<svg width="16" height="15" viewBox="0 0 16 15" fill="none" xmlns="http://www.w3.org/2000/svg">
<path d="M7.66536 14.5979C7.76729 14.659 7.87943 14.6998 8.00176 14.6998C8.11391 14.6998 8.23624 14.6692 8.33816 14.5979C8.6134 14.4144 15.0764 10.1533 15.8104 5.82081C16.1875 3.57814 15.4944 2.19173 14.8521 1.42718C14.0978 0.530113 12.9765 0 11.8653 0C11.4983 0 11.1415 0.0611642 10.8255 0.183493C9.27599 0.764552 8.22602 1.79416 7.65514 2.49755C7.09448 1.80434 6.13622 0.805352 4.9741 0.407785C4.61729 0.285457 4.22995 0.224293 3.82216 0.224293C2.78237 0.224293 1.79356 0.652442 1.11054 1.40681C0.509078 2.06944 -0.17391 3.33348 0.0401647 5.53539C0.46835 9.86783 7.36972 14.4042 7.66536 14.5979ZM2.01785 2.22231C2.63968 1.53932 3.41445 1.43736 3.8222 1.43736C4.08725 1.43736 4.34209 1.47812 4.57657 1.55969C5.99352 2.03882 7.12506 3.84316 7.14546 3.85334C7.25761 4.03683 7.46146 4.14898 7.67554 4.13876C7.88961 4.13876 8.08329 4.01643 8.19543 3.83294C8.20562 3.81254 9.22504 2.07958 11.2638 1.31503C11.4371 1.25387 11.6512 1.2131 11.8653 1.2131C12.6197 1.2131 13.3842 1.59027 13.9143 2.21213C14.6075 3.02766 14.8419 4.21015 14.5973 5.61692C14.3322 7.16643 13.0682 9.02171 10.9376 10.9892C9.73472 12.1003 8.5522 12.9566 8.00172 13.344C7.42066 12.9464 6.1668 12.029 4.89253 10.8669C2.67026 8.82804 1.41639 6.94213 1.26348 5.41303C1.13097 4.01647 1.38581 2.91552 2.01785 2.22231Z" fill="#262A2C"/>
</svg>
