<svg width="26" height="28" fill="none" xmlns="http://www.w3.org/2000/svg"><path d="M11.96 16.29v9.268l-2.064-2.303a.515.515 0 0 0-.785 0 .671.671 0 0 0 0 .876l3.011 3.36a.555.555 0 0 0 .18.134.503.503 0 0 0 .426 0 .558.558 0 0 0 .18-.133l3.012-3.361a.671.671 0 0 0 0-.876.515.515 0 0 0-.786 0l-2.064 2.303V16.29c0-.343-.249-.62-.555-.62-.307 0-.555.277-.555.62zM12.727.305a.503.503 0 0 0-.425 0 .559.559 0 0 0-.18.133L9.11 3.8a.671.671 0 0 0 0 .876.515.515 0 0 0 .785 0l2.065-2.303v9.269c0 .342.248.62.555.62a.53.53 0 0 0 .393-.182.655.655 0 0 0 .162-.438v-9.27l2.064 2.303a.515.515 0 0 0 .785 0 .672.672 0 0 0 0-.876L12.907.439a.552.552 0 0 0-.18-.134z" fill="#262A2C"/></svg>