<svg width="10" height="10" fill="none" xmlns="http://www.w3.org/2000/svg"><g clip-path="url(#clip0)" fill="#262A2C"><path d="M5.965 2.964L5 1.999l-.965.965-.414-.414 1.38-1.38 1.378 1.38-.414.414zM5 8.001l.965-.965.414.414L5 8.83 3.621 7.45l.414-.414.965.965zM2.095 6.025L1.63 5.56c.091-.167.148-.356.148-.56 0-.203-.057-.391-.148-.558l.466-.467L3.121 5 2.095 6.025z"/><path d="M6.758 2.827l.732.733L6.05 5l1.44 1.44-.732.732L5 5.414 3.242 7.172l-.732-.733L3.95 5 2.51 3.56l.732-.732L5 4.585l1.758-1.758z"/><path d="M6.879 5l1.025-1.026.467.467A1.157 1.157 0 0 0 8.222 5c0 .203.057.392.149.559l-.467.466L6.88 5zm1.93 0c0-.324.262-.586.586-.586.323 0 .605.262.605.586a.603.603 0 0 1-.605.586A.586.586 0 0 1 8.809 5zM1.191 5a.586.586 0 0 1-.586.586A.603.603 0 0 1 0 5c0-.324.282-.586.605-.586.324 0 .586.262.586.586zm4.275 1.708L5 6.243l-.464.465.464.465.465-.465zm0-3.415L5 2.828l-.464.465.464.464.465-.464z"/></g><defs><clipPath id="clip0"><path fill="#fff" transform="matrix(1 0 0 -1 0 10)" d="M0 0h10v10H0z"/></clipPath></defs></svg>