<svg width="16" height="16" viewBox="0 0 16 16" fill="none" xmlns="http://www.w3.org/2000/svg">
<path d="M0.139711 15.184L4.02796 11.2958C2.98494 10.0967 2.35346 8.53215 2.35346 6.82217C2.35346 3.05809 5.4151 0 9.17563 0C12.9397 0 15.9978 3.06164 15.9978 6.82217C15.9978 10.5827 12.9362 13.6443 9.17563 13.6443C7.46565 13.6443 5.90113 13.0129 4.70202 11.9698L0.813769 15.8581C0.72153 15.9503 0.597361 16 0.47674 16C0.356119 16 0.231951 15.9539 0.139711 15.8581C-0.0447674 15.6736 -0.0447674 15.3685 0.139711 15.184ZM15.0435 6.82217C15.0435 3.5867 12.4111 0.957871 9.17918 0.957871C5.9437 0.957871 3.31488 3.59024 3.31488 6.82217C3.31488 10.0541 5.9437 12.69 9.17918 12.69C12.4111 12.69 15.0435 10.0576 15.0435 6.82217Z" fill="white"/>
</svg>
