<svg width="13" height="13" viewBox="0 0 13 13" fill="none" xmlns="http://www.w3.org/2000/svg">
<path d="M11.1641 1.63892C9.97867 0.546308 8.50417 0 6.74326 0C4.89217 0 3.31425 0.620563 2.01213 1.86434C0.710004 3.10812 0.0576172 4.65422 0.0576172 6.5053C0.0576172 8.27948 0.67818 9.80437 1.91665 11.0826C3.16043 12.3609 4.83118 13 6.9342 13C8.20184 13 9.44562 12.7401 10.6655 12.2177C11.0633 12.0479 11.2569 11.5918 11.0952 11.1913C10.9281 10.7776 10.456 10.5867 10.045 10.7617C8.98418 11.2179 7.9446 11.4459 6.93155 11.4459C5.31914 11.4459 4.07006 10.9553 3.1843 9.97144C2.30119 8.99021 1.85831 7.8366 1.85831 6.51326C1.85831 5.07589 2.33301 3.87719 3.27977 2.91452C4.22388 1.95451 5.38809 1.47185 6.76712 1.47185C8.03742 1.47185 9.11147 1.86699 9.98662 2.65728C10.8618 3.44757 11.2994 4.44206 11.2994 5.64076C11.2994 6.46022 11.0978 7.14443 10.6974 7.68809C10.2969 8.23439 9.88055 8.5049 9.44827 8.5049C9.2149 8.5049 9.09821 8.38025 9.09821 8.12831C9.09821 7.92411 9.11412 7.68543 9.1433 7.40963L9.63656 3.37597H7.9393L7.83057 3.77111C7.39829 3.4184 6.92359 3.24072 6.40911 3.24072C5.5923 3.24072 4.89217 3.56691 4.31139 4.21665C3.72796 4.86638 3.43889 5.70441 3.43889 6.72807C3.43889 7.72787 3.69613 8.53672 4.21327 9.14933C4.7304 9.76459 5.35097 10.0696 6.07761 10.0696C6.72734 10.0696 7.28161 9.79641 7.74305 9.25275C8.09046 9.77519 8.60229 10.0351 9.27855 10.0351C10.273 10.0351 11.1323 9.60281 11.8563 8.73562C12.5803 7.87107 12.9436 6.82619 12.9436 5.60363C12.9436 4.05488 12.3522 2.73154 11.1641 1.63892ZM7.25509 7.74113C6.95541 8.14423 6.5974 8.34843 6.18104 8.34843C5.89727 8.34843 5.6692 8.19992 5.49683 7.9029C5.32179 7.60588 5.23428 7.23725 5.23428 6.79437C5.23428 6.24806 5.35627 5.80783 5.60025 5.47368C5.84423 5.13953 6.14656 4.96981 6.50723 4.96981C6.82016 4.96981 7.09862 5.09445 7.3426 5.34639C7.58659 5.59833 7.70858 5.93248 7.70858 6.35149C7.70592 6.87393 7.55476 7.33537 7.25509 7.74113Z" fill="#262A2C"/>
</svg>
