<svg width="22" height="22" viewBox="0 0 22 22" fill="none" xmlns="http://www.w3.org/2000/svg">
<g clip-path="url(#clip0)">
<path d="M10.687 0.00559939C6.31606 0.158965 2.6849 3.56909 2.26541 7.92196C2.1797 8.79254 2.22932 9.63605 2.38268 10.4435C2.38268 10.4435 2.39622 10.5382 2.44132 10.7186C2.57665 11.3231 2.77963 11.9095 3.03223 12.4598C3.91183 14.5437 5.94618 18.0306 10.5111 21.8241C10.7907 22.0586 11.2012 22.0586 11.4854 21.8241C16.0503 18.0351 18.0846 14.5483 18.9687 12.4553C19.2258 11.905 19.4243 11.3231 19.5596 10.7141C19.6002 10.5382 19.6182 10.439 19.6182 10.439C19.722 9.89767 19.7761 9.34285 19.7761 8.77449C19.7761 3.82169 15.6759 -0.17032 10.687 0.00559939ZM10.9982 13.1409C8.6436 13.1409 6.73556 11.2329 6.73556 8.87824C6.73556 6.52363 8.6436 4.61558 10.9982 4.61558C13.3528 4.61558 15.2609 6.52363 15.2609 8.87824C15.2609 11.2329 13.3528 13.1409 10.9982 13.1409Z" fill="#EC4949"/>
</g>
<defs>
<clipPath id="clip0">
<rect width="22" height="22" fill="white"/>
</clipPath>
</defs>
</svg>
