<svg width="11" height="13" viewBox="0 0 11 13" fill="none" xmlns="http://www.w3.org/2000/svg">
<path d="M5.00106 0.00330873C2.41825 0.0939338 0.27257 2.10901 0.0246836 4.68116C-0.0259598 5.19559 0.00336009 5.69403 0.0939851 6.17114C0.0939851 6.17114 0.101981 6.22712 0.128636 6.33373C0.208599 6.6909 0.328544 7.03741 0.477809 7.36259C0.99757 8.59403 2.19968 10.6544 4.89711 12.8961C5.06237 13.0347 5.30492 13.0347 5.47285 12.8961C8.17027 10.6571 9.37239 8.59669 9.89481 7.35993C10.0467 7.03474 10.164 6.6909 10.244 6.33107C10.268 6.22712 10.2786 6.16848 10.2786 6.16848C10.3399 5.84862 10.3719 5.52077 10.3719 5.18493C10.3719 2.25827 7.94904 -0.100644 5.00106 0.00330873ZM5.18498 7.76508C3.79362 7.76508 2.66614 6.63759 2.66614 5.24623C2.66614 3.85487 3.79362 2.72739 5.18498 2.72739C6.57634 2.72739 7.70382 3.85487 7.70382 5.24623C7.70382 6.63759 6.57634 7.76508 5.18498 7.76508Z" fill="#262A2C"/>
</svg>
