<svg width="39" height="31" viewBox="0 0 39 31" fill="none" xmlns="http://www.w3.org/2000/svg">
<path d="M37.5377 12.5476H7.47754V24.3571H37.5377V12.5476Z" fill="#EF5656"/>
<path d="M7.47754 24.3572V28.7857C7.47754 29.6013 8.02438 30.2619 8.69946 30.2619H36.3157C36.9908 30.2619 37.5376 29.6013 37.5376 28.7857V24.3572H7.47754Z" fill="#CCEEFF"/>
<path d="M36.3166 6.64294H31.4288H29.2293H15.7877H13.5882H9.92236H8.94481H8.70044C8.02528 6.64294 7.47852 7.30354 7.47852 8.11913V12.5477H37.5386V8.11913C37.5386 7.30354 36.9917 6.64294 36.3166 6.64294Z" fill="#CCEEFF"/>
<path d="M7.10413 3.73889C6.45922 3.9029 5.98242 4.47883 5.98242 5.16673V6.64291H8.22583V5.16673C8.22583 4.47883 7.74903 3.9029 7.10413 3.73889Z" fill="#CCEEFF"/>
<path d="M23.4535 0.738159H20.0676C19.5016 0.738159 18.9834 1.05406 18.7299 1.55449L16.1523 6.64292H27.3688L24.7913 1.55449C24.5378 1.05406 24.0196 0.738159 23.4535 0.738159Z" fill="#CCEEFF"/>
<path d="M12.6002 18.4524C12.6002 13.9764 15.9714 10.2625 20.3582 9.67633C19.9609 9.62326 19.5554 9.59521 19.1431 9.59521C14.1793 9.59521 10.1699 13.571 10.1699 18.4524C10.1699 23.3328 14.1784 27.3095 19.1431 27.3095C19.5553 27.3095 19.9608 27.2815 20.3582 27.2284C15.9707 26.6422 12.6002 22.9275 12.6002 18.4524Z" fill="white"/>
<path d="M28.1157 18.4524C28.1157 13.9773 24.7452 10.2626 20.3577 9.67639C15.9708 10.2625 12.5996 13.9765 12.5996 18.4524C12.5996 22.9276 15.9702 26.6423 20.3577 27.2284C24.7445 26.6423 28.1157 22.9284 28.1157 18.4524Z" fill="#57555C"/>
<path d="M19.1432 12.5476C22.4416 12.5476 25.1254 15.1966 25.1254 18.4524C25.1254 21.7081 22.4416 24.3571 19.1432 24.3571C15.8449 24.3571 13.1611 21.7081 13.1611 18.4524C13.1611 15.1966 15.8449 12.5476 19.1432 12.5476Z" fill="white"/>
<path d="M30.0603 10.3334C30.473 10.3334 30.808 10.0027 30.808 9.59527C30.808 9.18784 30.473 8.85718 30.0603 8.85718C29.6475 8.85718 29.3125 9.18784 29.3125 9.59527C29.3125 10.0027 29.6475 10.3334 30.0603 10.3334Z" fill="black"/>
<path d="M36.0422 5.90476H27.8303L25.4594 1.22428C25.0768 0.469133 24.308 0 23.4529 0H14.8327C13.9774 0 13.2086 0.469133 12.8261 1.22435L10.4552 5.90476H8.97317V5.16667C8.97317 3.94571 7.96683 2.95238 6.72988 2.95238H5.23435C3.9974 2.95238 2.99106 3.94571 2.99106 5.16667V5.90476H2.24329C1.00634 5.90476 0 6.89809 0 8.11905C0 10.1248 0 28.0055 0 28.7857C0 30.0067 1.00634 31 2.24329 31H36.0422C37.2792 31 38.2855 30.0067 38.2855 28.7857C38.2855 26.7799 38.2855 8.89929 38.2855 8.11905C38.2855 6.89809 37.2792 5.90476 36.0422 5.90476ZM1.49553 13.2783H10.9511C9.9573 14.8107 9.42183 16.6066 9.42183 18.4524C9.42183 20.2984 9.95738 22.087 10.951 23.619H1.49553V13.2783ZM10.9174 18.4524C10.9174 13.9349 14.6405 10.3333 19.1428 10.3333C23.6393 10.3333 27.3682 13.9293 27.3682 18.4524C27.3682 22.9704 23.6445 26.5714 19.1428 26.5714C14.637 26.5714 10.9174 22.9664 10.9174 18.4524ZM28.8637 18.4524C28.8637 16.6065 28.3282 14.8181 27.3345 13.2857H36.79V23.619H27.3345C28.3282 22.0867 28.8637 20.2983 28.8637 18.4524ZM14.1638 1.8845C14.2913 1.63267 14.5476 1.47619 14.8327 1.47619H23.4529C23.7379 1.47619 23.9943 1.63267 24.1218 1.8845L26.1583 5.90476H12.1272L14.1638 1.8845ZM4.48659 5.16667C4.48659 4.75968 4.82203 4.42857 5.23435 4.42857H6.72988C7.1422 4.42857 7.47764 4.75968 7.47764 5.16667V5.90476H4.48659V5.16667ZM2.24329 7.38095C2.92234 7.38095 34.991 7.38095 36.0422 7.38095C36.4546 7.38095 36.79 7.71206 36.79 8.11905V11.8095H26.1549C24.3278 9.92945 21.7918 8.85714 19.1428 8.85714C16.4934 8.85714 13.9572 9.92974 12.1306 11.8095H1.49553V8.11905C1.49553 7.71206 1.83098 7.38095 2.24329 7.38095ZM36.0422 29.5238H2.24329C1.83098 29.5238 1.49553 29.1927 1.49553 28.7857V25.0952H12.1307C13.9578 26.9753 16.4938 28.0476 19.1428 28.0476C21.7922 28.0476 24.3284 26.975 26.1549 25.0952H36.79V28.7857C36.79 29.1927 36.4546 29.5238 36.0422 29.5238Z" fill="black"/>
<path d="M21.3857 2.33289H16.8991C16.4861 2.33289 16.1514 2.66333 16.1514 3.07098C16.1514 3.47863 16.4861 3.80908 16.8991 3.80908H21.3857C21.7986 3.80908 22.1335 3.47863 22.1335 3.07098C22.1335 2.66333 21.7986 2.33289 21.3857 2.33289Z" fill="black"/>
<path d="M19.143 25.0953C22.8538 25.0953 25.8728 22.1153 25.8728 18.4524C25.8728 14.7896 22.8538 11.8096 19.143 11.8096C15.4321 11.8096 12.4131 14.7896 12.4131 18.4524C12.4131 22.1153 15.4321 25.0953 19.143 25.0953ZM19.143 13.2858C22.0292 13.2858 24.3773 15.6035 24.3773 18.4524C24.3773 21.3013 22.0292 23.6191 19.143 23.6191C16.2567 23.6191 13.9086 21.3013 13.9086 18.4524C13.9086 15.6035 16.2567 13.2858 19.143 13.2858Z" fill="black"/>
<path d="M16.1521 19.1904C16.5651 19.1904 16.8998 18.86 16.8998 18.4523C16.8998 17.2314 17.9062 16.238 19.1431 16.238C19.556 16.238 19.8909 15.9076 19.8909 15.4999C19.8909 15.0923 19.556 14.7618 19.1431 14.7618C17.0815 14.7618 15.4043 16.4174 15.4043 18.4523C15.4043 18.86 15.7391 19.1904 16.1521 19.1904Z" fill="black"/>
<path d="M33.0515 10.3334H34.547C34.9599 10.3334 35.2948 10.0029 35.2948 9.59527C35.2948 9.18762 34.9599 8.85718 34.547 8.85718H33.0515C32.6386 8.85718 32.3037 9.18762 32.3037 9.59527C32.3037 10.0029 32.6386 10.3334 33.0515 10.3334Z" fill="black"/>
</svg>
