<svg width="39" height="31" viewBox="0 0 39 31" fill="none" xmlns="http://www.w3.org/2000/svg">
<path d="M37.5378 12.5476H7.47766V24.3571H37.5378V12.5476Z" fill="#EF5656"/>
<path d="M7.47766 24.3571V28.7857C7.47766 29.6013 8.0245 30.2619 8.69958 30.2619H36.3158C36.9909 30.2619 37.5377 29.6013 37.5377 28.7857V24.3571H7.47766Z" fill="#CCEEFF"/>
<path d="M36.3159 6.64285H31.428H29.2285H15.787H13.5874H9.92157H8.94401H8.69964C8.02449 6.64285 7.47772 7.30345 7.47772 8.11904V12.5476H37.5378V8.11904C37.5378 7.30345 36.9909 6.64285 36.3159 6.64285Z" fill="#CCEEFF"/>
<path d="M7.10382 3.7388C6.45892 3.9028 5.98212 4.47874 5.98212 5.16664V6.64282H8.22552V5.16664C8.22552 4.47874 7.74873 3.9028 7.10382 3.7388Z" fill="#CCEEFF"/>
<path d="M23.4529 0.738098H20.067C19.501 0.738098 18.9828 1.054 18.7293 1.55443L16.1517 6.64286H27.3682L24.7907 1.55443C24.5372 1.054 24.019 0.738098 23.4529 0.738098Z" fill="#CCEEFF"/>
<path d="M12.5999 18.4524C12.5999 13.9764 15.9711 10.2625 20.3579 9.67636C19.9606 9.62329 19.5551 9.59525 19.1428 9.59525C14.179 9.59525 10.1696 13.571 10.1696 18.4524C10.1696 23.3328 14.1781 27.3095 19.1428 27.3095C19.555 27.3095 19.9605 27.2815 20.3579 27.2284C15.9704 26.6422 12.5999 22.9275 12.5999 18.4524Z" fill="white"/>
<path d="M28.116 18.4524C28.116 13.9772 24.7454 10.2625 20.3579 9.67635C15.9711 10.2625 12.5999 13.9764 12.5999 18.4524C12.5999 22.9275 15.9704 26.6422 20.3579 27.2284C24.7447 26.6423 28.116 22.9283 28.116 18.4524Z" fill="#57555C"/>
<path d="M19.1428 12.5476C22.4411 12.5476 25.1249 15.1966 25.1249 18.4524C25.1249 21.7081 22.4411 24.3571 19.1428 24.3571C15.8444 24.3571 13.1606 21.7081 13.1606 18.4524C13.1606 15.1966 15.8444 12.5476 19.1428 12.5476Z" fill="white"/>
<path d="M30.0601 10.3333C30.4729 10.3333 30.8079 10.0027 30.8079 9.59523C30.8079 9.1878 30.4729 8.85713 30.0601 8.85713C29.6474 8.85713 29.3124 9.1878 29.3124 9.59523C29.3124 10.0027 29.6474 10.3333 30.0601 10.3333Z" fill="black"/>
<path d="M36.0422 5.90476H27.8303L25.4594 1.22428C25.0768 0.469133 24.308 0 23.4529 0H14.8327C13.9774 0 13.2086 0.469133 12.8261 1.22435L10.4552 5.90476H8.97317V5.16667C8.97317 3.94571 7.96683 2.95238 6.72988 2.95238H5.23435C3.9974 2.95238 2.99106 3.94571 2.99106 5.16667V5.90476H2.24329C1.00634 5.90476 0 6.89809 0 8.11905C0 10.1248 0 28.0055 0 28.7857C0 30.0067 1.00634 31 2.24329 31H36.0422C37.2792 31 38.2855 30.0067 38.2855 28.7857C38.2855 26.7799 38.2855 8.89929 38.2855 8.11905C38.2855 6.89809 37.2792 5.90476 36.0422 5.90476ZM1.49553 13.2783H10.9511C9.9573 14.8107 9.42183 16.6066 9.42183 18.4524C9.42183 20.2984 9.95738 22.087 10.951 23.619H1.49553V13.2783ZM10.9174 18.4524C10.9174 13.9349 14.6405 10.3333 19.1428 10.3333C23.6393 10.3333 27.3682 13.9293 27.3682 18.4524C27.3682 22.9704 23.6445 26.5714 19.1428 26.5714C14.637 26.5714 10.9174 22.9664 10.9174 18.4524ZM28.8637 18.4524C28.8637 16.6065 28.3282 14.8181 27.3345 13.2857H36.79V23.619H27.3345C28.3282 22.0867 28.8637 20.2983 28.8637 18.4524ZM14.1638 1.8845C14.2913 1.63267 14.5476 1.47619 14.8327 1.47619H23.4529C23.7379 1.47619 23.9943 1.63267 24.1218 1.8845L26.1583 5.90476H12.1272L14.1638 1.8845ZM4.48659 5.16667C4.48659 4.75968 4.82203 4.42857 5.23435 4.42857H6.72988C7.1422 4.42857 7.47764 4.75968 7.47764 5.16667V5.90476H4.48659V5.16667ZM2.24329 7.38095C2.92234 7.38095 34.991 7.38095 36.0422 7.38095C36.4546 7.38095 36.79 7.71206 36.79 8.11905V11.8095H26.1549C24.3278 9.92945 21.7918 8.85714 19.1428 8.85714C16.4934 8.85714 13.9572 9.92974 12.1306 11.8095H1.49553V8.11905C1.49553 7.71206 1.83098 7.38095 2.24329 7.38095ZM36.0422 29.5238H2.24329C1.83098 29.5238 1.49553 29.1927 1.49553 28.7857V25.0952H12.1307C13.9578 26.9753 16.4938 28.0476 19.1428 28.0476C21.7922 28.0476 24.3284 26.975 26.1549 25.0952H36.79V28.7857C36.79 29.1927 36.4546 29.5238 36.0422 29.5238Z" fill="black"/>
<path d="M21.3861 2.33287H16.8995C16.4865 2.33287 16.1517 2.66332 16.1517 3.07097C16.1517 3.47862 16.4865 3.80906 16.8995 3.80906H21.3861C21.799 3.80906 22.1338 3.47862 22.1338 3.07097C22.1338 2.66332 21.799 2.33287 21.3861 2.33287Z" fill="black"/>
<path d="M19.1428 25.0952C22.8536 25.0952 25.8727 22.1152 25.8727 18.4524C25.8727 14.7895 22.8536 11.8095 19.1428 11.8095C15.4319 11.8095 12.4129 14.7895 12.4129 18.4524C12.4129 22.1152 15.4319 25.0952 19.1428 25.0952ZM19.1428 13.2857C22.029 13.2857 24.3771 15.6035 24.3771 18.4524C24.3771 21.3013 22.029 23.619 19.1428 23.619C16.2566 23.619 13.9084 21.3013 13.9084 18.4524C13.9084 15.6035 16.2566 13.2857 19.1428 13.2857Z" fill="black"/>
<path d="M16.1517 19.1905C16.5647 19.1905 16.8995 18.86 16.8995 18.4524C16.8995 17.2314 17.9058 16.2381 19.1428 16.2381C19.5557 16.2381 19.8905 15.9076 19.8905 15.5C19.8905 15.0923 19.5557 14.7619 19.1428 14.7619C17.0812 14.7619 15.4039 16.4174 15.4039 18.4524C15.4039 18.86 15.7387 19.1905 16.1517 19.1905Z" fill="black"/>
<path d="M33.0512 10.3333H34.5467C34.9596 10.3333 35.2945 10.0029 35.2945 9.59523C35.2945 9.18758 34.9596 8.85713 34.5467 8.85713H33.0512C32.6383 8.85713 32.3034 9.18758 32.3034 9.59523C32.3034 10.0029 32.6383 10.3333 33.0512 10.3333Z" fill="black"/>
</svg>
