<svg width="18" height="21" fill="none" xmlns="http://www.w3.org/2000/svg"><path d="M0 19.305c0 .46.288.78.7.78h5.237c.413 0 .75-.376.75-.836 0-.46-.337-.837-.75-.837H2.512l4.275-4.743a.903.903 0 0 0 0-1.171c-.287-.321-.737-.321-1.037 0l-4.25 4.77v-4.087c0-.46-.338-.837-.75-.837-.413 0-.75.377-.75.837v6.124zm11.138-.056c0 .46.337.837.75.837h5.4c.412 0 .7-.321.7-.781v-5.928c0-.46-.338-.837-.75-.837-.413 0-.75.376-.75.837v3.71l-4.075-4.575c-.288-.321-.75-.321-1.05 0a.885.885 0 0 0 0 1.157l4.275 4.743h-3.775c-.388 0-.725.376-.725.837zM7 .837C7 .377 6.662 0 6.25 0H.7C.288 0 0 .32 0 .781v5.984c0 .46.337.837.75.837.412 0 .75-.377.75-.837V2.608l4.25 4.77c.15.168.325.252.512.252a.705.705 0 0 0 .525-.251.885.885 0 0 0 0-1.158l-4.1-4.547H6.25c.425 0 .75-.377.75-.837zm4.387 6.542c.15.167.337.25.525.25a.638.638 0 0 0 .5-.25l4.087-4.575v3.961c0 .46.338.837.75.837.413 0 .75-.377.75-.837V.781c0-.46-.287-.78-.7-.78h-5.087c-.413 0-.75.376-.75.836 0 .46.337.837.75.837h3.287L11.4 6.22a.87.87 0 0 0-.012 1.158z" fill="#fff"/></svg>