<svg width="16" height="16" viewBox="0 0 16 16" fill="none" xmlns="http://www.w3.org/2000/svg">
<g clip-path="url(#clip0)">
<path d="M15.5625 7.05215C15.5106 6.72711 15.2051 6.50568 14.88 6.55754C14.555 6.6094 14.3335 6.91495 14.3854 7.23999C14.386 7.24355 14.3866 7.24708 14.3872 7.2506C14.9941 10.8233 12.5898 14.2116 9.01711 14.8185C5.44437 15.4254 2.05613 13.0211 1.44921 9.44842C0.842295 5.87569 3.24659 2.48744 6.81929 1.88053C9.01644 1.5073 11.2528 2.27478 12.7578 3.91851L10.1177 4.79815C9.80533 4.90208 9.63642 5.23948 9.7403 5.5518C9.74034 5.55187 9.74037 5.55198 9.74041 5.55205C9.84433 5.86437 10.1817 6.03328 10.4941 5.9294C10.4942 5.92936 10.4942 5.92933 10.4943 5.92933L14.0701 4.73739C14.3136 4.65631 14.4778 4.42845 14.4778 4.17182V0.595985C14.4778 0.266826 14.211 0 13.8818 0C13.5527 0 13.2858 0.266826 13.2858 0.595985V2.77306C10.2166 -0.146141 5.36203 -0.0245139 2.44283 3.0447C-0.476366 6.11391 -0.354773 10.9685 2.71448 13.8877C5.78373 16.807 10.6383 16.6853 13.5575 13.6161C15.2221 11.8659 15.965 9.43379 15.5625 7.05215Z" fill="#4F5558"/>
</g>
<defs>
<clipPath id="clip0">
<rect width="16" height="16" fill="white"/>
</clipPath>
</defs>
</svg>
