<svg width="17" height="13" viewBox="0 0 17 13" fill="none" xmlns="http://www.w3.org/2000/svg">
<path d="M6.45644 12.756C6.55229 12.8519 6.68299 12.8954 6.82239 12.8954H6.83109C6.97049 12.8954 7.10119 12.8432 7.19705 12.7473L12.8432 6.93565C13.0436 6.72654 13.0436 6.40416 12.8345 6.20375L6.77011 0.148134C6.67426 0.0522789 6.53486 0 6.40416 0L0.557631 0.00870292C0.270097 0.00870292 0.0348423 0.235255 0.0348423 0.522789L0 6.26476C0 6.40416 0.0522789 6.54359 0.156837 6.63942L6.45644 12.756ZM1.08042 1.04558L6.18631 1.02814L11.7279 6.5697L6.80495 11.6407L1.04558 6.04691L1.08042 1.04558Z" fill="#262A2C"/>
<path d="M9.87197 0.827761C9.66286 1.02817 9.66286 1.35925 9.86327 1.56837L14.8646 6.65685L9.57571 12.1113C9.37529 12.3204 9.38403 12.6515 9.58441 12.8519C9.68897 12.9477 9.81966 13 9.95036 13C10.0898 13 10.2205 12.9477 10.325 12.8432L15.9711 7.02278C16.1715 6.82236 16.1715 6.49128 15.9711 6.29087L10.6126 0.836464C10.4035 0.636051 10.0724 0.627348 9.87197 0.827761Z" fill="#262A2C"/>
<path d="M3.63309 3.65078C3.73895 3.65078 3.82476 3.56497 3.82476 3.4591C3.82476 3.35324 3.73895 3.26743 3.63309 3.26743C3.52722 3.26743 3.44141 3.35324 3.44141 3.4591C3.44141 3.56497 3.52722 3.65078 3.63309 3.65078Z" fill="#262A2C"/>
<path d="M3.63341 2.74463C3.24132 2.74463 2.91895 3.067 2.91895 3.4591C2.91895 3.85119 3.24132 4.17356 3.63341 4.17356C4.0255 4.17356 4.34788 3.85119 4.34788 3.4591C4.33918 3.067 4.0255 2.74463 3.63341 2.74463Z" fill="#262A2C"/>
</svg>
