<svg width="24" height="27" fill="none" xmlns="http://www.w3.org/2000/svg"><path d="M23.292.073h-3.28c-.392 0-.709.353-.709.79 0 .436.317.79.708.79h1.573L14.31 9.767a3.685 3.685 0 0 0-2.258-.785c-.864 0-1.665.31-2.319.834L2.417 1.652h1.572c.39 0 .708-.353.708-.79 0-.436-.317-.79-.708-.79H.708C.317.073 0 .427 0 .863v3.662c0 .436.317.79.708.79.39 0 .708-.354.708-.79V2.769l7.33 8.18c-.43.71-.68 1.564-.68 2.483 0 .932.259 1.798.7 2.514l-7.35 8.201v-1.754c0-.436-.317-.79-.708-.79-.391 0-.708.354-.708.79v3.661c0 .437.317.79.708.79h3.28c.392 0 .709-.354.709-.79 0-.436-.317-.79-.708-.79H2.417L9.76 17.07c.649.51 1.439.811 2.291.811 2.198 0 3.987-1.995 3.987-4.448 0-.949-.269-1.828-.724-2.551l7.27-8.112v1.755c0 .436.316.79.707.79.391 0 .708-.354.708-.79V.862c0-.436-.317-.79-.708-.79zM12.052 16.3c-1.417 0-2.57-1.287-2.57-2.87 0-1.581 1.153-2.868 2.57-2.868.641 0 1.228.264 1.678.698a.723.723 0 0 0 .25.275c.4.506.643 1.17.643 1.896 0 1.582-1.153 2.869-2.57 2.869zm11.24 5.303c-.39 0-.708.353-.708.79v1.754l-5.307-5.923a.657.657 0 0 0-1.001 0 .856.856 0 0 0 0 1.117l5.307 5.923h-1.572c-.39 0-.708.353-.708.79 0 .436.317.79.708.79h3.281c.39 0 .708-.354.708-.79v-3.662c0-.436-.317-.79-.708-.79z" fill="#262A2C"/></svg>