<svg width="35" height="35" viewBox="0 0 35 35" fill="none" xmlns="http://www.w3.org/2000/svg">
<path d="M32.9495 3.14453H10.1172C9.36523 3.14453 8.75 3.75977 8.75 4.51172V22.2852H34.3167V4.51172C34.3167 3.75977 33.7014 3.14453 32.9495 3.14453Z" fill="#F0F0FB"/>
<path d="M16.5658 12.3993L21.0169 16.8504L21.4644 18.2971L22.8172 18.7156L21.9512 15.916L14.1166 8.08142L13.1497 9.04807L12.6826 9.51537L13.1822 9.01575L16.5658 12.3993Z" fill="white"/>
<path d="M15.5661 13.3985L20.0172 17.8496L21.464 18.2971L21.0165 16.8504L13.1818 9.01575L12.1826 10.015L15.5661 13.3985Z" fill="#FFCE34"/>
<path d="M21.8462 9.04406L22.8171 10.015L21.8504 9.04807L20.8835 8.08142L17.5 11.4649L19.4295 13.3945L18.4626 12.4278L21.8462 9.04406Z" fill="white"/>
<path d="M16.5293 14.3611L17.4999 15.332L15.5664 13.3984L13.0488 15.916V17.8495H14.0117V16.8786L16.5293 14.3611Z" fill="white"/>
<path d="M22.8173 10.0149L21.8464 9.04395L18.4629 12.4277L19.4298 13.3944L19.4338 13.3984L22.8173 10.0149Z" fill="#FF8346"/>
<path d="M17.4999 15.332L16.5293 14.3611L14.0117 16.8786V17.8496H14.9824L17.4999 15.332Z" fill="#FF8346"/>
<path fill-rule="evenodd" clip-rule="evenodd" d="M34.3167 23.6523V22.2852H8.75V23.6523C8.75 24.4043 9.36523 25.0195 10.1172 25.0195H32.9495C33.7014 25.0195 34.3167 24.4043 34.3167 23.6523Z" fill="#00D8CE"/>
<path fill-rule="evenodd" clip-rule="evenodd" d="M17.9502 25.0195L16.583 31.8555H21.9431L20.5759 25.0195H17.9502Z" fill="#00D8CE"/>
<path d="M32.9492 2.46094H2.05078C0.919912 2.46094 0 3.38085 0 4.51171V23.6523C0 24.7832 0.919912 25.7031 2.05078 25.7031H13.5899L12.3864 31.7214C12.3461 31.9222 12.3981 32.1304 12.5279 32.2888C12.6577 32.4471 12.8518 32.539 13.0566 32.539H21.9433C22.1481 32.539 22.3423 32.4471 22.472 32.2888C22.6018 32.1304 22.6539 31.9222 22.6136 31.7214L21.4101 25.7031H32.9492C34.08 25.7031 34.9999 24.7832 34.9999 23.6523V4.51171C34.9999 3.38085 34.08 2.46094 32.9492 2.46094ZM2.05078 3.82812H32.9492C33.3262 3.82812 33.6327 4.13494 33.6327 4.51171V21.6015H1.36718V4.51171C1.36718 4.13467 1.67373 3.82812 2.05078 3.82812ZM21.1094 31.1718H13.8903L14.9843 25.7031H20.0159L21.1094 31.1718ZM32.9492 24.3359C32.9478 24.3359 32.9505 24.3359 32.9492 24.3359H2.05078C2.04917 24.3359 2.05238 24.3359 2.05078 24.3359C1.67373 24.3359 1.36718 24.0291 1.36718 23.6523V22.9687H33.6327V23.6523C33.6327 24.0291 33.3262 24.3359 32.9492 24.3359Z" fill="black"/>
<path d="M29.1191 6.2207H31.9243C32.3019 6.2207 32.6079 5.91469 32.6079 5.53711C32.6079 5.15953 32.3019 4.85352 31.9243 4.85352H29.1191C28.7416 4.85352 28.4355 5.15953 28.4355 5.53711C28.4355 5.91469 28.7416 6.2207 29.1191 6.2207Z" fill="black"/>
<path d="M27.1387 6.2207H27.1547C27.5323 6.2207 27.8383 5.91469 27.8383 5.53711C27.8383 5.15953 27.5323 4.85352 27.1547 4.85352H27.1387C26.7611 4.85352 26.4551 5.15953 26.4551 5.53711C26.4551 5.91469 26.7611 6.2207 27.1387 6.2207Z" fill="black"/>
<path d="M14.5995 13.3985L12.5653 15.4327C12.4371 15.5609 12.3653 15.7347 12.3653 15.916L12.365 17.5663L11.6993 18.2323C11.4323 18.4993 11.4323 18.9321 11.6993 19.1989C11.8328 19.3324 12.0077 19.3992 12.1826 19.3992C12.3575 19.3992 12.5324 19.3324 12.6659 19.1989L13.3319 18.5332H14.9821C15.1635 18.5332 15.3373 18.4611 15.4655 18.3329L17.4997 16.2987L19.5339 18.3329C19.6124 18.4114 19.7091 18.4696 19.8151 18.5025L22.6149 19.3687C22.6814 19.3893 22.7492 19.3992 22.8168 19.3992C22.9954 19.3992 23.1701 19.3292 23.3001 19.1989C23.4795 19.0197 23.5447 18.7559 23.4699 18.5137L22.6037 15.7139C22.5708 15.6079 22.5126 15.5112 22.4341 15.4327L20.3999 13.3985L23.3001 10.4983C23.4283 10.3701 23.5004 10.196 23.5004 10.0147C23.5004 9.8334 23.4283 9.65956 23.3001 9.53139L21.3665 7.5981C21.0995 7.33107 20.6669 7.33107 20.3999 7.5981L17.4997 10.4983L14.5995 7.5981C14.3325 7.33107 13.8996 7.33107 13.6326 7.5981L11.699 9.53166C11.5709 9.65983 11.499 9.83366 11.499 10.015C11.499 10.1963 11.5709 10.3701 11.699 10.4983L14.5995 13.3985ZM14.6991 17.166H13.7322V16.1991L15.5661 14.3651L16.5331 15.3321L14.6991 17.166ZM20.8832 9.04807L21.8501 10.015L19.4332 12.4319L18.4663 11.4649L20.8832 9.04807ZM14.1162 9.04807V9.04833C14.1164 9.0486 14.1159 9.04807 14.1162 9.04807L21.3476 16.2797C21.3481 16.28 18.9497 13.8816 18.9499 13.8818C18.9502 13.8821 21.3473 16.2795 21.3476 16.2797L21.7807 17.6795L20.3809 17.2467C20.3807 17.2464 20.3809 17.2467 20.3809 17.2467L13.1493 10.015L14.1162 9.04807Z" fill="black"/>
</svg>
