<svg width="35" height="35" viewBox="0 0 35 35" fill="none" xmlns="http://www.w3.org/2000/svg">
<path d="M32.9492 3.14456H10.1169C9.36496 3.14456 8.74973 3.7598 8.74973 4.51175V22.2852H34.3164V4.51175C34.3164 3.7598 33.7012 3.14456 32.9492 3.14456Z" fill="#F0F0FB"/>
<path d="M16.5657 12.3992L21.0168 16.8504L21.4643 18.2971L22.8171 18.7155L21.9511 15.916L14.1165 8.08139L13.1496 9.04803L12.6825 9.51534L13.1821 9.01572L16.5657 12.3992Z" fill="white"/>
<path d="M15.5664 13.3985L20.0175 17.8496L21.4643 18.2971L21.0168 16.8503L13.1821 9.01572L12.1829 10.0149L15.5664 13.3985Z" fill="#FFCE34"/>
<path d="M21.8461 9.04403L22.817 10.0149L21.8504 9.04803L20.8835 8.08139L17.5 11.4649L19.4295 13.3945L18.4626 12.4278L21.8461 9.04403Z" fill="white"/>
<path d="M16.5293 14.3611L17.5 15.332L15.5664 13.3985L13.0489 15.916V17.8496H14.0118V16.8786L16.5293 14.3611Z" fill="white"/>
<path d="M22.817 10.0149L21.8461 9.04401L18.4626 12.4278L19.4295 13.3944L19.4335 13.3984L22.817 10.0149Z" fill="#FF8346"/>
<path d="M17.5 15.332L16.5293 14.3611L14.0118 16.8786V17.8496H14.9824L17.5 15.332Z" fill="#FF8346"/>
<path fill-rule="evenodd" clip-rule="evenodd" d="M34.3164 23.6523V22.2851H8.74973V23.6523C8.74973 24.4043 9.36496 25.0195 10.1169 25.0195H32.9492C33.7012 25.0195 34.3164 24.4043 34.3164 23.6523Z" fill="#00D8CE"/>
<path fill-rule="evenodd" clip-rule="evenodd" d="M17.9504 25.0195L16.5833 31.8555H21.9433L20.5761 25.0195H17.9504Z" fill="#00D8CE"/>
<path d="M32.9492 2.46097H2.05078C0.919912 2.46097 0 3.38088 0 4.51174V23.6523C0 24.7832 0.919912 25.7031 2.05078 25.7031H13.5899L12.3864 31.7214C12.3461 31.9222 12.3981 32.1305 12.5279 32.2888C12.6577 32.4472 12.8518 32.539 13.0566 32.539H21.9433C22.1481 32.539 22.3423 32.4472 22.472 32.2888C22.6018 32.1305 22.6539 31.9222 22.6136 31.7214L21.4101 25.7031H32.9492C34.08 25.7031 34.9999 24.7832 34.9999 23.6523V4.51174C34.9999 3.38088 34.08 2.46097 32.9492 2.46097ZM2.05078 3.82815H32.9492C33.3262 3.82815 33.6327 4.13497 33.6327 4.51174V21.6016H1.36718V4.51174C1.36718 4.1347 1.67373 3.82815 2.05078 3.82815ZM21.1094 31.1718H13.8903L14.9843 25.7031H20.0159L21.1094 31.1718ZM32.9492 24.3359C32.9478 24.3359 32.9505 24.3359 32.9492 24.3359H2.05078C2.04917 24.3359 2.05238 24.3359 2.05078 24.3359C1.67373 24.3359 1.36718 24.0291 1.36718 23.6523V22.9687H33.6327V23.6523C33.6327 24.0291 33.3262 24.3359 32.9492 24.3359Z" fill="black"/>
<path d="M29.1187 6.22073H31.9238C32.3014 6.22073 32.6074 5.91472 32.6074 5.53714C32.6074 5.15956 32.3014 4.85355 31.9238 4.85355H29.1187C28.7411 4.85355 28.4351 5.15956 28.4351 5.53714C28.4351 5.91472 28.7411 6.22073 29.1187 6.22073Z" fill="black"/>
<path d="M27.1386 6.22073H27.1546C27.5322 6.22073 27.8382 5.91472 27.8382 5.53714C27.8382 5.15956 27.5322 4.85355 27.1546 4.85355H27.1386C26.761 4.85355 26.455 5.15956 26.455 5.53714C26.455 5.91472 26.761 6.22073 27.1386 6.22073Z" fill="black"/>
<path d="M14.5998 13.3985L12.5655 15.4327C12.4374 15.5609 12.3655 15.7347 12.3655 15.916L12.3653 17.5663L11.6996 18.2322C11.4325 18.4993 11.4325 18.9321 11.6996 19.1989C11.8331 19.3324 12.008 19.3991 12.1829 19.3991C12.3578 19.3991 12.5327 19.3324 12.6662 19.1989L13.3322 18.5332H14.9824C15.1637 18.5332 15.3376 18.4611 15.4657 18.3329L17.5 16.2987L19.5342 18.3329C19.6127 18.4114 19.7094 18.4696 19.8154 18.5025L22.6152 19.3687C22.6817 19.3893 22.7495 19.3991 22.817 19.3991C22.9957 19.3991 23.1703 19.3292 23.3004 19.1989C23.4798 19.0197 23.545 18.7559 23.4702 18.5137L22.604 15.7139C22.5711 15.6079 22.5129 15.5112 22.4344 15.4327L20.4002 13.3985L23.3004 10.4983C23.4285 10.3701 23.5006 10.196 23.5006 10.0147C23.5006 9.83337 23.4285 9.65953 23.3004 9.53136L21.3668 7.59807C21.0998 7.33104 20.6672 7.33104 20.4002 7.59807L17.5 10.4983L14.5998 7.59807C14.3327 7.33104 13.8999 7.33104 13.6329 7.59807L11.6993 9.53162C11.5711 9.6598 11.4993 9.83363 11.4993 10.0149C11.4993 10.1963 11.5711 10.3701 11.6993 10.4983L14.5998 13.3985ZM14.6994 17.166H13.7325V16.1991L15.5664 14.3651L16.5333 15.332L14.6994 17.166ZM20.8835 9.04804L21.8504 10.0149L19.4335 12.4318L18.4666 11.4649L20.8835 9.04804ZM14.1164 9.04804V9.0483C14.1167 9.04857 14.1162 9.04804 14.1164 9.04804L21.3479 16.2797C21.3484 16.28 18.9499 13.8815 18.9502 13.8818C18.9505 13.8821 21.3476 16.2794 21.3479 16.2797L21.781 17.6795L20.3812 17.2466C20.3809 17.2464 20.3812 17.2466 20.3812 17.2466L13.1495 10.0149L14.1164 9.04804Z" fill="black"/>
</svg>
