<svg width="13" height="13" viewBox="0 0 13 13" fill="none" xmlns="http://www.w3.org/2000/svg">
<path d="M9.8827 8.59924C9.45801 8.17997 8.92783 8.17997 8.50585 8.59924C8.18396 8.91843 7.86206 9.23762 7.54557 9.56222C7.45901 9.65149 7.38598 9.67042 7.28048 9.61091C7.0722 9.4973 6.85039 9.40533 6.65022 9.2809C5.71699 8.69392 4.93524 7.93922 4.24276 7.08985C3.89922 6.66787 3.59356 6.21613 3.37986 5.70759C3.33658 5.6048 3.3447 5.53717 3.42855 5.45332C3.75045 5.14224 4.06423 4.82305 4.38071 4.50386C4.82163 4.06024 4.82163 3.54088 4.37801 3.09455C4.12644 2.84028 3.87488 2.59142 3.62331 2.33715C3.36363 2.07747 3.10665 1.81508 2.84427 1.55811C2.41958 1.14424 1.8894 1.14424 1.46742 1.56081C1.14282 1.88001 0.831743 2.20731 0.501732 2.52109C0.196066 2.81053 0.0418806 3.16488 0.00942053 3.57875C-0.0419746 4.2523 0.123031 4.88797 0.355662 5.50742C0.831743 6.78959 1.55669 7.9284 2.43581 8.97253C3.62331 10.3845 5.04074 11.5017 6.69891 12.3078C7.44549 12.6703 8.21912 12.9489 9.06038 12.9949C9.63925 13.0273 10.1424 12.8813 10.5454 12.4295C10.8213 12.1212 11.1324 11.8398 11.4246 11.545C11.8574 11.1068 11.8601 10.5766 11.43 10.1438C10.916 9.62714 10.3994 9.11319 9.8827 8.59924Z" fill="#262A2C"/>
<path d="M9.36582 6.44345L10.364 6.27303C10.2071 5.35603 9.77428 4.52559 9.11696 3.86557C8.42177 3.17039 7.54265 2.73217 6.57425 2.59692L6.43359 3.60048C7.18288 3.70598 7.86454 4.0441 8.40284 4.5824C8.91138 5.09094 9.2441 5.73473 9.36582 6.44345Z" fill="#262A2C"/>
<path d="M10.9279 2.1045C9.77553 0.952163 8.31753 0.224516 6.70804 0L6.56738 1.00356C7.95776 1.19832 9.21829 1.82859 10.2137 2.82132C11.1578 3.76537 11.7772 4.95828 12.0018 6.27021L12.9999 6.09979C12.7375 4.57958 12.0207 3.20003 10.9279 2.1045Z" fill="#262A2C"/>
</svg>
