<svg width="16" height="14" viewBox="0 0 16 14" fill="none" xmlns="http://www.w3.org/2000/svg">
<path d="M0.282607 6.71449L3.96933 8.09049L5.39631 12.6797C5.48762 12.9736 5.84703 13.0822 6.08559 12.8872L8.14063 11.2119C8.35605 11.0364 8.66287 11.0276 8.88799 11.191L12.5946 13.8821C12.8498 14.0676 13.2113 13.9277 13.2753 13.6193L15.9906 0.558495C16.0604 0.221641 15.7294 -0.0593719 15.4087 0.0646814L0.278287 5.90153C-0.0950995 6.04553 -0.0918461 6.57417 0.282607 6.71449ZM5.16634 7.35801L12.3716 2.92031C12.5011 2.84079 12.6343 3.01588 12.5231 3.11903L6.57669 8.64649C6.36767 8.84105 6.23285 9.10143 6.19466 9.38404L5.9921 10.8852C5.96527 11.0856 5.68373 11.1055 5.62842 10.9115L4.84938 8.17417C4.76015 7.86196 4.89018 7.52847 5.16634 7.35801Z" fill="#262A2C"/>
</svg>
