<svg width="20" height="22" viewBox="0 0 20 22" fill="none" xmlns="http://www.w3.org/2000/svg">
<path d="M6.75728 17.5768C7.25041 17.5768 7.65387 17.1734 7.65387 16.6802V0.90032C7.65387 0.556611 7.45963 0.242806 7.16075 0.0933922C6.86187 -0.0560212 6.48831 -0.0261701 6.21933 0.183051L0.361619 4.57632C-0.0418442 4.8752 -0.116577 5.42808 0.182302 5.83154C0.481182 6.23501 1.03406 6.30974 1.43752 6.01086L5.8607 2.69349V16.6802C5.8607 17.1734 6.26416 17.5768 6.75728 17.5768Z" fill="#262A2C"/>
<path d="M12.5851 4.57632C12.0919 4.57632 11.6885 4.97979 11.6885 5.47291V21.1034C11.6885 21.4471 11.8827 21.746 12.1816 21.9103C12.3161 21.9701 12.4506 22 12.5851 22C12.7793 22 12.9586 21.9402 13.123 21.8207L18.9807 17.5021C19.3842 17.2033 19.4589 16.6504 19.175 16.2469C18.8761 15.8435 18.3232 15.7687 17.9198 16.0527L13.4817 19.3252V5.47296C13.4817 4.97979 13.0782 4.57632 12.5851 4.57632Z" fill="#262A2C"/>
</svg>
