<svg width="18" height="12" viewBox="0 0 18 12" fill="none" xmlns="http://www.w3.org/2000/svg">
<path d="M17.8396 10.0254C17.7912 9.94439 17.4919 9.29409 16.0518 7.95749C14.5442 6.55789 14.7467 6.78515 16.5626 4.3651C17.6686 2.89124 18.1107 1.99117 17.9723 1.60639C17.8407 1.23962 17.0273 1.33637 17.0273 1.33637L14.3226 1.35212C14.3226 1.35212 14.1223 1.32512 13.9727 1.414C13.8275 1.50176 13.7341 1.70428 13.7341 1.70428C13.7341 1.70428 13.3055 2.84511 12.7339 3.81493C11.529 5.86146 11.0463 5.96947 10.8494 5.84233C10.3915 5.54644 10.5063 4.65199 10.5063 4.01745C10.5063 2.03393 10.8067 1.20699 9.92011 0.993223C9.62534 0.922343 9.40932 0.875089 8.65664 0.867214C7.69132 0.857088 6.87339 0.870589 6.41098 1.09673C6.1027 1.24749 5.86531 1.58389 6.01045 1.60302C6.18934 1.62665 6.59437 1.71215 6.80926 2.00467C7.08715 2.38158 7.07703 3.22989 7.07703 3.22989C7.07703 3.22989 7.23679 5.56444 6.70462 5.85471C6.33897 6.05385 5.83831 5.64769 4.76385 3.79018C4.21369 2.83949 3.79741 1.78753 3.79741 1.78753C3.79741 1.78753 3.71753 1.59177 3.57464 1.48713C3.40138 1.36 3.15836 1.3195 3.15836 1.3195L0.58642 1.33525C0.58642 1.33525 0.200516 1.3465 0.0587555 1.51414C-0.0672538 1.66377 0.0486298 1.97205 0.0486298 1.97205C0.0486298 1.97205 2.06253 6.68277 4.34195 9.05782C6.43348 11.2349 8.8074 11.092 8.8074 11.092H9.88298C9.88298 11.092 10.2081 11.056 10.3735 10.8771C10.5265 10.7128 10.5209 10.4045 10.5209 10.4045C10.5209 10.4045 10.4995 8.96107 11.1701 8.74842C11.8305 8.53916 12.6788 10.1435 13.5778 10.7612C14.2573 11.2281 14.7737 11.1257 14.7737 11.1257L17.178 11.092C17.178 11.092 18.4359 11.0143 17.8396 10.0254Z" fill="#262A2C"/>
</svg>
