<svg width="54" height="40" fill="none" xmlns="http://www.w3.org/2000/svg"><path d="M51.772 4.078c-1.94-2.344-5.52-3.3-12.36-3.3H14.588C7.593.778 3.95 1.796 2.018 4.292.136 6.725.136 10.31.136 15.272v9.456c0 9.612 2.235 14.493 14.453 14.493h24.825c5.93 0 9.217-.844 11.343-2.912 2.18-2.122 3.11-5.585 3.11-11.58V15.27c0-5.232-.146-8.838-2.094-11.193zM34.63 21.305l-11.272 5.99a1.71 1.71 0 0 1-1.701-.055 1.769 1.769 0 0 1-.835-1.507v-11.94c0-.616.315-1.187.833-1.506a1.709 1.709 0 0 1 1.699-.058l11.273 5.95c.573.303.933.905.934 1.562 0 .657-.358 1.26-.93 1.564z" fill="#fff"/></svg>