<?xml version="1.0" encoding="utf-8"?>
<!-- Generator: Adobe Illustrator 22.1.0, SVG Export Plug-In . SVG Version: 6.00 Build 0)  -->
<svg version="1.1" id="Layer_1" xmlns="http://www.w3.org/2000/svg" xmlns:xlink="http://www.w3.org/1999/xlink" x="0px" y="0px"
	 viewBox="0 0 10 20" style="enable-background:new 0 0 10 20;" xml:space="preserve">
<style type="text/css">
	.st0{fill:#464646;}
</style>
<path class="st0" d="M10,3.9c0-1,0-1.9,0-2.8c0-0.2-0.1-0.4-0.4-0.4c-0.6,0-1.3,0-1.9,0L7,0.8c-2,0-3.7,1.3-4,3.3
	c-0.1,0.5-0.1,1-0.1,1.6c0,0.3,0,0.5,0,0.8c0,0.1,0,0.1,0,0.2c0,0,0,0.1,0,0.1c0,0.3-0.3,0.6-0.6,0.6l-0.5,0c-0.4,0-0.8,0-1.2,0
	C0.1,7.4,0,7.5,0,7.9c0,0.9,0,1.8,0,2.8c0,0.4,0.1,0.5,0.5,0.5c0.4,0,0.8,0,1.2,0l0.5,0c0.3,0,0.6,0.3,0.6,0.6l0,2.2
	c0,1.6,0,3.1,0,4.7c0,0.4,0.1,0.5,0.5,0.5c0.9,0,1.8,0,2.8,0c0.5,0,0.5-0.1,0.5-0.5c0-1.6,0-3.2,0-4.8l0-2.2c0-0.3,0.3-0.6,0.6-0.6
	l0.7,0c0.5,0,1,0,1.4,0c0.4,0,0.5-0.1,0.5-0.5c0-0.7,0-1.5,0-2.2l0-0.4c0-0.5-0.1-0.6-0.6-0.6c-0.5,0-0.9,0-1.4,0l-0.6,0
	c-0.3,0-0.6-0.3-0.6-0.6c0-0.2,0-0.3,0-0.5c0-0.3,0-0.7,0-1c0-0.7,0.3-1,1-1h0c0.3,0,0.6,0,1,0c0.3,0,0.6,0,0.9,0
	C9.9,4.3,10,4.1,10,3.9z"/>
</svg>
