<?xml version="1.0" encoding="utf-8"?>
<!-- Generator: Adobe Illustrator 22.1.0, SVG Export Plug-In . SVG Version: 6.00 Build 0)  -->
<svg version="1.1" id="Layer_1" xmlns="http://www.w3.org/2000/svg" xmlns:xlink="http://www.w3.org/1999/xlink" x="0px" y="0px"
	 viewBox="0 0 21 16" style="enable-background:new 0 0 21 16;" xml:space="preserve">
<style type="text/css">
	.st0{fill:#F4365C;}
</style>
<g>
	<path class="st0" d="M11,9.7c-0.4,0.3-0.6,0.3-1,0C9.8,9.6,9.7,9.4,9.5,9.3C9,8.9,8.5,8.4,8,8c-2.2,2.5-4.5,5-6.7,7.5
		c0.5,0.3,1,0.4,1.5,0.4c3.4,0,6.8,0,10.2,0c1.7,0,3.5,0,5.2,0c0.5,0,1-0.1,1.5-0.4c-2.2-2.5-4.5-5-6.7-7.5
		C12.3,8.6,11.7,9.2,11,9.7z"/>
	<path class="st0" d="M10.5,8.4c3-2.7,6.1-5.3,9.1-8c-0.5-0.3-0.9-0.3-1.4-0.3c-4.5,0-9,0-13.5,0c-0.7,0-1.5,0-2.2,0
		c-0.4,0-0.7,0.2-1.1,0.2c0,0,0,0.1,0,0.1C4.4,3.1,7.5,5.8,10.5,8.4z"/>
	<path class="st0" d="M0.4,1.4C0.1,1.8,0,2.4,0,2.9c0,1.3,0,2.6,0,3.8c0,2.2,0,4.3,0,6.5c0,0.5,0.1,0.9,0.4,1.3
		C2.6,12,4.8,9.6,7,7.1C4.8,5.2,2.6,3.3,0.4,1.4z"/>
	<path class="st0" d="M21,6.5c0-1.2,0-2.4,0-3.6c0-0.5-0.1-1-0.4-1.5c-2.2,1.9-4.4,3.8-6.6,5.7c2.2,2.5,4.4,4.9,6.6,7.4
		c0.2-0.5,0.3-0.9,0.3-1.4C21,10.9,21,8.7,21,6.5z"/>
</g>
</svg>
