<?xml version="1.0" encoding="utf-8"?>
<!-- Generator: Adobe Illustrator 22.1.0, SVG Export Plug-In . SVG Version: 6.00 Build 0)  -->
<svg version="1.1" id="Layer_1" xmlns="http://www.w3.org/2000/svg" xmlns:xlink="http://www.w3.org/1999/xlink" x="0px" y="0px"
	 viewBox="0 0 24 13" style="enable-background:new 0 0 24 13;" xml:space="preserve">
<style type="text/css">
	.st0{fill:#464646;}
</style>
<path class="st0" d="M23.2,11.3c-0.7-0.9-1.3-1.8-2-2.7l-0.9-1.3c-0.5-0.6-0.5-1,0-1.6c0.4-0.5,0.7-1,1.1-1.5l0,0
	c0.6-0.8,1.2-1.7,1.8-2.5c0.3-0.4,0.3-0.7,0.1-1.1C23.2,0.2,22.9,0,22.4,0l-0.1,0c-0.9,0-1.8,0-2.8,0c-0.5,0-0.8,0.2-1.1,0.6
	c-0.6,1.1-1.3,2.2-2,3.2c-0.2,0.3-0.4,0.7-0.6,1l0,0c-0.1,0.1-0.1,0.2-0.2,0.3c-0.3,0.3-0.6,0.4-0.9,0.3c-0.3-0.1-0.6-0.3-0.7-0.7
	C14,4.6,14,4.4,14,4.2c0-0.4,0-0.8,0-1.1c0-0.7,0-1.3,0-2C14,0.4,13.6,0,12.9,0c-0.4,0-0.9,0-1.3,0l-0.1,0c-0.2,0-0.3,0-0.5,0
	c-0.2,0-0.4,0-0.6,0C10,0,9.5,0,9.1,0C8.6,0,8.2,0.3,8,0.7c-0.1,0.5,0,0.9,0.5,1.2C8.8,2,9,2.3,9,2.6c0,0.6,0,1.1,0,1.7
	c0,0.2-0.1,0.3-0.1,0.4C8.7,4.9,8.4,5,8.1,4.9C8,4.8,7.9,4.8,7.8,4.7C7.8,4.6,7.7,4.5,7.7,4.5C7.5,4.3,7.3,4,7.1,3.8
	c-0.5-0.9-1.1-1.9-1.6-3C5.3,0.2,5,0,4.6,0c-0.9,0-2,0-3.2,0C1,0,0.7,0.3,0.5,0.8c-0.1,0.3,0,0.6,0.3,1.1C0.8,1.9,0.9,2,0.9,2
	C3.1,6.6,6,10,9.7,12.4c0.7,0.5,1.5,0.6,2.3,0.5c1.2-0.2,2-1,2-2.2c0-0.2,0-0.4,0-0.6V9.7c0-0.3,0-0.9,0.7-1.1
	c0.1,0,0.2-0.1,0.4-0.1c0.5,0,0.8,0.4,0.9,0.6c0.4,0.5,0.8,1.1,1.2,1.6c0.4,0.6,0.9,1.2,1.4,1.8c0.4,0.5,0.7,0.5,0.9,0.6l0.4,0
	c0.4,0,0.9,0,1.3,0c0.5,0,1,0,1.4,0c0.5,0,0.8-0.3,0.9-0.8C23.5,11.9,23.4,11.6,23.2,11.3z"/>
</svg>
